<svg width="966" height="246" viewBox="0 0 966 246" fill="none" xmlns="http://www.w3.org/2000/svg">
<rect x="2.5" y="2.5" width="293" height="241" rx="20.5" fill="url(#paint0_linear_1_2841)"/>
<rect x="2.5" y="2.5" width="293" height="241" rx="20.5" stroke="url(#paint1_linear_1_2841)" stroke-width="5"/>
<path d="M70.7007 112.696C67.994 112.696 65.4807 112.193 63.1607 111.188C60.8407 110.144 58.8687 108.733 57.2447 106.954C55.6207 105.175 54.422 103.126 53.6487 100.806L59.4487 98.37C60.4927 101.038 62.02 103.087 64.0307 104.518C66.0413 105.949 68.3613 106.664 70.9907 106.664C72.5373 106.664 73.8907 106.432 75.0507 105.968C76.2107 105.465 77.1 104.769 77.7187 103.88C78.376 102.991 78.7047 101.966 78.7047 100.806C78.7047 99.2207 78.26 97.964 77.3707 97.036C76.4813 96.108 75.1667 95.3733 73.4267 94.832L65.3067 92.28C62.0587 91.2747 59.584 89.7473 57.8827 87.698C56.1813 85.61 55.3307 83.174 55.3307 80.39C55.3307 77.954 55.93 75.8273 57.1287 74.01C58.3273 72.154 59.9707 70.704 62.0587 69.66C64.1853 68.616 66.602 68.094 69.3087 68.094C71.8993 68.094 74.258 68.558 76.3847 69.486C78.5113 70.3753 80.3287 71.6127 81.8367 73.198C83.3833 74.7833 84.5047 76.62 85.2007 78.708L79.5167 81.202C78.666 78.9207 77.332 77.1613 75.5147 75.924C73.736 74.6867 71.6673 74.068 69.3087 74.068C67.878 74.068 66.6213 74.3193 65.5387 74.822C64.456 75.286 63.6053 75.982 62.9867 76.91C62.4067 77.7993 62.1167 78.8433 62.1167 80.042C62.1167 81.434 62.5613 82.6713 63.4507 83.754C64.34 84.8367 65.6933 85.6487 67.5107 86.19L75.0507 88.568C78.492 89.612 81.0827 91.12 82.8227 93.092C84.5627 95.0253 85.4327 97.442 85.4327 100.342C85.4327 102.739 84.7947 104.866 83.5187 106.722C82.2813 108.578 80.5607 110.047 78.3567 111.13C76.1527 112.174 73.6007 112.696 70.7007 112.696ZM68.0327 117.8V62.99H72.6727V117.8H68.0327ZM91.5494 112V107.07L103.381 94.426C105.701 91.9513 107.519 89.96 108.833 88.452C110.187 86.9053 111.153 85.552 111.733 84.392C112.352 83.232 112.661 82.014 112.661 80.738C112.661 78.65 112.023 77.0453 110.747 75.924C109.471 74.764 107.828 74.184 105.817 74.184C103.729 74.184 101.931 74.7833 100.423 75.982C98.9154 77.142 97.8714 78.8433 97.2914 81.086L91.2594 79.346C91.7234 77.0647 92.6514 75.0927 94.0434 73.43C95.4354 71.7287 97.1367 70.414 99.1474 69.486C101.197 68.558 103.401 68.094 105.759 68.094C108.505 68.094 110.902 68.616 112.951 69.66C115.001 70.6653 116.586 72.0767 117.707 73.894C118.867 75.7113 119.447 77.8187 119.447 80.216C119.447 81.8013 119.138 83.348 118.519 84.856C117.939 86.3253 117.031 87.8913 115.793 89.554C114.556 91.178 112.971 93.0147 111.037 95.064L100.597 106.2H120.259V112H91.5494ZM140.655 112.696C138.374 112.696 136.228 112.29 134.217 111.478C132.207 110.627 130.467 109.448 128.997 107.94C127.528 106.432 126.484 104.615 125.865 102.488L131.607 100.284C132.342 102.333 133.541 103.899 135.203 104.982C136.866 106.065 138.683 106.606 140.655 106.606C142.279 106.606 143.71 106.239 144.947 105.504C146.185 104.769 147.151 103.764 147.847 102.488C148.582 101.212 148.949 99.762 148.949 98.138C148.949 96.4753 148.582 95.0253 147.847 93.788C147.151 92.512 146.185 91.526 144.947 90.83C143.71 90.0953 142.279 89.728 140.655 89.728C139.031 89.728 137.543 90.0953 136.189 90.83C134.836 91.5647 133.85 92.5507 133.231 93.788L127.721 92.57L131.085 68.79H154.111V74.59H133.753L136.363 71.748L133.869 89.96L131.723 88.51C132.883 86.886 134.295 85.7067 135.957 84.972C137.62 84.2373 139.515 83.87 141.641 83.87C144.464 83.87 146.919 84.508 149.007 85.784C151.134 87.0213 152.777 88.7227 153.937 90.888C155.136 93.0147 155.735 95.4313 155.735 98.138C155.735 100.883 155.078 103.358 153.763 105.562C152.449 107.766 150.651 109.506 148.369 110.782C146.127 112.058 143.555 112.696 140.655 112.696ZM163.463 112V68.79H169.843L186.083 91.294H182.893L198.843 68.79H205.223V112H198.437V76.852L200.989 77.548L184.691 99.82H183.995L168.045 77.548L170.307 76.852V112H163.463ZM225.466 112V100.342H213.808V94.542H225.466V83H231.266V94.542H242.808V100.342H231.266V112H225.466Z" fill="#0766DB"/>
<path d="M59.3551 156V144.08H63.7871C64.5978 144.08 65.3125 144.229 65.9311 144.528C66.5605 144.816 67.0511 145.243 67.4031 145.808C67.7551 146.363 67.9311 147.04 67.9311 147.84C67.9311 148.661 67.7338 149.36 67.3391 149.936C66.9551 150.512 66.4325 150.939 65.7711 151.216L68.5071 156H66.0431L63.1151 150.768L64.5231 151.6H61.5311V156H59.3551ZM61.5311 149.68H63.8191C64.2138 149.68 64.5551 149.605 64.8431 149.456C65.1311 149.296 65.3551 149.077 65.5151 148.8C65.6751 148.523 65.7551 148.203 65.7551 147.84C65.7551 147.467 65.6751 147.147 65.5151 146.88C65.3551 146.603 65.1311 146.389 64.8431 146.24C64.5551 146.08 64.2138 146 63.8191 146H61.5311V149.68ZM72.3973 156.192C71.7893 156.192 71.2613 156.091 70.8133 155.888C70.3653 155.685 70.0186 155.397 69.7733 155.024C69.5279 154.64 69.4053 154.197 69.4053 153.696C69.4053 153.216 69.5119 152.789 69.7253 152.416C69.9386 152.032 70.2693 151.712 70.7173 151.456C71.1653 151.2 71.7306 151.019 72.4133 150.912L75.2613 150.448V152.048L72.8133 152.464C72.3973 152.539 72.0879 152.672 71.8853 152.864C71.6826 153.056 71.5813 153.307 71.5813 153.616C71.5813 153.915 71.6933 154.155 71.9173 154.336C72.1519 154.507 72.4399 154.592 72.7812 154.592C73.2186 154.592 73.6026 154.501 73.9333 154.32C74.2746 154.128 74.5359 153.867 74.7173 153.536C74.9093 153.205 75.0053 152.843 75.0053 152.448V150.208C75.0053 149.835 74.8559 149.525 74.5573 149.28C74.2693 149.024 73.8853 148.896 73.4053 148.896C72.9573 148.896 72.5573 149.019 72.2053 149.264C71.8639 149.499 71.6133 149.813 71.4533 150.208L69.7413 149.376C69.9119 148.917 70.1786 148.523 70.5413 148.192C70.9146 147.851 71.3519 147.584 71.8533 147.392C72.3546 147.2 72.8986 147.104 73.4852 147.104C74.1999 147.104 74.8293 147.237 75.3733 147.504C75.9173 147.76 76.3386 148.123 76.6373 148.592C76.9466 149.051 77.1013 149.589 77.1013 150.208V156H75.1173V154.512L75.5653 154.48C75.3413 154.853 75.0746 155.168 74.7653 155.424C74.4559 155.669 74.1039 155.861 73.7093 156C73.3146 156.128 72.8773 156.192 72.3973 156.192ZM79.0385 156V147.296H81.1345V156H79.0385ZM79.0385 146.32V144.08H81.1345V146.32H79.0385ZM86.3818 156.192C85.4538 156.192 84.6431 155.973 83.9498 155.536C83.2671 155.088 82.7978 154.485 82.5418 153.728L84.1098 152.976C84.3338 153.467 84.6431 153.851 85.0378 154.128C85.4431 154.405 85.8911 154.544 86.3818 154.544C86.7658 154.544 87.0698 154.459 87.2938 154.288C87.5178 154.117 87.6298 153.893 87.6298 153.616C87.6298 153.445 87.5818 153.307 87.4858 153.2C87.4004 153.083 87.2778 152.987 87.1178 152.912C86.9684 152.827 86.8031 152.757 86.6218 152.704L85.1978 152.304C84.4618 152.091 83.9018 151.765 83.5178 151.328C83.1444 150.891 82.9578 150.373 82.9578 149.776C82.9578 149.243 83.0911 148.779 83.3578 148.384C83.6351 147.979 84.0138 147.664 84.4938 147.44C84.9844 147.216 85.5444 147.104 86.1738 147.104C86.9951 147.104 87.7204 147.301 88.3498 147.696C88.9791 148.091 89.4271 148.645 89.6938 149.36L88.0938 150.112C87.9444 149.717 87.6938 149.403 87.3418 149.168C86.9898 148.933 86.5951 148.816 86.1578 148.816C85.8058 148.816 85.5284 148.896 85.3258 149.056C85.1231 149.216 85.0218 149.424 85.0218 149.68C85.0218 149.84 85.0644 149.979 85.1498 150.096C85.2351 150.213 85.3524 150.309 85.5018 150.384C85.6618 150.459 85.8431 150.528 86.0458 150.592L87.4378 151.008C88.1524 151.221 88.7018 151.541 89.0858 151.968C89.4804 152.395 89.6778 152.917 89.6778 153.536C89.6778 154.059 89.5391 154.523 89.2618 154.928C88.9844 155.323 88.6004 155.632 88.1098 155.856C87.6191 156.08 87.0431 156.192 86.3818 156.192ZM95.4165 156.192C94.5205 156.192 93.7365 155.989 93.0645 155.584C92.3925 155.179 91.8698 154.629 91.4965 153.936C91.1232 153.243 90.9365 152.475 90.9365 151.632C90.9365 150.757 91.1232 149.984 91.4965 149.312C91.8805 148.629 92.3978 148.091 93.0485 147.696C93.7098 147.301 94.4458 147.104 95.2565 147.104C95.9392 147.104 96.5365 147.216 97.0485 147.44C97.5712 147.664 98.0138 147.973 98.3765 148.368C98.7392 148.763 99.0165 149.216 99.2085 149.728C99.4005 150.229 99.4965 150.773 99.4965 151.36C99.4965 151.509 99.4858 151.664 99.4645 151.824C99.4538 151.984 99.4272 152.123 99.3845 152.24H92.6645V150.64H98.2005L97.2085 151.392C97.3045 150.901 97.2778 150.464 97.1285 150.08C96.9898 149.696 96.7552 149.392 96.4245 149.168C96.1045 148.944 95.7152 148.832 95.2565 148.832C94.8192 148.832 94.4298 148.944 94.0885 149.168C93.7472 149.381 93.4858 149.701 93.3045 150.128C93.1338 150.544 93.0698 151.051 93.1125 151.648C93.0698 152.181 93.1392 152.656 93.3205 153.072C93.5125 153.477 93.7898 153.792 94.1525 154.016C94.5258 154.24 94.9525 154.352 95.4325 154.352C95.9125 154.352 96.3178 154.251 96.6485 154.048C96.9898 153.845 97.2565 153.573 97.4485 153.232L99.1445 154.064C98.9738 154.48 98.7072 154.848 98.3445 155.168C97.9818 155.488 97.5498 155.739 97.0485 155.92C96.5578 156.101 96.0138 156.192 95.4165 156.192ZM105.133 156.192C104.291 156.192 103.539 155.995 102.877 155.6C102.216 155.195 101.693 154.645 101.309 153.952C100.925 153.259 100.733 152.491 100.733 151.648C100.733 150.795 100.925 150.027 101.309 149.344C101.693 148.661 102.216 148.117 102.877 147.712C103.549 147.307 104.296 147.104 105.117 147.104C105.779 147.104 106.365 147.237 106.877 147.504C107.4 147.76 107.811 148.123 108.109 148.592L107.789 149.024V143.888H109.885V156H107.901V154.32L108.125 154.736C107.827 155.205 107.411 155.568 106.877 155.824C106.344 156.069 105.763 156.192 105.133 156.192ZM105.357 154.272C105.837 154.272 106.259 154.16 106.621 153.936C106.984 153.712 107.267 153.403 107.469 153.008C107.683 152.613 107.789 152.16 107.789 151.648C107.789 151.147 107.683 150.699 107.469 150.304C107.267 149.899 106.984 149.584 106.621 149.36C106.259 149.136 105.837 149.024 105.357 149.024C104.888 149.024 104.467 149.141 104.093 149.376C103.72 149.6 103.427 149.909 103.213 150.304C103.011 150.688 102.909 151.136 102.909 151.648C102.909 152.16 103.011 152.613 103.213 153.008C103.427 153.403 103.72 153.712 104.093 153.936C104.467 154.16 104.888 154.272 105.357 154.272Z" fill="#1B1B1B"/>
<path d="M119.241 156.192C118.548 156.192 117.913 156.037 117.337 155.728C116.772 155.419 116.334 154.981 116.025 154.416L116.233 154.16V156H114.777V143.888H116.265V149.232L116.041 148.864C116.361 148.352 116.798 147.947 117.353 147.648C117.908 147.339 118.542 147.184 119.257 147.184C120.068 147.184 120.793 147.381 121.433 147.776C122.084 148.171 122.596 148.709 122.969 149.392C123.342 150.064 123.529 150.832 123.529 151.696C123.529 152.539 123.342 153.301 122.969 153.984C122.596 154.667 122.084 155.205 121.433 155.6C120.793 155.995 120.062 156.192 119.241 156.192ZM119.129 154.752C119.673 154.752 120.158 154.619 120.585 154.352C121.012 154.085 121.342 153.723 121.577 153.264C121.822 152.795 121.945 152.272 121.945 151.696C121.945 151.099 121.822 150.576 121.577 150.128C121.342 149.669 121.012 149.307 120.585 149.04C120.158 148.763 119.673 148.624 119.129 148.624C118.585 148.624 118.094 148.757 117.657 149.024C117.23 149.291 116.889 149.659 116.633 150.128C116.388 150.587 116.265 151.109 116.265 151.696C116.265 152.272 116.388 152.795 116.633 153.264C116.889 153.723 117.23 154.085 117.657 154.352C118.094 154.619 118.585 154.752 119.129 154.752ZM125.788 159.52C125.596 159.52 125.404 159.504 125.212 159.472C125.02 159.44 124.839 159.387 124.668 159.312V157.984C124.785 158.005 124.929 158.027 125.1 158.048C125.281 158.08 125.457 158.096 125.628 158.096C126.129 158.096 126.508 157.984 126.764 157.76C127.031 157.547 127.281 157.173 127.516 156.64L128.06 155.344L128.028 156.64L124.348 147.376H125.964L128.828 154.736H128.348L131.196 147.376H132.844L128.956 157.024C128.775 157.483 128.54 157.899 128.252 158.272C127.975 158.656 127.633 158.96 127.228 159.184C126.823 159.408 126.343 159.52 125.788 159.52ZM137.845 156V148.8H136.197V147.376H137.845V146.768C137.845 146.149 137.979 145.627 138.245 145.2C138.523 144.773 138.885 144.448 139.333 144.224C139.792 144 140.299 143.888 140.853 143.888C140.971 143.888 141.099 143.899 141.237 143.92C141.387 143.931 141.509 143.947 141.605 143.968V145.296C141.52 145.275 141.419 145.264 141.301 145.264C141.184 145.253 141.093 145.248 141.029 145.248C140.539 145.248 140.133 145.365 139.813 145.6C139.504 145.835 139.349 146.224 139.349 146.768V147.376H141.397V148.8H139.349V156H137.845ZM146.982 156.192C146.15 156.192 145.398 156 144.726 155.616C144.054 155.221 143.521 154.683 143.126 154C142.732 153.317 142.534 152.544 142.534 151.68C142.534 150.816 142.726 150.048 143.11 149.376C143.505 148.704 144.038 148.171 144.71 147.776C145.382 147.381 146.14 147.184 146.982 147.184C147.814 147.184 148.566 147.381 149.238 147.776C149.91 148.16 150.438 148.688 150.822 149.36C151.217 150.032 151.414 150.805 151.414 151.68C151.414 152.555 151.212 153.333 150.806 154.016C150.401 154.688 149.862 155.221 149.19 155.616C148.529 156 147.793 156.192 146.982 156.192ZM146.982 154.752C147.516 154.752 147.996 154.619 148.422 154.352C148.86 154.085 149.201 153.717 149.446 153.248C149.702 152.779 149.83 152.256 149.83 151.68C149.83 151.093 149.702 150.576 149.446 150.128C149.201 149.669 148.86 149.307 148.422 149.04C147.996 148.763 147.516 148.624 146.982 148.624C146.438 148.624 145.948 148.763 145.51 149.04C145.084 149.307 144.742 149.669 144.486 150.128C144.23 150.576 144.102 151.093 144.102 151.68C144.102 152.256 144.23 152.779 144.486 153.248C144.742 153.717 145.084 154.085 145.51 154.352C145.948 154.619 146.438 154.752 146.982 154.752ZM156.411 156.192C155.792 156.192 155.232 156.048 154.731 155.76C154.24 155.472 153.856 155.072 153.579 154.56C153.312 154.037 153.179 153.44 153.179 152.768V147.376H154.667V152.608C154.667 153.035 154.752 153.408 154.923 153.728C155.104 154.048 155.35 154.299 155.659 154.48C155.979 154.661 156.342 154.752 156.747 154.752C157.152 154.752 157.51 154.661 157.819 154.48C158.139 154.299 158.384 154.037 158.555 153.696C158.736 153.355 158.827 152.949 158.827 152.48V147.376H160.331V156H158.875V154.32L159.115 154.464C158.912 155.008 158.566 155.435 158.075 155.744C157.595 156.043 157.04 156.192 156.411 156.192ZM162.636 156V147.376H164.092V149.056L163.852 148.912C164.066 148.368 164.407 147.947 164.876 147.648C165.356 147.339 165.916 147.184 166.556 147.184C167.175 147.184 167.724 147.323 168.204 147.6C168.695 147.877 169.079 148.261 169.356 148.752C169.644 149.243 169.788 149.797 169.788 150.416V156H168.284V150.896C168.284 150.416 168.199 150.011 168.028 149.68C167.858 149.349 167.612 149.093 167.292 148.912C166.983 148.72 166.626 148.624 166.22 148.624C165.815 148.624 165.452 148.72 165.132 148.912C164.823 149.093 164.578 149.355 164.396 149.696C164.215 150.027 164.124 150.427 164.124 150.896V156H162.636ZM175.838 156.192C175.027 156.192 174.296 155.995 173.646 155.6C173.006 155.205 172.499 154.667 172.126 153.984C171.752 153.301 171.566 152.539 171.566 151.696C171.566 150.832 171.752 150.064 172.126 149.392C172.499 148.709 173.006 148.171 173.646 147.776C174.296 147.381 175.027 147.184 175.838 147.184C176.552 147.184 177.187 147.339 177.742 147.648C178.296 147.947 178.734 148.352 179.054 148.864L178.814 149.232V143.888H180.318V156H178.862V154.16L179.054 154.416C178.755 154.981 178.318 155.419 177.742 155.728C177.176 156.037 176.542 156.192 175.838 156.192ZM175.966 154.752C176.51 154.752 176.995 154.619 177.422 154.352C177.848 154.085 178.184 153.723 178.43 153.264C178.686 152.795 178.814 152.272 178.814 151.696C178.814 151.109 178.686 150.587 178.43 150.128C178.184 149.659 177.848 149.291 177.422 149.024C176.995 148.757 176.51 148.624 175.966 148.624C175.432 148.624 174.947 148.763 174.51 149.04C174.083 149.307 173.747 149.669 173.502 150.128C173.256 150.576 173.134 151.099 173.134 151.696C173.134 152.272 173.256 152.795 173.502 153.264C173.747 153.723 174.083 154.085 174.51 154.352C174.936 154.619 175.422 154.752 175.966 154.752ZM186.589 156.192C185.757 156.192 185.015 155.995 184.365 155.6C183.714 155.205 183.202 154.667 182.829 153.984C182.455 153.291 182.269 152.517 182.269 151.664C182.269 150.8 182.45 150.032 182.813 149.36C183.186 148.688 183.687 148.16 184.317 147.776C184.957 147.381 185.671 147.184 186.461 147.184C187.101 147.184 187.666 147.301 188.157 147.536C188.658 147.76 189.079 148.069 189.421 148.464C189.773 148.848 190.039 149.291 190.221 149.792C190.413 150.283 190.509 150.795 190.509 151.328C190.509 151.445 190.498 151.579 190.477 151.728C190.466 151.867 190.45 152 190.429 152.128H183.357V150.848H189.565L188.861 151.424C188.957 150.869 188.903 150.373 188.701 149.936C188.498 149.499 188.199 149.152 187.805 148.896C187.41 148.64 186.962 148.512 186.461 148.512C185.959 148.512 185.501 148.64 185.085 148.896C184.669 149.152 184.343 149.52 184.109 150C183.885 150.469 183.794 151.029 183.837 151.68C183.794 152.309 183.89 152.864 184.125 153.344C184.37 153.813 184.711 154.181 185.149 154.448C185.597 154.704 186.082 154.832 186.605 154.832C187.181 154.832 187.666 154.699 188.061 154.432C188.455 154.165 188.775 153.824 189.021 153.408L190.269 154.048C190.098 154.443 189.831 154.805 189.469 155.136C189.117 155.456 188.695 155.712 188.205 155.904C187.725 156.096 187.186 156.192 186.589 156.192ZM192.449 156V147.376H193.905V148.96L193.745 148.736C193.948 148.245 194.257 147.883 194.673 147.648C195.089 147.403 195.596 147.28 196.193 147.28H196.721V148.688H195.969C195.361 148.688 194.87 148.88 194.497 149.264C194.124 149.637 193.937 150.171 193.937 150.864V156H192.449ZM201.131 156.192C200.267 156.192 199.515 155.979 198.875 155.552C198.235 155.125 197.781 154.549 197.515 153.824L198.699 153.248C198.944 153.76 199.28 154.165 199.707 154.464C200.133 154.763 200.608 154.912 201.131 154.912C201.6 154.912 201.989 154.8 202.299 154.576C202.608 154.352 202.763 154.059 202.763 153.696C202.763 153.44 202.688 153.237 202.539 153.088C202.4 152.928 202.229 152.805 202.027 152.72C201.824 152.624 201.637 152.555 201.467 152.512L200.171 152.144C199.392 151.92 198.821 151.6 198.459 151.184C198.107 150.768 197.931 150.283 197.931 149.728C197.931 149.216 198.059 148.773 198.315 148.4C198.581 148.016 198.939 147.717 199.387 147.504C199.845 147.291 200.357 147.184 200.923 147.184C201.68 147.184 202.357 147.376 202.955 147.76C203.563 148.144 203.995 148.683 204.251 149.376L203.035 149.936C202.843 149.488 202.555 149.136 202.171 148.88C201.787 148.613 201.355 148.48 200.875 148.48C200.437 148.48 200.091 148.592 199.835 148.816C199.579 149.029 199.451 149.301 199.451 149.632C199.451 149.877 199.515 150.08 199.643 150.24C199.771 150.389 199.925 150.507 200.107 150.592C200.288 150.667 200.464 150.731 200.635 150.784L202.043 151.2C202.747 151.403 203.291 151.717 203.675 152.144C204.069 152.571 204.267 153.083 204.267 153.68C204.267 154.16 204.133 154.592 203.867 154.976C203.6 155.36 203.232 155.659 202.763 155.872C202.293 156.085 201.749 156.192 201.131 156.192ZM210.964 156L208.004 147.376H209.652L212.004 154.592L211.428 154.576L213.732 147.376H215.14L217.444 154.576L216.868 154.592L219.236 147.376H220.868L217.908 156H216.484L214.212 148.8H214.66L212.388 156H210.964ZM222.199 156V143.888H223.687V149.056L223.415 148.912C223.628 148.368 223.97 147.947 224.439 147.648C224.919 147.339 225.479 147.184 226.119 147.184C226.738 147.184 227.287 147.323 227.767 147.6C228.258 147.877 228.642 148.261 228.919 148.752C229.207 149.243 229.351 149.797 229.351 150.416V156H227.847V150.896C227.847 150.416 227.756 150.011 227.575 149.68C227.404 149.349 227.164 149.093 226.855 148.912C226.546 148.72 226.188 148.624 225.783 148.624C225.388 148.624 225.031 148.72 224.711 148.912C224.391 149.093 224.14 149.355 223.959 149.696C223.778 150.027 223.687 150.427 223.687 150.896V156H222.199ZM235.576 156.192C234.744 156.192 233.992 156 233.32 155.616C232.648 155.221 232.115 154.683 231.72 154C231.325 153.317 231.128 152.544 231.128 151.68C231.128 150.816 231.32 150.048 231.704 149.376C232.099 148.704 232.632 148.171 233.304 147.776C233.976 147.381 234.733 147.184 235.576 147.184C236.408 147.184 237.16 147.381 237.832 147.776C238.504 148.16 239.032 148.688 239.416 149.36C239.811 150.032 240.008 150.805 240.008 151.68C240.008 152.555 239.805 153.333 239.4 154.016C238.995 154.688 238.456 155.221 237.784 155.616C237.123 156 236.387 156.192 235.576 156.192ZM235.576 154.752C236.109 154.752 236.589 154.619 237.016 154.352C237.453 154.085 237.795 153.717 238.04 153.248C238.296 152.779 238.424 152.256 238.424 151.68C238.424 151.093 238.296 150.576 238.04 150.128C237.795 149.669 237.453 149.307 237.016 149.04C236.589 148.763 236.109 148.624 235.576 148.624C235.032 148.624 234.541 148.763 234.104 149.04C233.677 149.307 233.336 149.669 233.08 150.128C232.824 150.576 232.696 151.093 232.696 151.68C232.696 152.256 232.824 152.779 233.08 153.248C233.336 153.717 233.677 154.085 234.104 154.352C234.541 154.619 235.032 154.752 235.576 154.752ZM87.3317 184V171.888H88.8197V184H87.3317ZM93.6566 184.192C93.0912 184.192 92.5899 184.091 92.1526 183.888C91.7259 183.675 91.3899 183.387 91.1446 183.024C90.8992 182.651 90.7766 182.224 90.7766 181.744C90.7766 181.285 90.8726 180.875 91.0646 180.512C91.2672 180.139 91.5766 179.824 91.9926 179.568C92.4192 179.312 92.9526 179.131 93.5926 179.024L96.7926 178.496V179.744L93.9286 180.224C93.3739 180.32 92.9686 180.496 92.7126 180.752C92.4672 181.008 92.3446 181.323 92.3446 181.696C92.3446 182.048 92.4832 182.341 92.7606 182.576C93.0486 182.811 93.4059 182.928 93.8326 182.928C94.3766 182.928 94.8459 182.816 95.2406 182.592C95.6459 182.357 95.9606 182.043 96.1846 181.648C96.4192 181.253 96.5366 180.816 96.5366 180.336V178.144C96.5366 177.675 96.3606 177.296 96.0086 177.008C95.6672 176.709 95.2139 176.56 94.6486 176.56C94.1579 176.56 93.7206 176.688 93.3366 176.944C92.9632 177.189 92.6859 177.52 92.5046 177.936L91.2086 177.264C91.3686 176.869 91.6246 176.517 91.9766 176.208C92.3286 175.888 92.7392 175.637 93.2086 175.456C93.6779 175.275 94.1686 175.184 94.6806 175.184C95.3419 175.184 95.9232 175.312 96.4246 175.568C96.9259 175.813 97.3152 176.16 97.5926 176.608C97.8806 177.045 98.0246 177.557 98.0246 178.144V184H96.5686V182.368L96.8406 182.464C96.6592 182.805 96.4139 183.104 96.1046 183.36C95.7952 183.616 95.4326 183.819 95.0166 183.968C94.6006 184.117 94.1472 184.192 93.6566 184.192ZM103.388 184.192C102.769 184.192 102.209 184.048 101.708 183.76C101.217 183.472 100.833 183.072 100.556 182.56C100.289 182.037 100.156 181.44 100.156 180.768V175.376H101.644V180.608C101.644 181.035 101.729 181.408 101.9 181.728C102.081 182.048 102.326 182.299 102.636 182.48C102.956 182.661 103.318 182.752 103.724 182.752C104.129 182.752 104.486 182.661 104.796 182.48C105.116 182.299 105.361 182.037 105.532 181.696C105.713 181.355 105.804 180.949 105.804 180.48V175.376H107.308V184H105.852V182.32L106.092 182.464C105.889 183.008 105.542 183.435 105.052 183.744C104.572 184.043 104.017 184.192 103.388 184.192ZM109.613 184V175.376H111.069V177.056L110.829 176.912C111.042 176.368 111.384 175.947 111.853 175.648C112.333 175.339 112.893 175.184 113.533 175.184C114.152 175.184 114.701 175.323 115.181 175.6C115.672 175.877 116.056 176.261 116.333 176.752C116.621 177.243 116.765 177.797 116.765 178.416V184H115.261V178.896C115.261 178.416 115.176 178.011 115.005 177.68C114.834 177.349 114.589 177.093 114.269 176.912C113.96 176.72 113.602 176.624 113.197 176.624C112.792 176.624 112.429 176.72 112.109 176.912C111.8 177.093 111.554 177.355 111.373 177.696C111.192 178.027 111.101 178.427 111.101 178.896V184H109.613ZM122.894 184.192C122.052 184.192 121.3 183.995 120.638 183.6C119.988 183.205 119.476 182.667 119.102 181.984C118.729 181.301 118.542 180.533 118.542 179.68C118.542 178.816 118.729 178.048 119.102 177.376C119.476 176.704 119.988 176.171 120.638 175.776C121.3 175.381 122.052 175.184 122.894 175.184C123.46 175.184 123.988 175.285 124.478 175.488C124.969 175.691 125.401 175.963 125.774 176.304C126.148 176.645 126.42 177.045 126.59 177.504L125.262 178.144C125.06 177.696 124.75 177.333 124.334 177.056C123.918 176.768 123.438 176.624 122.894 176.624C122.372 176.624 121.897 176.757 121.47 177.024C121.054 177.291 120.724 177.653 120.478 178.112C120.233 178.571 120.11 179.099 120.11 179.696C120.11 180.272 120.233 180.795 120.478 181.264C120.724 181.723 121.054 182.085 121.47 182.352C121.897 182.619 122.372 182.752 122.894 182.752C123.438 182.752 123.918 182.613 124.334 182.336C124.75 182.048 125.06 181.669 125.262 181.2L126.59 181.872C126.42 182.32 126.148 182.72 125.774 183.072C125.401 183.413 124.969 183.685 124.478 183.888C123.988 184.091 123.46 184.192 122.894 184.192ZM128.535 184V171.888H130.023V177.056L129.751 176.912C129.964 176.368 130.305 175.947 130.775 175.648C131.255 175.339 131.815 175.184 132.455 175.184C133.073 175.184 133.623 175.323 134.103 175.6C134.593 175.877 134.977 176.261 135.255 176.752C135.543 177.243 135.687 177.797 135.687 178.416V184H134.183V178.896C134.183 178.416 134.092 178.011 133.911 177.68C133.74 177.349 133.5 177.093 133.191 176.912C132.881 176.72 132.524 176.624 132.119 176.624C131.724 176.624 131.367 176.72 131.047 176.912C130.727 177.093 130.476 177.355 130.295 177.696C130.113 178.027 130.023 178.427 130.023 178.896V184H128.535ZM141.784 184.192C140.952 184.192 140.211 183.995 139.56 183.6C138.909 183.205 138.397 182.667 138.024 181.984C137.651 181.291 137.464 180.517 137.464 179.664C137.464 178.8 137.645 178.032 138.008 177.36C138.381 176.688 138.883 176.16 139.512 175.776C140.152 175.381 140.867 175.184 141.656 175.184C142.296 175.184 142.861 175.301 143.352 175.536C143.853 175.76 144.275 176.069 144.616 176.464C144.968 176.848 145.235 177.291 145.416 177.792C145.608 178.283 145.704 178.795 145.704 179.328C145.704 179.445 145.693 179.579 145.672 179.728C145.661 179.867 145.645 180 145.624 180.128H138.552V178.848H144.76L144.056 179.424C144.152 178.869 144.099 178.373 143.896 177.936C143.693 177.499 143.395 177.152 143 176.896C142.605 176.64 142.157 176.512 141.656 176.512C141.155 176.512 140.696 176.64 140.28 176.896C139.864 177.152 139.539 177.52 139.304 178C139.08 178.469 138.989 179.029 139.032 179.68C138.989 180.309 139.085 180.864 139.32 181.344C139.565 181.813 139.907 182.181 140.344 182.448C140.792 182.704 141.277 182.832 141.8 182.832C142.376 182.832 142.861 182.699 143.256 182.432C143.651 182.165 143.971 181.824 144.216 181.408L145.464 182.048C145.293 182.443 145.027 182.805 144.664 183.136C144.312 183.456 143.891 183.712 143.4 183.904C142.92 184.096 142.381 184.192 141.784 184.192ZM151.564 184.192C150.754 184.192 150.023 183.995 149.372 183.6C148.732 183.205 148.226 182.667 147.852 181.984C147.479 181.301 147.292 180.539 147.292 179.696C147.292 178.832 147.479 178.064 147.852 177.392C148.226 176.709 148.732 176.171 149.372 175.776C150.023 175.381 150.754 175.184 151.564 175.184C152.279 175.184 152.914 175.339 153.468 175.648C154.023 175.947 154.46 176.352 154.78 176.864L154.54 177.232V171.888H156.044V184H154.588V182.16L154.78 182.416C154.482 182.981 154.044 183.419 153.468 183.728C152.903 184.037 152.268 184.192 151.564 184.192ZM151.692 182.752C152.236 182.752 152.722 182.619 153.148 182.352C153.575 182.085 153.911 181.723 154.156 181.264C154.412 180.795 154.54 180.272 154.54 179.696C154.54 179.109 154.412 178.587 154.156 178.128C153.911 177.659 153.575 177.291 153.148 177.024C152.722 176.757 152.236 176.624 151.692 176.624C151.159 176.624 150.674 176.763 150.236 177.04C149.81 177.307 149.474 177.669 149.228 178.128C148.983 178.576 148.86 179.099 148.86 179.696C148.86 180.272 148.983 180.795 149.228 181.264C149.474 181.723 149.81 182.085 150.236 182.352C150.663 182.619 151.148 182.752 151.692 182.752ZM163.097 184L160.137 175.376H161.785L164.137 182.592L163.561 182.576L165.865 175.376H167.273L169.577 182.576L169.001 182.592L171.369 175.376H173.001L170.041 184H168.617L166.345 176.8H166.793L164.521 184H163.097ZM174.332 184V175.376H175.82V184H174.332ZM174.332 174V172.08H175.82V174H174.332ZM181.633 184.096C180.79 184.096 180.139 183.856 179.681 183.376C179.233 182.896 179.009 182.219 179.009 181.344V176.8H177.441V175.376H177.761C178.145 175.376 178.449 175.259 178.673 175.024C178.897 174.789 179.009 174.48 179.009 174.096V173.392H180.497V175.376H182.433V176.8H180.497V181.296C180.497 181.584 180.539 181.835 180.625 182.048C180.721 182.261 180.875 182.432 181.089 182.56C181.302 182.677 181.585 182.736 181.937 182.736C182.011 182.736 182.102 182.731 182.209 182.72C182.326 182.709 182.433 182.699 182.529 182.688V184C182.39 184.032 182.235 184.053 182.065 184.064C181.894 184.085 181.75 184.096 181.633 184.096ZM184.472 184V171.888H185.96V177.056L185.688 176.912C185.902 176.368 186.243 175.947 186.712 175.648C187.192 175.339 187.752 175.184 188.392 175.184C189.011 175.184 189.56 175.323 190.04 175.6C190.531 175.877 190.915 176.261 191.192 176.752C191.48 177.243 191.624 177.797 191.624 178.416V184H190.12V178.896C190.12 178.416 190.03 178.011 189.848 177.68C189.678 177.349 189.438 177.093 189.128 176.912C188.819 176.72 188.462 176.624 188.056 176.624C187.662 176.624 187.304 176.72 186.984 176.912C186.664 177.093 186.414 177.355 186.232 177.696C186.051 178.027 185.96 178.427 185.96 178.896V184H184.472ZM199.575 184.192C198.957 184.192 198.397 184.048 197.895 183.76C197.405 183.472 197.021 183.072 196.743 182.56C196.477 182.037 196.343 181.44 196.343 180.768V175.376H197.831V180.608C197.831 181.035 197.917 181.408 198.087 181.728C198.269 182.048 198.514 182.299 198.823 182.48C199.143 182.661 199.506 182.752 199.911 182.752C200.317 182.752 200.674 182.661 200.983 182.48C201.303 182.299 201.549 182.037 201.719 181.696C201.901 181.355 201.991 180.949 201.991 180.48V175.376H203.495V184H202.039V182.32L202.279 182.464C202.077 183.008 201.73 183.435 201.239 183.744C200.759 184.043 200.205 184.192 199.575 184.192ZM208.888 184.192C208.024 184.192 207.272 183.979 206.632 183.552C205.992 183.125 205.539 182.549 205.272 181.824L206.456 181.248C206.702 181.76 207.038 182.165 207.464 182.464C207.891 182.763 208.366 182.912 208.888 182.912C209.358 182.912 209.747 182.8 210.056 182.576C210.366 182.352 210.52 182.059 210.52 181.696C210.52 181.44 210.446 181.237 210.296 181.088C210.158 180.928 209.987 180.805 209.784 180.72C209.582 180.624 209.395 180.555 209.224 180.512L207.928 180.144C207.15 179.92 206.579 179.6 206.216 179.184C205.864 178.768 205.688 178.283 205.688 177.728C205.688 177.216 205.816 176.773 206.072 176.4C206.339 176.016 206.696 175.717 207.144 175.504C207.603 175.291 208.115 175.184 208.68 175.184C209.438 175.184 210.115 175.376 210.712 175.76C211.32 176.144 211.752 176.683 212.008 177.376L210.792 177.936C210.6 177.488 210.312 177.136 209.928 176.88C209.544 176.613 209.112 176.48 208.632 176.48C208.195 176.48 207.848 176.592 207.592 176.816C207.336 177.029 207.208 177.301 207.208 177.632C207.208 177.877 207.272 178.08 207.4 178.24C207.528 178.389 207.683 178.507 207.864 178.592C208.046 178.667 208.222 178.731 208.392 178.784L209.8 179.2C210.504 179.403 211.048 179.717 211.432 180.144C211.827 180.571 212.024 181.083 212.024 181.68C212.024 182.16 211.891 182.592 211.624 182.976C211.358 183.36 210.99 183.659 210.52 183.872C210.051 184.085 209.507 184.192 208.888 184.192Z" fill="#505050"/>
<rect x="336.5" y="2.5" width="293" height="241" rx="20.5" fill="url(#paint2_linear_1_2841)"/>
<rect x="336.5" y="2.5" width="293" height="241" rx="20.5" stroke="url(#paint3_linear_1_2841)" stroke-width="5"/>
<path d="M443.635 111.696C441.354 111.696 439.208 111.29 437.197 110.478C435.186 109.627 433.446 108.448 431.977 106.94C430.508 105.432 429.464 103.615 428.845 101.488L434.587 99.284C435.322 101.333 436.52 102.899 438.183 103.982C439.846 105.065 441.663 105.606 443.635 105.606C445.259 105.606 446.69 105.239 447.927 104.504C449.164 103.769 450.131 102.764 450.827 101.488C451.562 100.212 451.929 98.762 451.929 97.138C451.929 95.4753 451.562 94.0253 450.827 92.788C450.131 91.512 449.164 90.526 447.927 89.83C446.69 89.0953 445.259 88.728 443.635 88.728C442.011 88.728 440.522 89.0953 439.169 89.83C437.816 90.5647 436.83 91.5507 436.211 92.788L430.701 91.57L434.065 67.79H457.091V73.59H436.733L439.343 70.748L436.849 88.96L434.703 87.51C435.863 85.886 437.274 84.7067 438.937 83.972C440.6 83.2373 442.494 82.87 444.621 82.87C447.444 82.87 449.899 83.508 451.987 84.784C454.114 86.0213 455.757 87.7227 456.917 89.888C458.116 92.0147 458.715 94.4313 458.715 97.138C458.715 99.8833 458.058 102.358 456.743 104.562C455.428 106.766 453.63 108.506 451.349 109.782C449.106 111.058 446.535 111.696 443.635 111.696ZM482.799 111.696C479.357 111.696 476.341 110.768 473.751 108.912C471.16 107.017 469.13 104.407 467.661 101.082C466.23 97.718 465.515 93.8127 465.515 89.366C465.515 84.8807 466.23 80.9753 467.661 77.65C469.13 74.3247 471.141 71.734 473.693 69.878C476.283 68.022 479.299 67.094 482.741 67.094C486.182 67.094 489.179 68.022 491.731 69.878C494.321 71.734 496.332 74.344 497.763 77.708C499.232 81.0333 499.967 84.9193 499.967 89.366C499.967 93.8127 499.251 97.718 497.821 101.082C496.39 104.407 494.379 107.017 491.789 108.912C489.237 110.768 486.24 111.696 482.799 111.696ZM482.799 105.432C484.925 105.432 486.762 104.775 488.309 103.46C489.855 102.145 491.054 100.289 491.905 97.892C492.755 95.4947 493.181 92.6527 493.181 89.366C493.181 86.0793 492.755 83.2373 491.905 80.84C491.054 78.4427 489.855 76.5867 488.309 75.272C486.762 73.9573 484.906 73.3 482.741 73.3C480.614 73.3 478.777 73.9573 477.231 75.272C475.684 76.5867 474.485 78.4427 473.635 80.84C472.784 83.2373 472.359 86.0793 472.359 89.366C472.359 92.614 472.784 95.456 473.635 97.892C474.485 100.289 475.684 102.145 477.231 103.46C478.816 104.775 480.672 105.432 482.799 105.432ZM519.27 111V99.342H507.612V93.542H519.27V82H525.07V93.542H536.612V99.342H525.07V111H519.27Z" fill="#0766DB"/>
<path d="M443.635 112.696C441.354 112.696 439.208 112.29 437.197 111.478C435.186 110.627 433.446 109.448 431.977 107.94C430.508 106.432 429.464 104.615 428.845 102.488L434.587 100.284C435.322 102.333 436.52 103.899 438.183 104.982C439.846 106.065 441.663 106.606 443.635 106.606C445.259 106.606 446.69 106.239 447.927 105.504C449.164 104.769 450.131 103.764 450.827 102.488C451.562 101.212 451.929 99.762 451.929 98.138C451.929 96.4753 451.562 95.0253 450.827 93.788C450.131 92.512 449.164 91.526 447.927 90.83C446.69 90.0953 445.259 89.728 443.635 89.728C442.011 89.728 440.522 90.0953 439.169 90.83C437.816 91.5647 436.83 92.5507 436.211 93.788L430.701 92.57L434.065 68.79H457.091V74.59H436.733L439.343 71.748L436.849 89.96L434.703 88.51C435.863 86.886 437.274 85.7067 438.937 84.972C440.6 84.2373 442.494 83.87 444.621 83.87C447.444 83.87 449.899 84.508 451.987 85.784C454.114 87.0213 455.757 88.7227 456.917 90.888C458.116 93.0147 458.715 95.4313 458.715 98.138C458.715 100.883 458.058 103.358 456.743 105.562C455.428 107.766 453.63 109.506 451.349 110.782C449.106 112.058 446.535 112.696 443.635 112.696ZM482.799 112.696C479.357 112.696 476.341 111.768 473.751 109.912C471.16 108.017 469.13 105.407 467.661 102.082C466.23 98.718 465.515 94.8127 465.515 90.366C465.515 85.8807 466.23 81.9753 467.661 78.65C469.13 75.3247 471.141 72.734 473.693 70.878C476.283 69.022 479.299 68.094 482.741 68.094C486.182 68.094 489.179 69.022 491.731 70.878C494.321 72.734 496.332 75.344 497.763 78.708C499.232 82.0333 499.967 85.9193 499.967 90.366C499.967 94.8127 499.251 98.718 497.821 102.082C496.39 105.407 494.379 108.017 491.789 109.912C489.237 111.768 486.24 112.696 482.799 112.696ZM482.799 106.432C484.925 106.432 486.762 105.775 488.309 104.46C489.855 103.145 491.054 101.289 491.905 98.892C492.755 96.4947 493.181 93.6527 493.181 90.366C493.181 87.0793 492.755 84.2373 491.905 81.84C491.054 79.4427 489.855 77.5867 488.309 76.272C486.762 74.9573 484.906 74.3 482.741 74.3C480.614 74.3 478.777 74.9573 477.231 76.272C475.684 77.5867 474.485 79.4427 473.635 81.84C472.784 84.2373 472.359 87.0793 472.359 90.366C472.359 93.614 472.784 96.456 473.635 98.892C474.485 101.289 475.684 103.145 477.231 104.46C478.816 105.775 480.672 106.432 482.799 106.432ZM519.27 112V100.342H507.612V94.542H519.27V83H525.07V94.542H536.612V100.342H525.07V112H519.27Z" fill="#0766DB"/>
<path d="M384.793 156V144.08H386.873L391.337 150.144H390.345L394.713 144.08H396.793V156H394.601V146.56L395.449 146.768L390.921 152.8H390.665L386.249 146.768L386.969 146.56V156H384.793ZM402.258 156L398.098 144.08H400.466L403.73 153.952H403.266L406.53 144.08H408.898L404.754 156H402.258ZM410.23 156V144.08H414.678C415.489 144.08 416.203 144.229 416.822 144.528C417.451 144.816 417.942 145.243 418.294 145.808C418.646 146.363 418.822 147.04 418.822 147.84C418.822 148.629 418.641 149.307 418.278 149.872C417.926 150.427 417.441 150.853 416.822 151.152C416.203 151.451 415.489 151.6 414.678 151.6H412.406V156H410.23ZM412.406 149.68H414.71C415.105 149.68 415.446 149.605 415.734 149.456C416.022 149.296 416.246 149.077 416.406 148.8C416.566 148.523 416.646 148.203 416.646 147.84C416.646 147.467 416.566 147.147 416.406 146.88C416.246 146.603 416.022 146.389 415.734 146.24C415.446 146.08 415.105 146 414.71 146H412.406V149.68ZM423.429 156.192C422.501 156.192 421.69 155.973 420.997 155.536C420.314 155.088 419.845 154.485 419.589 153.728L421.157 152.976C421.381 153.467 421.69 153.851 422.085 154.128C422.49 154.405 422.938 154.544 423.429 154.544C423.813 154.544 424.117 154.459 424.341 154.288C424.565 154.117 424.677 153.893 424.677 153.616C424.677 153.445 424.629 153.307 424.533 153.2C424.447 153.083 424.325 152.987 424.165 152.912C424.015 152.827 423.85 152.757 423.669 152.704L422.245 152.304C421.509 152.091 420.949 151.765 420.565 151.328C420.191 150.891 420.005 150.373 420.005 149.776C420.005 149.243 420.138 148.779 420.405 148.384C420.682 147.979 421.061 147.664 421.541 147.44C422.031 147.216 422.591 147.104 423.221 147.104C424.042 147.104 424.767 147.301 425.397 147.696C426.026 148.091 426.474 148.645 426.741 149.36L425.141 150.112C424.991 149.717 424.741 149.403 424.389 149.168C424.037 148.933 423.642 148.816 423.205 148.816C422.853 148.816 422.575 148.896 422.373 149.056C422.17 149.216 422.069 149.424 422.069 149.68C422.069 149.84 422.111 149.979 422.197 150.096C422.282 150.213 422.399 150.309 422.549 150.384C422.709 150.459 422.89 150.528 423.093 150.592L424.485 151.008C425.199 151.221 425.749 151.541 426.133 151.968C426.527 152.395 426.725 152.917 426.725 153.536C426.725 154.059 426.586 154.523 426.309 154.928C426.031 155.323 425.647 155.632 425.157 155.856C424.666 156.08 424.09 156.192 423.429 156.192ZM431.355 156V144.08H436.379C437.168 144.08 437.84 144.219 438.395 144.496C438.96 144.763 439.392 145.147 439.691 145.648C440 146.139 440.155 146.736 440.155 147.44C440.155 147.984 440.006 148.496 439.707 148.976C439.419 149.445 438.955 149.835 438.315 150.144V149.136C438.902 149.36 439.366 149.637 439.707 149.968C440.048 150.299 440.288 150.667 440.427 151.072C440.566 151.477 440.635 151.904 440.635 152.352C440.635 153.493 440.256 154.389 439.499 155.04C438.752 155.68 437.712 156 436.379 156H431.355ZM433.531 154.08H436.603C437.168 154.08 437.616 153.925 437.947 153.616C438.288 153.296 438.459 152.875 438.459 152.352C438.459 151.829 438.288 151.408 437.947 151.088C437.616 150.768 437.168 150.608 436.603 150.608H433.531V154.08ZM433.531 148.704H436.491C436.939 148.704 437.296 148.576 437.563 148.32C437.83 148.053 437.963 147.712 437.963 147.296C437.963 146.88 437.83 146.549 437.563 146.304C437.296 146.059 436.939 145.936 436.491 145.936H433.531V148.704ZM445.346 156.192C444.674 156.192 444.087 156.043 443.586 155.744C443.095 155.445 442.716 155.029 442.45 154.496C442.194 153.963 442.066 153.339 442.066 152.624V147.296H444.162V152.448C444.162 152.811 444.231 153.131 444.37 153.408C444.519 153.675 444.727 153.888 444.994 154.048C445.271 154.197 445.58 154.272 445.922 154.272C446.263 154.272 446.567 154.197 446.834 154.048C447.1 153.888 447.308 153.669 447.458 153.392C447.607 153.115 447.682 152.784 447.682 152.4V147.296H449.778V156H447.794V154.288L447.97 154.592C447.767 155.125 447.431 155.525 446.962 155.792C446.503 156.059 445.964 156.192 445.346 156.192ZM451.726 156V147.296H453.822V156H451.726ZM451.726 146.32V144.08H453.822V146.32H451.726ZM455.757 156V143.888H457.853V156H455.757ZM463.837 156.192C462.994 156.192 462.242 155.995 461.581 155.6C460.919 155.195 460.397 154.645 460.013 153.952C459.629 153.259 459.437 152.491 459.437 151.648C459.437 150.795 459.629 150.027 460.013 149.344C460.397 148.661 460.919 148.117 461.581 147.712C462.253 147.307 462.999 147.104 463.821 147.104C464.482 147.104 465.069 147.237 465.581 147.504C466.103 147.76 466.514 148.123 466.812 148.592L466.493 149.024V143.888H468.589V156H466.605V154.32L466.829 154.736C466.53 155.205 466.114 155.568 465.581 155.824C465.047 156.069 464.466 156.192 463.837 156.192ZM464.061 154.272C464.541 154.272 464.962 154.16 465.325 153.936C465.687 153.712 465.97 153.403 466.173 153.008C466.386 152.613 466.493 152.16 466.493 151.648C466.493 151.147 466.386 150.699 466.173 150.304C465.97 149.899 465.687 149.584 465.325 149.36C464.962 149.136 464.541 149.024 464.061 149.024C463.591 149.024 463.17 149.141 462.797 149.376C462.423 149.6 462.13 149.909 461.917 150.304C461.714 150.688 461.613 151.136 461.613 151.648C461.613 152.16 461.714 152.613 461.917 153.008C462.13 153.403 462.423 153.712 462.797 153.936C463.17 154.16 463.591 154.272 464.061 154.272Z" fill="#1B1B1B"/>
<path d="M473.592 152.368V151.008H479.592V152.368H473.592ZM484.761 156V143.888H486.249V156H484.761ZM488.558 156V147.376H490.046V156H488.558ZM488.558 146V144.08H490.046V146H488.558ZM494.755 156L491.379 147.376H493.043L495.747 154.672H495.171L497.891 147.376H499.555L496.163 156H494.755ZM504.698 156.192C503.866 156.192 503.125 155.995 502.474 155.6C501.823 155.205 501.311 154.667 500.938 153.984C500.565 153.291 500.378 152.517 500.378 151.664C500.378 150.8 500.559 150.032 500.922 149.36C501.295 148.688 501.797 148.16 502.426 147.776C503.066 147.381 503.781 147.184 504.57 147.184C505.21 147.184 505.775 147.301 506.266 147.536C506.767 147.76 507.189 148.069 507.53 148.464C507.882 148.848 508.149 149.291 508.33 149.792C508.522 150.283 508.618 150.795 508.618 151.328C508.618 151.445 508.607 151.579 508.586 151.728C508.575 151.867 508.559 152 508.538 152.128H501.466V150.848H507.674L506.97 151.424C507.066 150.869 507.013 150.373 506.81 149.936C506.607 149.499 506.309 149.152 505.914 148.896C505.519 148.64 505.071 148.512 504.57 148.512C504.069 148.512 503.61 148.64 503.194 148.896C502.778 149.152 502.453 149.52 502.218 150C501.994 150.469 501.903 151.029 501.946 151.68C501.903 152.309 501.999 152.864 502.234 153.344C502.479 153.813 502.821 154.181 503.258 154.448C503.706 154.704 504.191 154.832 504.714 154.832C505.29 154.832 505.775 154.699 506.17 154.432C506.565 154.165 506.885 153.824 507.13 153.408L508.378 154.048C508.207 154.443 507.941 154.805 507.578 155.136C507.226 155.456 506.805 155.712 506.314 155.904C505.834 156.096 505.295 156.192 504.698 156.192ZM513.324 156V147.376H514.812V156H513.324ZM513.324 146V144.08H514.812V146H513.324ZM517.121 156V147.376H518.577V149.056L518.337 148.912C518.55 148.368 518.891 147.947 519.361 147.648C519.841 147.339 520.401 147.184 521.041 147.184C521.659 147.184 522.209 147.323 522.689 147.6C523.179 147.877 523.563 148.261 523.841 148.752C524.129 149.243 524.273 149.797 524.273 150.416V156H522.769V150.896C522.769 150.416 522.683 150.011 522.513 149.68C522.342 149.349 522.097 149.093 521.777 148.912C521.467 148.72 521.11 148.624 520.705 148.624C520.299 148.624 519.937 148.72 519.617 148.912C519.307 149.093 519.062 149.355 518.881 149.696C518.699 150.027 518.609 150.427 518.609 150.896V156H517.121ZM529.168 156V147.376H530.624V149.136L530.416 148.864C530.629 148.32 530.97 147.904 531.44 147.616C531.909 147.328 532.437 147.184 533.024 147.184C533.696 147.184 534.298 147.371 534.832 147.744C535.376 148.117 535.749 148.608 535.952 149.216L535.536 149.232C535.76 148.56 536.138 148.053 536.672 147.712C537.205 147.36 537.797 147.184 538.448 147.184C539.045 147.184 539.584 147.323 540.064 147.6C540.554 147.877 540.944 148.261 541.232 148.752C541.52 149.243 541.664 149.797 541.664 150.416V156H540.16V150.896C540.16 150.416 540.074 150.011 539.904 149.68C539.733 149.349 539.498 149.093 539.2 148.912C538.912 148.72 538.57 148.624 538.176 148.624C537.792 148.624 537.445 148.72 537.136 148.912C536.837 149.093 536.597 149.355 536.416 149.696C536.245 150.027 536.16 150.427 536.16 150.896V156H534.656V150.896C534.656 150.416 534.57 150.011 534.4 149.68C534.229 149.349 533.994 149.093 533.696 148.912C533.408 148.72 533.066 148.624 532.672 148.624C532.288 148.624 531.941 148.72 531.632 148.912C531.333 149.093 531.093 149.355 530.912 149.696C530.741 150.027 530.656 150.427 530.656 150.896V156H529.168ZM546.305 156.192C545.74 156.192 545.238 156.091 544.801 155.888C544.374 155.675 544.038 155.387 543.793 155.024C543.548 154.651 543.425 154.224 543.425 153.744C543.425 153.285 543.521 152.875 543.713 152.512C543.916 152.139 544.225 151.824 544.641 151.568C545.068 151.312 545.601 151.131 546.241 151.024L549.441 150.496V151.744L546.577 152.224C546.022 152.32 545.617 152.496 545.361 152.752C545.116 153.008 544.993 153.323 544.993 153.696C544.993 154.048 545.132 154.341 545.409 154.576C545.697 154.811 546.054 154.928 546.481 154.928C547.025 154.928 547.494 154.816 547.889 154.592C548.294 154.357 548.609 154.043 548.833 153.648C549.068 153.253 549.185 152.816 549.185 152.336V150.144C549.185 149.675 549.009 149.296 548.657 149.008C548.316 148.709 547.862 148.56 547.297 148.56C546.806 148.56 546.369 148.688 545.985 148.944C545.612 149.189 545.334 149.52 545.153 149.936L543.857 149.264C544.017 148.869 544.273 148.517 544.625 148.208C544.977 147.888 545.388 147.637 545.857 147.456C546.326 147.275 546.817 147.184 547.329 147.184C547.99 147.184 548.572 147.312 549.073 147.568C549.574 147.813 549.964 148.16 550.241 148.608C550.529 149.045 550.673 149.557 550.673 150.144V156H549.217V154.368L549.489 154.464C549.308 154.805 549.062 155.104 548.753 155.36C548.444 155.616 548.081 155.819 547.665 155.968C547.249 156.117 546.796 156.192 546.305 156.192ZM552.98 156V147.376H554.436V148.96L554.276 148.736C554.479 148.245 554.788 147.883 555.204 147.648C555.62 147.403 556.127 147.28 556.724 147.28H557.252V148.688H556.5C555.892 148.688 555.401 148.88 555.028 149.264C554.655 149.637 554.468 150.171 554.468 150.864V156H552.98ZM558.574 156V143.888H560.062V152.192L559.454 152.048L564.03 147.376H565.934L562.622 150.848L566.158 156H564.398L561.166 151.328L562.094 151.28L559.582 153.904L560.062 152.816V156H558.574ZM571.308 156.192C570.476 156.192 569.734 155.995 569.084 155.6C568.433 155.205 567.921 154.667 567.548 153.984C567.174 153.291 566.988 152.517 566.988 151.664C566.988 150.8 567.169 150.032 567.532 149.36C567.905 148.688 568.406 148.16 569.036 147.776C569.676 147.381 570.39 147.184 571.18 147.184C571.82 147.184 572.385 147.301 572.876 147.536C573.377 147.76 573.798 148.069 574.14 148.464C574.492 148.848 574.758 149.291 574.94 149.792C575.132 150.283 575.227 150.795 575.227 151.328C575.227 151.445 575.217 151.579 575.196 151.728C575.185 151.867 575.169 152 575.148 152.128H568.076V150.848H574.284L573.58 151.424C573.676 150.869 573.622 150.373 573.42 149.936C573.217 149.499 572.918 149.152 572.524 148.896C572.129 148.64 571.681 148.512 571.18 148.512C570.678 148.512 570.22 148.64 569.804 148.896C569.388 149.152 569.062 149.52 568.828 150C568.604 150.469 568.513 151.029 568.556 151.68C568.513 152.309 568.609 152.864 568.844 153.344C569.089 153.813 569.43 154.181 569.868 154.448C570.316 154.704 570.801 154.832 571.324 154.832C571.9 154.832 572.385 154.699 572.78 154.432C573.174 154.165 573.494 153.824 573.74 153.408L574.988 154.048C574.817 154.443 574.55 154.805 574.188 155.136C573.836 155.456 573.414 155.712 572.924 155.904C572.444 156.096 571.905 156.192 571.308 156.192ZM580.672 156.096C579.829 156.096 579.178 155.856 578.72 155.376C578.272 154.896 578.048 154.219 578.048 153.344V148.8H576.48V147.376H576.8C577.184 147.376 577.488 147.259 577.712 147.024C577.936 146.789 578.048 146.48 578.048 146.096V145.392H579.536V147.376H581.472V148.8H579.536V153.296C579.536 153.584 579.578 153.835 579.664 154.048C579.76 154.261 579.914 154.432 580.128 154.56C580.341 154.677 580.624 154.736 580.976 154.736C581.05 154.736 581.141 154.731 581.248 154.72C581.365 154.709 581.472 154.699 581.568 154.688V156C581.429 156.032 581.274 156.053 581.104 156.064C580.933 156.085 580.789 156.096 580.672 156.096ZM430.816 187L427.856 178.376H429.504L431.856 185.592L431.28 185.576L433.584 178.376H434.992L437.296 185.576L436.72 185.592L439.088 178.376H440.72L437.76 187H436.336L434.064 179.8H434.512L432.24 187H430.816ZM442.05 187V178.376H443.538V187H442.05ZM442.05 177V175.08H443.538V177H442.05ZM449.351 187.096C448.509 187.096 447.858 186.856 447.399 186.376C446.951 185.896 446.727 185.219 446.727 184.344V179.8H445.159V178.376H445.479C445.863 178.376 446.167 178.259 446.391 178.024C446.615 177.789 446.727 177.48 446.727 177.096V176.392H448.215V178.376H450.151V179.8H448.215V184.296C448.215 184.584 448.258 184.835 448.343 185.048C448.439 185.261 448.594 185.432 448.807 185.56C449.021 185.677 449.303 185.736 449.655 185.736C449.73 185.736 449.821 185.731 449.927 185.72C450.045 185.709 450.151 185.699 450.247 185.688V187C450.109 187.032 449.954 187.053 449.783 187.064C449.613 187.085 449.469 187.096 449.351 187.096ZM452.191 187V174.888H453.679V180.056L453.407 179.912C453.62 179.368 453.962 178.947 454.431 178.648C454.911 178.339 455.471 178.184 456.111 178.184C456.73 178.184 457.279 178.323 457.759 178.6C458.25 178.877 458.634 179.261 458.911 179.752C459.199 180.243 459.343 180.797 459.343 181.416V187H457.839V181.896C457.839 181.416 457.748 181.011 457.567 180.68C457.396 180.349 457.156 180.093 456.847 179.912C456.538 179.72 456.18 179.624 455.775 179.624C455.38 179.624 455.023 179.72 454.703 179.912C454.383 180.093 454.132 180.355 453.951 180.696C453.77 181.027 453.679 181.427 453.679 181.896V187H452.191ZM461.472 187V178.376H462.96V187H461.472ZM461.472 177V175.08H462.96V177H461.472ZM465.269 187V178.376H466.725V180.056L466.485 179.912C466.699 179.368 467.04 178.947 467.509 178.648C467.989 178.339 468.549 178.184 469.189 178.184C469.808 178.184 470.357 178.323 470.837 178.6C471.328 178.877 471.712 179.261 471.989 179.752C472.277 180.243 472.421 180.797 472.421 181.416V187H470.917V181.896C470.917 181.416 470.832 181.011 470.661 180.68C470.491 180.349 470.245 180.093 469.925 179.912C469.616 179.72 469.259 179.624 468.853 179.624C468.448 179.624 468.085 179.72 467.765 179.912C467.456 180.093 467.211 180.355 467.029 180.696C466.848 181.027 466.757 181.427 466.757 181.896V187H465.269ZM477.028 187V185.912L480.324 182.344C480.975 181.651 481.492 181.08 481.876 180.632C482.271 180.184 482.559 179.784 482.74 179.432C482.921 179.08 483.012 178.707 483.012 178.312C483.012 177.661 482.82 177.16 482.436 176.808C482.052 176.456 481.545 176.28 480.916 176.28C480.276 176.28 479.732 176.467 479.284 176.84C478.836 177.203 478.527 177.72 478.356 178.392L476.932 178.024C477.071 177.384 477.327 176.829 477.7 176.36C478.073 175.891 478.537 175.528 479.092 175.272C479.647 175.016 480.255 174.888 480.916 174.888C481.641 174.888 482.276 175.032 482.82 175.32C483.375 175.597 483.807 175.987 484.116 176.488C484.436 176.989 484.596 177.571 484.596 178.232C484.596 178.669 484.505 179.096 484.324 179.512C484.143 179.928 483.876 180.371 483.524 180.84C483.172 181.299 482.713 181.832 482.148 182.44L479.204 185.64H484.852V187H477.028ZM491.644 187L488.684 178.376H490.332L492.684 185.592L492.108 185.576L494.412 178.376H495.82L498.124 185.576L497.548 185.592L499.916 178.376H501.548L498.588 187H497.164L494.892 179.8H495.34L493.068 187H491.644ZM506.69 187.192C505.858 187.192 505.117 186.995 504.466 186.6C503.816 186.205 503.304 185.667 502.93 184.984C502.557 184.291 502.37 183.517 502.37 182.664C502.37 181.8 502.552 181.032 502.914 180.36C503.288 179.688 503.789 179.16 504.418 178.776C505.058 178.381 505.773 178.184 506.562 178.184C507.202 178.184 507.768 178.301 508.258 178.536C508.76 178.76 509.181 179.069 509.522 179.464C509.874 179.848 510.141 180.291 510.322 180.792C510.514 181.283 510.61 181.795 510.61 182.328C510.61 182.445 510.6 182.579 510.578 182.728C510.568 182.867 510.552 183 510.53 183.128H503.458V181.848H509.666L508.962 182.424C509.058 181.869 509.005 181.373 508.802 180.936C508.6 180.499 508.301 180.152 507.906 179.896C507.512 179.64 507.064 179.512 506.562 179.512C506.061 179.512 505.602 179.64 505.186 179.896C504.77 180.152 504.445 180.52 504.21 181C503.986 181.469 503.896 182.029 503.938 182.68C503.896 183.309 503.992 183.864 504.226 184.344C504.472 184.813 504.813 185.181 505.25 185.448C505.698 185.704 506.184 185.832 506.706 185.832C507.282 185.832 507.768 185.699 508.162 185.432C508.557 185.165 508.877 184.824 509.122 184.408L510.37 185.048C510.2 185.443 509.933 185.805 509.57 186.136C509.218 186.456 508.797 186.712 508.306 186.904C507.826 187.096 507.288 187.192 506.69 187.192ZM516.518 187.192C515.686 187.192 514.945 186.995 514.294 186.6C513.644 186.205 513.132 185.667 512.758 184.984C512.385 184.291 512.198 183.517 512.198 182.664C512.198 181.8 512.38 181.032 512.742 180.36C513.116 179.688 513.617 179.16 514.246 178.776C514.886 178.381 515.601 178.184 516.39 178.184C517.03 178.184 517.596 178.301 518.086 178.536C518.588 178.76 519.009 179.069 519.35 179.464C519.702 179.848 519.969 180.291 520.15 180.792C520.342 181.283 520.438 181.795 520.438 182.328C520.438 182.445 520.428 182.579 520.406 182.728C520.396 182.867 520.38 183 520.358 183.128H513.286V181.848H519.494L518.79 182.424C518.886 181.869 518.833 181.373 518.63 180.936C518.428 180.499 518.129 180.152 517.734 179.896C517.34 179.64 516.892 179.512 516.39 179.512C515.889 179.512 515.43 179.64 515.014 179.896C514.598 180.152 514.273 180.52 514.038 181C513.814 181.469 513.724 182.029 513.766 182.68C513.724 183.309 513.82 183.864 514.054 184.344C514.3 184.813 514.641 185.181 515.078 185.448C515.526 185.704 516.012 185.832 516.534 185.832C517.11 185.832 517.596 185.699 517.99 185.432C518.385 185.165 518.705 184.824 518.95 184.408L520.198 185.048C520.028 185.443 519.761 185.805 519.398 186.136C519.046 186.456 518.625 186.712 518.134 186.904C517.654 187.096 517.116 187.192 516.518 187.192ZM522.379 187V174.888H523.867V183.192L523.259 183.048L527.835 178.376H529.739L526.427 181.848L529.963 187H528.203L524.971 182.328L525.899 182.28L523.387 184.904L523.867 183.816V187H522.379ZM534.388 187.192C533.524 187.192 532.772 186.979 532.132 186.552C531.492 186.125 531.039 185.549 530.772 184.824L531.956 184.248C532.202 184.76 532.538 185.165 532.964 185.464C533.391 185.763 533.866 185.912 534.388 185.912C534.858 185.912 535.247 185.8 535.556 185.576C535.866 185.352 536.02 185.059 536.02 184.696C536.02 184.44 535.946 184.237 535.796 184.088C535.658 183.928 535.487 183.805 535.284 183.72C535.082 183.624 534.895 183.555 534.724 183.512L533.428 183.144C532.65 182.92 532.079 182.6 531.716 182.184C531.364 181.768 531.188 181.283 531.188 180.728C531.188 180.216 531.316 179.773 531.572 179.4C531.839 179.016 532.196 178.717 532.644 178.504C533.103 178.291 533.615 178.184 534.18 178.184C534.938 178.184 535.615 178.376 536.212 178.76C536.82 179.144 537.252 179.683 537.508 180.376L536.292 180.936C536.1 180.488 535.812 180.136 535.428 179.88C535.044 179.613 534.612 179.48 534.132 179.48C533.695 179.48 533.348 179.592 533.092 179.816C532.836 180.029 532.708 180.301 532.708 180.632C532.708 180.877 532.772 181.08 532.9 181.24C533.028 181.389 533.183 181.507 533.364 181.592C533.546 181.667 533.722 181.731 533.892 181.784L535.3 182.2C536.004 182.403 536.548 182.717 536.932 183.144C537.327 183.571 537.524 184.083 537.524 184.68C537.524 185.16 537.391 185.592 537.124 185.976C536.858 186.36 536.49 186.659 536.02 186.872C535.551 187.085 535.007 187.192 534.388 187.192Z" fill="#505050"/>
<rect x="670.5" y="2.5" width="293" height="241" rx="20.5" fill="url(#paint4_linear_1_2841)"/>
<rect x="670.5" y="2.5" width="293" height="241" rx="20.5" stroke="url(#paint5_linear_1_2841)" stroke-width="5"/>
<path d="M816.5 112.696C814.219 112.696 812.073 112.29 810.062 111.478C808.052 110.627 806.312 109.448 804.842 107.94C803.373 106.432 802.329 104.615 801.71 102.488L807.452 100.284C808.187 102.333 809.386 103.899 811.048 104.982C812.711 106.065 814.528 106.606 816.5 106.606C818.124 106.606 819.555 106.239 820.792 105.504C822.03 104.769 822.996 103.764 823.692 102.488C824.427 101.212 824.794 99.762 824.794 98.138C824.794 96.4753 824.427 95.0253 823.692 93.788C822.996 92.512 822.03 91.526 820.792 90.83C819.555 90.0953 818.124 89.728 816.5 89.728C814.876 89.728 813.388 90.0953 812.034 90.83C810.681 91.5647 809.695 92.5507 809.076 93.788L803.566 92.57L806.93 68.79H829.956V74.59H809.598L812.208 71.748L809.714 89.96L807.568 88.51C808.728 86.886 810.14 85.7067 811.802 84.972C813.465 84.2373 815.36 83.87 817.486 83.87C820.309 83.87 822.764 84.508 824.852 85.784C826.979 87.0213 828.622 88.7227 829.782 90.888C830.981 93.0147 831.58 95.4313 831.58 98.138C831.58 100.883 830.923 103.358 829.608 105.562C828.294 107.766 826.496 109.506 824.214 110.782C821.972 112.058 819.4 112.696 816.5 112.696Z" fill="#0766DB"/>
<path d="M694.971 157.192C694.213 157.192 693.509 157.053 692.859 156.776C692.219 156.499 691.664 156.115 691.195 155.624C690.736 155.123 690.4 154.541 690.187 153.88L691.995 153.096C692.283 153.779 692.699 154.317 693.243 154.712C693.787 155.096 694.4 155.288 695.083 155.288C695.467 155.288 695.797 155.229 696.075 155.112C696.363 154.984 696.581 154.813 696.731 154.6C696.891 154.387 696.971 154.131 696.971 153.832C696.971 153.48 696.864 153.192 696.651 152.968C696.448 152.733 696.139 152.552 695.723 152.424L693.435 151.688C692.507 151.4 691.808 150.968 691.339 150.392C690.869 149.816 690.635 149.139 690.635 148.36C690.635 147.677 690.8 147.075 691.131 146.552C691.472 146.029 691.941 145.624 692.539 145.336C693.147 145.037 693.84 144.888 694.619 144.888C695.333 144.888 695.989 145.016 696.587 145.272C697.184 145.517 697.696 145.864 698.123 146.312C698.56 146.749 698.885 147.267 699.099 147.864L697.307 148.664C697.072 148.067 696.72 147.608 696.251 147.288C695.781 146.957 695.237 146.792 694.619 146.792C694.256 146.792 693.936 146.856 693.659 146.984C693.381 147.101 693.163 147.272 693.003 147.496C692.853 147.709 692.779 147.965 692.779 148.264C692.779 148.595 692.885 148.888 693.099 149.144C693.312 149.389 693.637 149.581 694.075 149.72L696.267 150.408C697.216 150.717 697.925 151.144 698.395 151.688C698.875 152.232 699.115 152.904 699.115 153.704C699.115 154.387 698.939 154.989 698.587 155.512C698.235 156.035 697.749 156.445 697.131 156.744C696.512 157.043 695.792 157.192 694.971 157.192ZM704.866 157.096C703.885 157.096 703.122 156.829 702.578 156.296C702.045 155.752 701.778 154.989 701.778 154.008V150.168H700.274V148.296H700.434C700.861 148.296 701.191 148.184 701.426 147.96C701.661 147.736 701.778 147.411 701.778 146.984V146.312H703.874V148.296H705.874V150.168H703.874V153.896C703.874 154.184 703.922 154.429 704.018 154.632C704.125 154.835 704.285 154.989 704.498 155.096C704.722 155.203 705.005 155.256 705.346 155.256C705.421 155.256 705.506 155.251 705.602 155.24C705.709 155.229 705.81 155.219 705.906 155.208V157C705.757 157.021 705.586 157.043 705.394 157.064C705.202 157.085 705.026 157.096 704.866 157.096ZM710.116 157.192C709.508 157.192 708.98 157.091 708.532 156.888C708.084 156.685 707.737 156.397 707.492 156.024C707.247 155.64 707.124 155.197 707.124 154.696C707.124 154.216 707.231 153.789 707.444 153.416C707.657 153.032 707.988 152.712 708.436 152.456C708.884 152.2 709.449 152.019 710.132 151.912L712.98 151.448V153.048L710.532 153.464C710.116 153.539 709.807 153.672 709.604 153.864C709.401 154.056 709.3 154.307 709.3 154.616C709.3 154.915 709.412 155.155 709.636 155.336C709.871 155.507 710.159 155.592 710.5 155.592C710.937 155.592 711.321 155.501 711.652 155.32C711.993 155.128 712.255 154.867 712.436 154.536C712.628 154.205 712.724 153.843 712.724 153.448V151.208C712.724 150.835 712.575 150.525 712.276 150.28C711.988 150.024 711.604 149.896 711.124 149.896C710.676 149.896 710.276 150.019 709.924 150.264C709.583 150.499 709.332 150.813 709.172 151.208L707.46 150.376C707.631 149.917 707.897 149.523 708.26 149.192C708.633 148.851 709.071 148.584 709.572 148.392C710.073 148.2 710.617 148.104 711.204 148.104C711.919 148.104 712.548 148.237 713.092 148.504C713.636 148.76 714.057 149.123 714.356 149.592C714.665 150.051 714.82 150.589 714.82 151.208V157H712.836V155.512L713.284 155.48C713.06 155.853 712.793 156.168 712.484 156.424C712.175 156.669 711.823 156.861 711.428 157C711.033 157.128 710.596 157.192 710.116 157.192ZM716.757 157V148.296H718.725V150.232L718.565 149.944C718.768 149.293 719.083 148.84 719.509 148.584C719.947 148.328 720.469 148.2 721.077 148.2H721.589V150.056H720.837C720.24 150.056 719.76 150.243 719.397 150.616C719.035 150.979 718.853 151.491 718.853 152.152V157H716.757ZM726.944 157.096C725.963 157.096 725.2 156.829 724.656 156.296C724.123 155.752 723.856 154.989 723.856 154.008V150.168H722.352V148.296H722.512C722.939 148.296 723.269 148.184 723.504 147.96C723.739 147.736 723.856 147.411 723.856 146.984V146.312H725.952V148.296H727.952V150.168H725.952V153.896C725.952 154.184 726 154.429 726.096 154.632C726.203 154.835 726.363 154.989 726.576 155.096C726.8 155.203 727.083 155.256 727.424 155.256C727.499 155.256 727.584 155.251 727.68 155.24C727.787 155.229 727.888 155.219 727.984 155.208V157C727.835 157.021 727.664 157.043 727.472 157.064C727.28 157.085 727.104 157.096 726.944 157.096ZM732.689 157.192C732.017 157.192 731.431 157.043 730.929 156.744C730.439 156.445 730.06 156.029 729.793 155.496C729.537 154.963 729.409 154.339 729.409 153.624V148.296H731.505V153.448C731.505 153.811 731.575 154.131 731.713 154.408C731.863 154.675 732.071 154.888 732.337 155.048C732.615 155.197 732.924 155.272 733.265 155.272C733.607 155.272 733.911 155.197 734.177 155.048C734.444 154.888 734.652 154.669 734.801 154.392C734.951 154.115 735.025 153.784 735.025 153.4V148.296H737.121V157H735.137V155.288L735.313 155.592C735.111 156.125 734.775 156.525 734.305 156.792C733.847 157.059 733.308 157.192 732.689 157.192ZM739.07 160.2V148.296H741.038V150.024L740.846 149.592C741.144 149.123 741.55 148.76 742.062 148.504C742.574 148.237 743.166 148.104 743.838 148.104C744.659 148.104 745.4 148.307 746.062 148.712C746.723 149.117 747.246 149.661 747.63 150.344C748.024 151.027 748.222 151.795 748.222 152.648C748.222 153.491 748.03 154.259 747.646 154.952C747.262 155.645 746.739 156.195 746.078 156.6C745.416 156.995 744.664 157.192 743.822 157.192C743.192 157.192 742.611 157.069 742.078 156.824C741.555 156.568 741.139 156.205 740.83 155.736L741.166 155.32V160.2H739.07ZM743.582 155.272C744.062 155.272 744.488 155.16 744.862 154.936C745.235 154.712 745.523 154.403 745.726 154.008C745.939 153.613 746.046 153.16 746.046 152.648C746.046 152.136 745.939 151.688 745.726 151.304C745.523 150.909 745.235 150.6 744.862 150.376C744.488 150.141 744.062 150.024 743.582 150.024C743.123 150.024 742.707 150.136 742.334 150.36C741.971 150.584 741.683 150.899 741.47 151.304C741.267 151.699 741.166 152.147 741.166 152.648C741.166 153.16 741.267 153.613 741.47 154.008C741.683 154.403 741.971 154.712 742.334 154.936C742.707 155.16 743.123 155.272 743.582 155.272ZM753.132 157.192C752.204 157.192 751.393 156.973 750.7 156.536C750.017 156.088 749.548 155.485 749.292 154.728L750.86 153.976C751.084 154.467 751.393 154.851 751.788 155.128C752.193 155.405 752.641 155.544 753.132 155.544C753.516 155.544 753.82 155.459 754.044 155.288C754.268 155.117 754.38 154.893 754.38 154.616C754.38 154.445 754.332 154.307 754.236 154.2C754.15 154.083 754.028 153.987 753.868 153.912C753.718 153.827 753.553 153.757 753.372 153.704L751.948 153.304C751.212 153.091 750.652 152.765 750.268 152.328C749.894 151.891 749.708 151.373 749.708 150.776C749.708 150.243 749.841 149.779 750.108 149.384C750.385 148.979 750.764 148.664 751.244 148.44C751.734 148.216 752.294 148.104 752.924 148.104C753.745 148.104 754.47 148.301 755.1 148.696C755.729 149.091 756.177 149.645 756.444 150.36L754.844 151.112C754.694 150.717 754.444 150.403 754.092 150.168C753.74 149.933 753.345 149.816 752.908 149.816C752.556 149.816 752.278 149.896 752.076 150.056C751.873 150.216 751.772 150.424 751.772 150.68C751.772 150.84 751.814 150.979 751.9 151.096C751.985 151.213 752.102 151.309 752.252 151.384C752.412 151.459 752.593 151.528 752.796 151.592L754.188 152.008C754.902 152.221 755.452 152.541 755.836 152.968C756.23 153.395 756.428 153.917 756.428 154.536C756.428 155.059 756.289 155.523 756.012 155.928C755.734 156.323 755.35 156.632 754.86 156.856C754.369 157.08 753.793 157.192 753.132 157.192ZM760.082 157L764.194 145.08H767.01L771.122 157H768.754L767.906 154.44H763.298L762.434 157H760.082ZM763.922 152.52H767.282L765.298 146.584H765.906L763.922 152.52ZM776.152 157.192C775.288 157.192 774.51 156.995 773.816 156.6C773.134 156.195 772.595 155.651 772.2 154.968C771.806 154.275 771.608 153.496 771.608 152.632C771.608 151.768 771.806 150.995 772.2 150.312C772.595 149.629 773.134 149.091 773.816 148.696C774.51 148.301 775.288 148.104 776.152 148.104C776.771 148.104 777.347 148.216 777.88 148.44C778.414 148.653 778.872 148.952 779.256 149.336C779.651 149.709 779.934 150.157 780.104 150.68L778.264 151.48C778.104 151.043 777.832 150.691 777.448 150.424C777.075 150.157 776.643 150.024 776.152 150.024C775.694 150.024 775.283 150.136 774.92 150.36C774.568 150.584 774.291 150.893 774.088 151.288C773.886 151.683 773.784 152.136 773.784 152.648C773.784 153.16 773.886 153.613 774.088 154.008C774.291 154.403 774.568 154.712 774.92 154.936C775.283 155.16 775.694 155.272 776.152 155.272C776.654 155.272 777.091 155.139 777.464 154.872C777.838 154.605 778.104 154.248 778.264 153.8L780.104 154.632C779.934 155.123 779.656 155.565 779.272 155.96C778.888 156.344 778.43 156.648 777.896 156.872C777.363 157.085 776.782 157.192 776.152 157.192ZM788.399 160.2V155.32L788.735 155.736C788.436 156.205 788.02 156.568 787.487 156.824C786.953 157.069 786.372 157.192 785.743 157.192C784.9 157.192 784.148 156.995 783.487 156.6C782.825 156.195 782.303 155.645 781.919 154.952C781.535 154.259 781.343 153.491 781.343 152.648C781.343 151.795 781.535 151.027 781.919 150.344C782.303 149.661 782.825 149.117 783.487 148.712C784.159 148.307 784.905 148.104 785.727 148.104C786.388 148.104 786.975 148.237 787.487 148.504C788.009 148.76 788.42 149.123 788.719 149.592L788.511 150.024V148.296H790.495V160.2H788.399ZM785.967 155.272C786.447 155.272 786.868 155.16 787.231 154.936C787.593 154.712 787.876 154.403 788.079 154.008C788.292 153.613 788.399 153.16 788.399 152.648C788.399 152.147 788.292 151.699 788.079 151.304C787.876 150.899 787.593 150.584 787.231 150.36C786.868 150.136 786.447 150.024 785.967 150.024C785.497 150.024 785.076 150.141 784.703 150.376C784.329 150.6 784.036 150.909 783.823 151.304C783.62 151.688 783.519 152.136 783.519 152.648C783.519 153.16 783.62 153.613 783.823 154.008C784.036 154.403 784.329 154.712 784.703 154.936C785.076 155.16 785.497 155.272 785.967 155.272ZM795.549 157.192C794.877 157.192 794.29 157.043 793.789 156.744C793.298 156.445 792.919 156.029 792.653 155.496C792.397 154.963 792.269 154.339 792.269 153.624V148.296H794.365V153.448C794.365 153.811 794.434 154.131 794.573 154.408C794.722 154.675 794.93 154.888 795.197 155.048C795.474 155.197 795.783 155.272 796.125 155.272C796.466 155.272 796.77 155.197 797.037 155.048C797.303 154.888 797.511 154.669 797.661 154.392C797.81 154.115 797.885 153.784 797.885 153.4V148.296H799.981V157H797.997V155.288L798.173 155.592C797.97 156.125 797.634 156.525 797.165 156.792C796.706 157.059 796.167 157.192 795.549 157.192ZM801.929 157V148.296H804.025V157H801.929ZM801.929 147.32V145.08H804.025V147.32H801.929ZM805.96 157V148.296H807.928V150.232L807.768 149.944C807.971 149.293 808.286 148.84 808.712 148.584C809.15 148.328 809.672 148.2 810.28 148.2H810.792V150.056H810.04C809.443 150.056 808.963 150.243 808.6 150.616C808.238 150.979 808.056 151.491 808.056 152.152V157H805.96ZM816.073 157.192C815.177 157.192 814.393 156.989 813.721 156.584C813.049 156.179 812.526 155.629 812.153 154.936C811.779 154.243 811.593 153.475 811.593 152.632C811.593 151.757 811.779 150.984 812.153 150.312C812.537 149.629 813.054 149.091 813.705 148.696C814.366 148.301 815.102 148.104 815.913 148.104C816.595 148.104 817.193 148.216 817.705 148.44C818.227 148.664 818.67 148.973 819.033 149.368C819.395 149.763 819.673 150.216 819.865 150.728C820.057 151.229 820.153 151.773 820.153 152.36C820.153 152.509 820.142 152.664 820.121 152.824C820.11 152.984 820.083 153.123 820.041 153.24H813.321V151.64H818.857L817.865 152.392C817.961 151.901 817.934 151.464 817.785 151.08C817.646 150.696 817.411 150.392 817.081 150.168C816.761 149.944 816.371 149.832 815.913 149.832C815.475 149.832 815.086 149.944 814.745 150.168C814.403 150.381 814.142 150.701 813.961 151.128C813.79 151.544 813.726 152.051 813.769 152.648C813.726 153.181 813.795 153.656 813.977 154.072C814.169 154.477 814.446 154.792 814.809 155.016C815.182 155.24 815.609 155.352 816.089 155.352C816.569 155.352 816.974 155.251 817.305 155.048C817.646 154.845 817.913 154.573 818.105 154.232L819.801 155.064C819.63 155.48 819.363 155.848 819.001 156.168C818.638 156.488 818.206 156.739 817.705 156.92C817.214 157.101 816.67 157.192 816.073 157.192ZM825.79 157.192C824.947 157.192 824.195 156.995 823.534 156.6C822.872 156.195 822.35 155.645 821.966 154.952C821.582 154.259 821.39 153.491 821.39 152.648C821.39 151.795 821.582 151.027 821.966 150.344C822.35 149.661 822.872 149.117 823.534 148.712C824.206 148.307 824.952 148.104 825.774 148.104C826.435 148.104 827.022 148.237 827.534 148.504C828.056 148.76 828.467 149.123 828.766 149.592L828.446 150.024V144.888H830.542V157H828.558V155.32L828.782 155.736C828.483 156.205 828.067 156.568 827.534 156.824C827 157.069 826.419 157.192 825.79 157.192ZM826.014 155.272C826.494 155.272 826.915 155.16 827.278 154.936C827.64 154.712 827.923 154.403 828.126 154.008C828.339 153.613 828.446 153.16 828.446 152.648C828.446 152.147 828.339 151.699 828.126 151.304C827.923 150.899 827.64 150.584 827.278 150.36C826.915 150.136 826.494 150.024 826.014 150.024C825.544 150.024 825.123 150.141 824.75 150.376C824.376 150.6 824.083 150.909 823.87 151.304C823.667 151.688 823.566 152.136 823.566 152.648C823.566 153.16 823.667 153.613 823.87 154.008C824.083 154.403 824.376 154.712 824.75 154.936C825.123 155.16 825.544 155.272 826.014 155.272Z" fill="#1B1B1B"/>
<path d="M837.961 157.192C837.396 157.192 836.895 157.091 836.457 156.888C836.031 156.675 835.695 156.387 835.449 156.024C835.204 155.651 835.081 155.224 835.081 154.744C835.081 154.285 835.177 153.875 835.369 153.512C835.572 153.139 835.881 152.824 836.297 152.568C836.724 152.312 837.257 152.131 837.897 152.024L841.097 151.496V152.744L838.233 153.224C837.679 153.32 837.273 153.496 837.017 153.752C836.772 154.008 836.649 154.323 836.649 154.696C836.649 155.048 836.788 155.341 837.065 155.576C837.353 155.811 837.711 155.928 838.137 155.928C838.681 155.928 839.151 155.816 839.545 155.592C839.951 155.357 840.265 155.043 840.489 154.648C840.724 154.253 840.841 153.816 840.841 153.336V151.144C840.841 150.675 840.665 150.296 840.313 150.008C839.972 149.709 839.519 149.56 838.953 149.56C838.463 149.56 838.025 149.688 837.641 149.944C837.268 150.189 836.991 150.52 836.809 150.936L835.513 150.264C835.673 149.869 835.929 149.517 836.281 149.208C836.633 148.888 837.044 148.637 837.513 148.456C837.983 148.275 838.473 148.184 838.985 148.184C839.647 148.184 840.228 148.312 840.729 148.568C841.231 148.813 841.62 149.16 841.897 149.608C842.185 150.045 842.329 150.557 842.329 151.144V157H840.873V155.368L841.145 155.464C840.964 155.805 840.719 156.104 840.409 156.36C840.1 156.616 839.737 156.819 839.321 156.968C838.905 157.117 838.452 157.192 837.961 157.192ZM845.502 157V149.8H843.854V148.376H845.502V147.768C845.502 147.149 845.635 146.627 845.902 146.2C846.179 145.773 846.542 145.448 846.99 145.224C847.448 145 847.955 144.888 848.51 144.888C848.627 144.888 848.755 144.899 848.894 144.92C849.043 144.931 849.166 144.947 849.262 144.968V146.296C849.176 146.275 849.075 146.264 848.958 146.264C848.84 146.253 848.75 146.248 848.686 146.248C848.195 146.248 847.79 146.365 847.47 146.6C847.16 146.835 847.006 147.224 847.006 147.768V148.376H849.054V149.8H847.006V157H845.502ZM854.687 157.096C853.845 157.096 853.194 156.856 852.735 156.376C852.287 155.896 852.063 155.219 852.063 154.344V149.8H850.495V148.376H850.815C851.199 148.376 851.503 148.259 851.727 148.024C851.951 147.789 852.063 147.48 852.063 147.096V146.392H853.551V148.376H855.487V149.8H853.551V154.296C853.551 154.584 853.594 154.835 853.679 155.048C853.775 155.261 853.93 155.432 854.143 155.56C854.357 155.677 854.639 155.736 854.991 155.736C855.066 155.736 855.157 155.731 855.263 155.72C855.381 155.709 855.487 155.699 855.583 155.688V157C855.445 157.032 855.29 157.053 855.119 157.064C854.949 157.085 854.805 157.096 854.687 157.096ZM861.261 157.192C860.429 157.192 859.687 156.995 859.037 156.6C858.386 156.205 857.874 155.667 857.501 154.984C857.127 154.291 856.941 153.517 856.941 152.664C856.941 151.8 857.122 151.032 857.485 150.36C857.858 149.688 858.359 149.16 858.989 148.776C859.629 148.381 860.343 148.184 861.133 148.184C861.773 148.184 862.338 148.301 862.829 148.536C863.33 148.76 863.751 149.069 864.093 149.464C864.445 149.848 864.711 150.291 864.893 150.792C865.085 151.283 865.181 151.795 865.181 152.328C865.181 152.445 865.17 152.579 865.149 152.728C865.138 152.867 865.122 153 865.101 153.128H858.029V151.848H864.237L863.533 152.424C863.629 151.869 863.575 151.373 863.373 150.936C863.17 150.499 862.871 150.152 862.477 149.896C862.082 149.64 861.634 149.512 861.133 149.512C860.631 149.512 860.173 149.64 859.757 149.896C859.341 150.152 859.015 150.52 858.781 151C858.557 151.469 858.466 152.029 858.509 152.68C858.466 153.309 858.562 153.864 858.797 154.344C859.042 154.813 859.383 155.181 859.821 155.448C860.269 155.704 860.754 155.832 861.277 155.832C861.853 155.832 862.338 155.699 862.733 155.432C863.127 155.165 863.447 154.824 863.693 154.408L864.941 155.048C864.77 155.443 864.503 155.805 864.141 156.136C863.789 156.456 863.367 156.712 862.877 156.904C862.397 157.096 861.858 157.192 861.261 157.192ZM867.121 157V148.376H868.577V149.96L868.417 149.736C868.619 149.245 868.929 148.883 869.345 148.648C869.761 148.403 870.267 148.28 870.865 148.28H871.393V149.688H870.641C870.033 149.688 869.542 149.88 869.169 150.264C868.795 150.637 868.609 151.171 868.609 151.864V157H867.121ZM875.48 157V144.888H876.968V157H875.48ZM881.805 157.192C881.24 157.192 880.738 157.091 880.301 156.888C879.874 156.675 879.538 156.387 879.293 156.024C879.048 155.651 878.925 155.224 878.925 154.744C878.925 154.285 879.021 153.875 879.213 153.512C879.416 153.139 879.725 152.824 880.141 152.568C880.568 152.312 881.101 152.131 881.741 152.024L884.941 151.496V152.744L882.077 153.224C881.522 153.32 881.117 153.496 880.861 153.752C880.616 154.008 880.493 154.323 880.493 154.696C880.493 155.048 880.632 155.341 880.909 155.576C881.197 155.811 881.554 155.928 881.981 155.928C882.525 155.928 882.994 155.816 883.389 155.592C883.794 155.357 884.109 155.043 884.333 154.648C884.568 154.253 884.685 153.816 884.685 153.336V151.144C884.685 150.675 884.509 150.296 884.157 150.008C883.816 149.709 883.362 149.56 882.797 149.56C882.306 149.56 881.869 149.688 881.485 149.944C881.112 150.189 880.834 150.52 880.653 150.936L879.357 150.264C879.517 149.869 879.773 149.517 880.125 149.208C880.477 148.888 880.888 148.637 881.357 148.456C881.826 148.275 882.317 148.184 882.829 148.184C883.49 148.184 884.072 148.312 884.573 148.568C885.074 148.813 885.464 149.16 885.741 149.608C886.029 150.045 886.173 150.557 886.173 151.144V157H884.717V155.368L884.989 155.464C884.808 155.805 884.562 156.104 884.253 156.36C883.944 156.616 883.581 156.819 883.165 156.968C882.749 157.117 882.296 157.192 881.805 157.192ZM891.536 157.192C890.917 157.192 890.357 157.048 889.856 156.76C889.365 156.472 888.981 156.072 888.704 155.56C888.437 155.037 888.304 154.44 888.304 153.768V148.376H889.792V153.608C889.792 154.035 889.877 154.408 890.048 154.728C890.229 155.048 890.475 155.299 890.784 155.48C891.104 155.661 891.467 155.752 891.872 155.752C892.277 155.752 892.635 155.661 892.944 155.48C893.264 155.299 893.509 155.037 893.68 154.696C893.861 154.355 893.952 153.949 893.952 153.48V148.376H895.456V157H894V155.32L894.24 155.464C894.037 156.008 893.691 156.435 893.2 156.744C892.72 157.043 892.165 157.192 891.536 157.192ZM897.761 157V148.376H899.217V150.056L898.977 149.912C899.191 149.368 899.532 148.947 900.001 148.648C900.481 148.339 901.041 148.184 901.681 148.184C902.3 148.184 902.849 148.323 903.329 148.6C903.82 148.877 904.204 149.261 904.481 149.752C904.769 150.243 904.913 150.797 904.913 151.416V157H903.409V151.896C903.409 151.416 903.324 151.011 903.153 150.68C902.983 150.349 902.737 150.093 902.417 149.912C902.108 149.72 901.751 149.624 901.345 149.624C900.94 149.624 900.577 149.72 900.257 149.912C899.948 150.093 899.703 150.355 899.521 150.696C899.34 151.027 899.249 151.427 899.249 151.896V157H897.761ZM911.043 157.192C910.2 157.192 909.448 156.995 908.787 156.6C908.136 156.205 907.624 155.667 907.251 154.984C906.877 154.301 906.691 153.533 906.691 152.68C906.691 151.816 906.877 151.048 907.251 150.376C907.624 149.704 908.136 149.171 908.787 148.776C909.448 148.381 910.2 148.184 911.043 148.184C911.608 148.184 912.136 148.285 912.627 148.488C913.117 148.691 913.549 148.963 913.923 149.304C914.296 149.645 914.568 150.045 914.739 150.504L913.411 151.144C913.208 150.696 912.899 150.333 912.483 150.056C912.067 149.768 911.587 149.624 911.043 149.624C910.52 149.624 910.045 149.757 909.619 150.024C909.203 150.291 908.872 150.653 908.627 151.112C908.381 151.571 908.259 152.099 908.259 152.696C908.259 153.272 908.381 153.795 908.627 154.264C908.872 154.723 909.203 155.085 909.619 155.352C910.045 155.619 910.52 155.752 911.043 155.752C911.587 155.752 912.067 155.613 912.483 155.336C912.899 155.048 913.208 154.669 913.411 154.2L914.739 154.872C914.568 155.32 914.296 155.72 913.923 156.072C913.549 156.413 913.117 156.685 912.627 156.888C912.136 157.091 911.608 157.192 911.043 157.192ZM916.683 157V144.888H918.171V150.056L917.899 149.912C918.113 149.368 918.454 148.947 918.923 148.648C919.403 148.339 919.963 148.184 920.603 148.184C921.222 148.184 921.771 148.323 922.251 148.6C922.742 148.877 923.126 149.261 923.403 149.752C923.691 150.243 923.835 150.797 923.835 151.416V157H922.331V151.896C922.331 151.416 922.241 151.011 922.059 150.68C921.889 150.349 921.649 150.093 921.339 149.912C921.03 149.72 920.673 149.624 920.267 149.624C919.873 149.624 919.515 149.72 919.195 149.912C918.875 150.093 918.625 150.355 918.443 150.696C918.262 151.027 918.171 151.427 918.171 151.896V157H916.683ZM925.965 157V148.376H927.453V157H925.965ZM925.965 147V145.08H927.453V147H925.965ZM929.761 157V148.376H931.217V150.056L930.977 149.912C931.191 149.368 931.532 148.947 932.001 148.648C932.481 148.339 933.041 148.184 933.681 148.184C934.3 148.184 934.849 148.323 935.329 148.6C935.82 148.877 936.204 149.261 936.481 149.752C936.769 150.243 936.913 150.797 936.913 151.416V157H935.409V151.896C935.409 151.416 935.324 151.011 935.153 150.68C934.983 150.349 934.737 150.093 934.417 149.912C934.108 149.72 933.751 149.624 933.345 149.624C932.94 149.624 932.577 149.72 932.257 149.912C931.948 150.093 931.703 150.355 931.521 150.696C931.34 151.027 931.249 151.427 931.249 151.896V157H929.761ZM943.155 160.52C942.547 160.52 941.981 160.424 941.459 160.232C940.947 160.04 940.504 159.773 940.131 159.432C939.768 159.101 939.491 158.712 939.299 158.264L940.691 157.624C940.84 158.029 941.123 158.371 941.539 158.648C941.965 158.936 942.499 159.08 943.139 159.08C943.629 159.08 944.072 158.984 944.467 158.792C944.872 158.611 945.192 158.333 945.427 157.96C945.661 157.597 945.779 157.155 945.779 156.632V154.696L946.051 154.984C945.752 155.571 945.32 156.019 944.755 156.328C944.2 156.637 943.587 156.792 942.915 156.792C942.104 156.792 941.379 156.605 940.739 156.232C940.099 155.848 939.597 155.331 939.235 154.68C938.872 154.019 938.691 153.288 938.691 152.488C938.691 151.677 938.872 150.947 939.235 150.296C939.597 149.645 940.093 149.133 940.723 148.76C941.363 148.376 942.088 148.184 942.899 148.184C943.571 148.184 944.179 148.339 944.723 148.648C945.277 148.947 945.72 149.363 946.051 149.896L945.827 150.296V148.376H947.283V156.632C947.283 157.379 947.107 158.045 946.755 158.632C946.403 159.219 945.912 159.677 945.283 160.008C944.664 160.349 943.955 160.52 943.155 160.52ZM943.043 155.352C943.555 155.352 944.013 155.224 944.419 154.968C944.835 154.712 945.165 154.371 945.411 153.944C945.656 153.507 945.779 153.021 945.779 152.488C945.779 151.965 945.656 151.485 945.411 151.048C945.165 150.611 944.835 150.264 944.419 150.008C944.013 149.752 943.555 149.624 943.043 149.624C942.52 149.624 942.045 149.752 941.619 150.008C941.192 150.264 940.856 150.611 940.611 151.048C940.376 151.475 940.259 151.955 940.259 152.488C940.259 153.021 940.376 153.507 940.611 153.944C940.856 154.371 941.187 154.712 941.603 154.968C942.029 155.224 942.509 155.352 943.043 155.352ZM729.734 188.096C728.891 188.096 728.241 187.856 727.782 187.376C727.334 186.896 727.11 186.219 727.11 185.344V180.8H725.542V179.376H725.862C726.246 179.376 726.55 179.259 726.774 179.024C726.998 178.789 727.11 178.48 727.11 178.096V177.392H728.598V179.376H730.534V180.8H728.598V185.296C728.598 185.584 728.641 185.835 728.726 186.048C728.822 186.261 728.977 186.432 729.19 186.56C729.403 186.677 729.686 186.736 730.038 186.736C730.113 186.736 730.203 186.731 730.31 186.72C730.427 186.709 730.534 186.699 730.63 186.688V188C730.491 188.032 730.337 188.053 730.166 188.064C729.995 188.085 729.851 188.096 729.734 188.096ZM732.574 188V175.888H734.062V181.056L733.79 180.912C734.003 180.368 734.345 179.947 734.814 179.648C735.294 179.339 735.854 179.184 736.494 179.184C737.113 179.184 737.662 179.323 738.142 179.6C738.633 179.877 739.017 180.261 739.294 180.752C739.582 181.243 739.726 181.797 739.726 182.416V188H738.222V182.896C738.222 182.416 738.131 182.011 737.95 181.68C737.779 181.349 737.539 181.093 737.23 180.912C736.921 180.72 736.563 180.624 736.158 180.624C735.763 180.624 735.406 180.72 735.086 180.912C734.766 181.093 734.515 181.355 734.334 181.696C734.153 182.027 734.062 182.427 734.062 182.896V188H732.574ZM741.855 188V179.376H743.311V180.96L743.151 180.736C743.354 180.245 743.663 179.883 744.079 179.648C744.495 179.403 745.002 179.28 745.599 179.28H746.127V180.688H745.375C744.767 180.688 744.276 180.88 743.903 181.264C743.53 181.637 743.343 182.171 743.343 182.864V188H741.855ZM751.545 188.192C750.713 188.192 749.961 188 749.289 187.616C748.617 187.221 748.084 186.683 747.689 186C747.294 185.317 747.097 184.544 747.097 183.68C747.097 182.816 747.289 182.048 747.673 181.376C748.068 180.704 748.601 180.171 749.273 179.776C749.945 179.381 750.702 179.184 751.545 179.184C752.377 179.184 753.129 179.381 753.801 179.776C754.473 180.16 755.001 180.688 755.385 181.36C755.78 182.032 755.977 182.805 755.977 183.68C755.977 184.555 755.774 185.333 755.369 186.016C754.964 186.688 754.425 187.221 753.753 187.616C753.092 188 752.356 188.192 751.545 188.192ZM751.545 186.752C752.078 186.752 752.558 186.619 752.985 186.352C753.422 186.085 753.764 185.717 754.009 185.248C754.265 184.779 754.393 184.256 754.393 183.68C754.393 183.093 754.265 182.576 754.009 182.128C753.764 181.669 753.422 181.307 752.985 181.04C752.558 180.763 752.078 180.624 751.545 180.624C751.001 180.624 750.51 180.763 750.073 181.04C749.646 181.307 749.305 181.669 749.049 182.128C748.793 182.576 748.665 183.093 748.665 183.68C748.665 184.256 748.793 184.779 749.049 185.248C749.305 185.717 749.646 186.085 750.073 186.352C750.51 186.619 751.001 186.752 751.545 186.752ZM760.974 188.192C760.355 188.192 759.795 188.048 759.294 187.76C758.803 187.472 758.419 187.072 758.142 186.56C757.875 186.037 757.742 185.44 757.742 184.768V179.376H759.23V184.608C759.23 185.035 759.315 185.408 759.486 185.728C759.667 186.048 759.912 186.299 760.222 186.48C760.542 186.661 760.904 186.752 761.31 186.752C761.715 186.752 762.072 186.661 762.382 186.48C762.702 186.299 762.947 186.037 763.118 185.696C763.299 185.355 763.39 184.949 763.39 184.48V179.376H764.894V188H763.438V186.32L763.678 186.464C763.475 187.008 763.128 187.435 762.638 187.744C762.158 188.043 761.603 188.192 760.974 188.192ZM771.311 191.52C770.703 191.52 770.138 191.424 769.615 191.232C769.103 191.04 768.66 190.773 768.287 190.432C767.924 190.101 767.647 189.712 767.455 189.264L768.847 188.624C768.996 189.029 769.279 189.371 769.695 189.648C770.122 189.936 770.655 190.08 771.295 190.08C771.786 190.08 772.228 189.984 772.623 189.792C773.028 189.611 773.348 189.333 773.583 188.96C773.818 188.597 773.935 188.155 773.935 187.632V185.696L774.207 185.984C773.908 186.571 773.476 187.019 772.911 187.328C772.356 187.637 771.743 187.792 771.071 187.792C770.26 187.792 769.535 187.605 768.895 187.232C768.255 186.848 767.754 186.331 767.391 185.68C767.028 185.019 766.847 184.288 766.847 183.488C766.847 182.677 767.028 181.947 767.391 181.296C767.754 180.645 768.25 180.133 768.879 179.76C769.519 179.376 770.244 179.184 771.055 179.184C771.727 179.184 772.335 179.339 772.879 179.648C773.434 179.947 773.876 180.363 774.207 180.896L773.983 181.296V179.376H775.439V187.632C775.439 188.379 775.263 189.045 774.911 189.632C774.559 190.219 774.068 190.677 773.439 191.008C772.82 191.349 772.111 191.52 771.311 191.52ZM771.199 186.352C771.711 186.352 772.17 186.224 772.575 185.968C772.991 185.712 773.322 185.371 773.567 184.944C773.812 184.507 773.935 184.021 773.935 183.488C773.935 182.965 773.812 182.485 773.567 182.048C773.322 181.611 772.991 181.264 772.575 181.008C772.17 180.752 771.711 180.624 771.199 180.624C770.676 180.624 770.202 180.752 769.775 181.008C769.348 181.264 769.012 181.611 768.767 182.048C768.532 182.475 768.415 182.955 768.415 183.488C768.415 184.021 768.532 184.507 768.767 184.944C769.012 185.371 769.343 185.712 769.759 185.968C770.186 186.224 770.666 186.352 771.199 186.352ZM777.746 188V175.888H779.234V181.056L778.962 180.912C779.175 180.368 779.516 179.947 779.986 179.648C780.466 179.339 781.026 179.184 781.666 179.184C782.284 179.184 782.834 179.323 783.314 179.6C783.804 179.877 784.188 180.261 784.466 180.752C784.754 181.243 784.898 181.797 784.898 182.416V188H783.394V182.896C783.394 182.416 783.303 182.011 783.122 181.68C782.951 181.349 782.711 181.093 782.402 180.912C782.092 180.72 781.735 180.624 781.33 180.624C780.935 180.624 780.578 180.72 780.258 180.912C779.938 181.093 779.687 181.355 779.506 181.696C779.324 182.027 779.234 182.427 779.234 182.896V188H777.746ZM789.969 188V176.08H791.537V186.56H796.769V188H789.969ZM800.883 188.192C800.318 188.192 799.816 188.091 799.379 187.888C798.952 187.675 798.616 187.387 798.371 187.024C798.126 186.651 798.003 186.224 798.003 185.744C798.003 185.285 798.099 184.875 798.291 184.512C798.494 184.139 798.803 183.824 799.219 183.568C799.646 183.312 800.179 183.131 800.819 183.024L804.019 182.496V183.744L801.155 184.224C800.6 184.32 800.195 184.496 799.939 184.752C799.694 185.008 799.571 185.323 799.571 185.696C799.571 186.048 799.71 186.341 799.987 186.576C800.275 186.811 800.632 186.928 801.059 186.928C801.603 186.928 802.072 186.816 802.467 186.592C802.872 186.357 803.187 186.043 803.411 185.648C803.646 185.253 803.763 184.816 803.763 184.336V182.144C803.763 181.675 803.587 181.296 803.235 181.008C802.894 180.709 802.44 180.56 801.875 180.56C801.384 180.56 800.947 180.688 800.563 180.944C800.19 181.189 799.912 181.52 799.731 181.936L798.435 181.264C798.595 180.869 798.851 180.517 799.203 180.208C799.555 179.888 799.966 179.637 800.435 179.456C800.904 179.275 801.395 179.184 801.907 179.184C802.568 179.184 803.15 179.312 803.651 179.568C804.152 179.813 804.542 180.16 804.819 180.608C805.107 181.045 805.251 181.557 805.251 182.144V188H803.795V186.368L804.067 186.464C803.886 186.805 803.64 187.104 803.331 187.36C803.022 187.616 802.659 187.819 802.243 187.968C801.827 188.117 801.374 188.192 800.883 188.192ZM810.614 188.192C809.996 188.192 809.436 188.048 808.934 187.76C808.444 187.472 808.06 187.072 807.782 186.56C807.516 186.037 807.382 185.44 807.382 184.768V179.376H808.87V184.608C808.87 185.035 808.956 185.408 809.126 185.728C809.308 186.048 809.553 186.299 809.862 186.48C810.182 186.661 810.545 186.752 810.95 186.752C811.356 186.752 811.713 186.661 812.022 186.48C812.342 186.299 812.588 186.037 812.758 185.696C812.94 185.355 813.03 184.949 813.03 184.48V179.376H814.534V188H813.078V186.32L813.318 186.464C813.116 187.008 812.769 187.435 812.278 187.744C811.798 188.043 811.244 188.192 810.614 188.192ZM816.84 188V179.376H818.296V181.056L818.056 180.912C818.269 180.368 818.61 179.947 819.08 179.648C819.56 179.339 820.12 179.184 820.76 179.184C821.378 179.184 821.928 179.323 822.408 179.6C822.898 179.877 823.282 180.261 823.56 180.752C823.848 181.243 823.992 181.797 823.992 182.416V188H822.488V182.896C822.488 182.416 822.402 182.011 822.232 181.68C822.061 181.349 821.816 181.093 821.496 180.912C821.186 180.72 820.829 180.624 820.424 180.624C820.018 180.624 819.656 180.72 819.336 180.912C819.026 181.093 818.781 181.355 818.6 181.696C818.418 182.027 818.328 182.427 818.328 182.896V188H816.84ZM830.121 188.192C829.278 188.192 828.526 187.995 827.865 187.6C827.214 187.205 826.702 186.667 826.329 185.984C825.955 185.301 825.769 184.533 825.769 183.68C825.769 182.816 825.955 182.048 826.329 181.376C826.702 180.704 827.214 180.171 827.865 179.776C828.526 179.381 829.278 179.184 830.121 179.184C830.686 179.184 831.214 179.285 831.705 179.488C832.195 179.691 832.627 179.963 833.001 180.304C833.374 180.645 833.646 181.045 833.817 181.504L832.489 182.144C832.286 181.696 831.977 181.333 831.561 181.056C831.145 180.768 830.665 180.624 830.121 180.624C829.598 180.624 829.123 180.757 828.697 181.024C828.281 181.291 827.95 181.653 827.705 182.112C827.459 182.571 827.337 183.099 827.337 183.696C827.337 184.272 827.459 184.795 827.705 185.264C827.95 185.723 828.281 186.085 828.697 186.352C829.123 186.619 829.598 186.752 830.121 186.752C830.665 186.752 831.145 186.613 831.561 186.336C831.977 186.048 832.286 185.669 832.489 185.2L833.817 185.872C833.646 186.32 833.374 186.72 833.001 187.072C832.627 187.413 832.195 187.685 831.705 187.888C831.214 188.091 830.686 188.192 830.121 188.192ZM835.761 188V175.888H837.249V181.056L836.977 180.912C837.191 180.368 837.532 179.947 838.001 179.648C838.481 179.339 839.041 179.184 839.681 179.184C840.3 179.184 840.849 179.323 841.329 179.6C841.82 179.877 842.204 180.261 842.481 180.752C842.769 181.243 842.913 181.797 842.913 182.416V188H841.409V182.896C841.409 182.416 841.319 182.011 841.137 181.68C840.967 181.349 840.727 181.093 840.417 180.912C840.108 180.72 839.751 180.624 839.345 180.624C838.951 180.624 838.593 180.72 838.273 180.912C837.953 181.093 837.703 181.355 837.521 181.696C837.34 182.027 837.249 182.427 837.249 182.896V188H835.761ZM845.219 188V176.08H849.427C850.216 176.08 850.909 176.229 851.507 176.528C852.104 176.827 852.568 177.253 852.899 177.808C853.24 178.363 853.411 179.013 853.411 179.76C853.411 180.507 853.24 181.157 852.899 181.712C852.568 182.256 852.104 182.683 851.507 182.992C850.92 183.291 850.227 183.44 849.427 183.44H846.787V188H845.219ZM846.787 182H849.475C849.955 182 850.371 181.909 850.723 181.728C851.075 181.547 851.347 181.285 851.539 180.944C851.731 180.603 851.827 180.208 851.827 179.76C851.827 179.301 851.731 178.907 851.539 178.576C851.347 178.235 851.075 177.973 850.723 177.792C850.371 177.611 849.955 177.52 849.475 177.52H846.787V182ZM857.289 188.192C856.724 188.192 856.223 188.091 855.785 187.888C855.359 187.675 855.023 187.387 854.777 187.024C854.532 186.651 854.409 186.224 854.409 185.744C854.409 185.285 854.505 184.875 854.697 184.512C854.9 184.139 855.209 183.824 855.625 183.568C856.052 183.312 856.585 183.131 857.225 183.024L860.425 182.496V183.744L857.561 184.224C857.007 184.32 856.601 184.496 856.345 184.752C856.1 185.008 855.977 185.323 855.977 185.696C855.977 186.048 856.116 186.341 856.393 186.576C856.681 186.811 857.039 186.928 857.465 186.928C858.009 186.928 858.479 186.816 858.873 186.592C859.279 186.357 859.593 186.043 859.817 185.648C860.052 185.253 860.169 184.816 860.169 184.336V182.144C860.169 181.675 859.993 181.296 859.641 181.008C859.3 180.709 858.847 180.56 858.281 180.56C857.791 180.56 857.353 180.688 856.969 180.944C856.596 181.189 856.319 181.52 856.137 181.936L854.841 181.264C855.001 180.869 855.257 180.517 855.609 180.208C855.961 179.888 856.372 179.637 856.841 179.456C857.311 179.275 857.801 179.184 858.313 179.184C858.975 179.184 859.556 179.312 860.057 179.568C860.559 179.813 860.948 180.16 861.225 180.608C861.513 181.045 861.657 181.557 861.657 182.144V188H860.201V186.368L860.473 186.464C860.292 186.805 860.047 187.104 859.737 187.36C859.428 187.616 859.065 187.819 858.649 187.968C858.233 188.117 857.78 188.192 857.289 188.192ZM867.885 188.192C867.074 188.192 866.343 187.995 865.693 187.6C865.053 187.205 864.546 186.667 864.173 185.984C863.799 185.301 863.613 184.539 863.613 183.696C863.613 182.832 863.799 182.064 864.173 181.392C864.546 180.709 865.053 180.171 865.693 179.776C866.343 179.381 867.074 179.184 867.885 179.184C868.599 179.184 869.234 179.339 869.789 179.648C870.343 179.947 870.781 180.352 871.101 180.864L870.861 181.232V175.888H872.365V188H870.909V186.16L871.101 186.416C870.802 186.981 870.365 187.419 869.789 187.728C869.223 188.037 868.589 188.192 867.885 188.192ZM868.013 186.752C868.557 186.752 869.042 186.619 869.469 186.352C869.895 186.085 870.231 185.723 870.477 185.264C870.733 184.795 870.861 184.272 870.861 183.696C870.861 183.109 870.733 182.587 870.477 182.128C870.231 181.659 869.895 181.291 869.469 181.024C869.042 180.757 868.557 180.624 868.013 180.624C867.479 180.624 866.994 180.763 866.557 181.04C866.13 181.307 865.794 181.669 865.549 182.128C865.303 182.576 865.181 183.099 865.181 183.696C865.181 184.272 865.303 184.795 865.549 185.264C865.794 185.723 866.13 186.085 866.557 186.352C866.983 186.619 867.469 186.752 868.013 186.752ZM877.609 188V176.08H879.177V186.56H884.409V188H877.609ZM888.524 188.192C887.958 188.192 887.457 188.091 887.02 187.888C886.593 187.675 886.257 187.387 886.012 187.024C885.766 186.651 885.644 186.224 885.644 185.744C885.644 185.285 885.74 184.875 885.932 184.512C886.134 184.139 886.444 183.824 886.86 183.568C887.286 183.312 887.82 183.131 888.46 183.024L891.66 182.496V183.744L888.796 184.224C888.241 184.32 887.836 184.496 887.58 184.752C887.334 185.008 887.212 185.323 887.212 185.696C887.212 186.048 887.35 186.341 887.628 186.576C887.916 186.811 888.273 186.928 888.7 186.928C889.244 186.928 889.713 186.816 890.108 186.592C890.513 186.357 890.828 186.043 891.052 185.648C891.286 185.253 891.404 184.816 891.404 184.336V182.144C891.404 181.675 891.228 181.296 890.876 181.008C890.534 180.709 890.081 180.56 889.516 180.56C889.025 180.56 888.588 180.688 888.204 180.944C887.83 181.189 887.553 181.52 887.372 181.936L886.076 181.264C886.236 180.869 886.492 180.517 886.844 180.208C887.196 179.888 887.606 179.637 888.076 179.456C888.545 179.275 889.036 179.184 889.548 179.184C890.209 179.184 890.79 179.312 891.292 179.568C891.793 179.813 892.182 180.16 892.46 180.608C892.748 181.045 892.892 181.557 892.892 182.144V188H891.436V186.368L891.708 186.464C891.526 186.805 891.281 187.104 890.972 187.36C890.662 187.616 890.3 187.819 889.884 187.968C889.468 188.117 889.014 188.192 888.524 188.192ZM899.663 188.192C898.97 188.192 898.335 188.037 897.759 187.728C897.194 187.419 896.756 186.981 896.447 186.416L896.655 186.16V188H895.199V175.888H896.687V181.232L896.463 180.864C896.783 180.352 897.22 179.947 897.775 179.648C898.33 179.339 898.964 179.184 899.679 179.184C900.49 179.184 901.215 179.381 901.855 179.776C902.506 180.171 903.018 180.709 903.391 181.392C903.764 182.064 903.951 182.832 903.951 183.696C903.951 184.539 903.764 185.301 903.391 185.984C903.018 186.667 902.506 187.205 901.855 187.6C901.215 187.995 900.484 188.192 899.663 188.192ZM899.551 186.752C900.095 186.752 900.58 186.619 901.007 186.352C901.434 186.085 901.764 185.723 901.999 185.264C902.244 184.795 902.367 184.272 902.367 183.696C902.367 183.099 902.244 182.576 901.999 182.128C901.764 181.669 901.434 181.307 901.007 181.04C900.58 180.763 900.095 180.624 899.551 180.624C899.007 180.624 898.516 180.757 898.079 181.024C897.652 181.291 897.311 181.659 897.055 182.128C896.81 182.587 896.687 183.109 896.687 183.696C896.687 184.272 896.81 184.795 897.055 185.264C897.311 185.723 897.652 186.085 898.079 186.352C898.516 186.619 899.007 186.752 899.551 186.752ZM908.99 188.192C908.126 188.192 907.374 187.979 906.734 187.552C906.094 187.125 905.641 186.549 905.374 185.824L906.558 185.248C906.803 185.76 907.139 186.165 907.566 186.464C907.993 186.763 908.467 186.912 908.99 186.912C909.459 186.912 909.849 186.8 910.158 186.576C910.467 186.352 910.622 186.059 910.622 185.696C910.622 185.44 910.547 185.237 910.398 185.088C910.259 184.928 910.089 184.805 909.886 184.72C909.683 184.624 909.497 184.555 909.326 184.512L908.03 184.144C907.251 183.92 906.681 183.6 906.318 183.184C905.966 182.768 905.79 182.283 905.79 181.728C905.79 181.216 905.918 180.773 906.174 180.4C906.441 180.016 906.798 179.717 907.246 179.504C907.705 179.291 908.217 179.184 908.782 179.184C909.539 179.184 910.217 179.376 910.814 179.76C911.422 180.144 911.854 180.683 912.11 181.376L910.894 181.936C910.702 181.488 910.414 181.136 910.03 180.88C909.646 180.613 909.214 180.48 908.734 180.48C908.297 180.48 907.95 180.592 907.694 180.816C907.438 181.029 907.31 181.301 907.31 181.632C907.31 181.877 907.374 182.08 907.502 182.24C907.63 182.389 907.785 182.507 907.966 182.592C908.147 182.667 908.323 182.731 908.494 182.784L909.902 183.2C910.606 183.403 911.15 183.717 911.534 184.144C911.929 184.571 912.126 185.083 912.126 185.68C912.126 186.16 911.993 186.592 911.726 186.976C911.459 187.36 911.091 187.659 910.622 187.872C910.153 188.085 909.609 188.192 908.99 188.192Z" fill="#505050"/>
<defs>
<linearGradient id="paint0_linear_1_2841" x1="287.987" y1="420.675" x2="283.348" y2="-39.2671" gradientUnits="userSpaceOnUse">
<stop offset="0.251995" stop-color="white"/>
<stop offset="1" stop-color="#E6F3FF"/>
</linearGradient>
<linearGradient id="paint1_linear_1_2841" x1="149" y1="0" x2="149" y2="246" gradientUnits="userSpaceOnUse">
<stop stop-color="#B9E8FF"/>
<stop offset="0.461538" stop-color="#8CB4FF" stop-opacity="0.93"/>
<stop offset="1" stop-color="#DEF8FF" stop-opacity="0.66"/>
</linearGradient>
<linearGradient id="paint2_linear_1_2841" x1="621.987" y1="420.675" x2="617.348" y2="-39.2671" gradientUnits="userSpaceOnUse">
<stop offset="0.251995" stop-color="white"/>
<stop offset="1" stop-color="#E6F3FF"/>
</linearGradient>
<linearGradient id="paint3_linear_1_2841" x1="483" y1="0" x2="483" y2="246" gradientUnits="userSpaceOnUse">
<stop stop-color="#B9E8FF"/>
<stop offset="0.461538" stop-color="#8CB4FF" stop-opacity="0.93"/>
<stop offset="1" stop-color="#DEF8FF" stop-opacity="0.66"/>
</linearGradient>
<linearGradient id="paint4_linear_1_2841" x1="955.987" y1="420.675" x2="951.348" y2="-39.2671" gradientUnits="userSpaceOnUse">
<stop offset="0.251995" stop-color="white"/>
<stop offset="1" stop-color="#E6F3FF"/>
</linearGradient>
<linearGradient id="paint5_linear_1_2841" x1="817" y1="0" x2="817" y2="246" gradientUnits="userSpaceOnUse">
<stop stop-color="#B9E8FF"/>
<stop offset="0.461538" stop-color="#8CB4FF" stop-opacity="0.93"/>
<stop offset="1" stop-color="#DEF8FF" stop-opacity="0.66"/>
</linearGradient>
</defs>
</svg>
