<svg width="1392" height="236" viewBox="0 0 1392 236" fill="none" xmlns="http://www.w3.org/2000/svg">
<path d="M12.744 184V52.135H36.816V162.76H93.279V184H12.744ZM136.107 186.124C129.381 186.124 123.54 185.003 118.584 182.761C113.628 180.519 109.793 177.333 107.079 173.203C104.365 168.955 103.008 164.058 103.008 158.512C103.008 153.202 104.188 148.482 106.548 144.352C108.908 140.104 112.566 136.564 117.522 133.732C122.478 130.9 128.732 128.894 136.284 127.714L167.79 122.581V140.281L140.709 144.883C136.107 145.709 132.685 147.184 130.443 149.308C128.201 151.432 127.08 154.205 127.08 157.627C127.08 160.931 128.319 163.586 130.797 165.592C133.393 167.48 136.579 168.424 140.355 168.424C145.193 168.424 149.441 167.421 153.099 165.415C156.875 163.291 159.766 160.4 161.772 156.742C163.896 153.084 164.958 149.072 164.958 144.706V119.926C164.958 115.796 163.306 112.374 160.002 109.66C156.816 106.828 152.568 105.412 147.258 105.412C142.302 105.412 137.877 106.769 133.983 109.483C130.207 112.079 127.434 115.56 125.664 119.926L106.725 110.722C108.613 105.648 111.563 101.282 115.575 97.624C119.705 93.848 124.543 90.898 130.089 88.774C135.635 86.65 141.653 85.588 148.143 85.588C156.049 85.588 163.011 87.063 169.029 90.013C175.047 92.845 179.708 96.857 183.012 102.049C186.434 107.123 188.145 113.082 188.145 119.926V184H166.197V167.539L171.153 167.185C168.675 171.315 165.725 174.796 162.303 177.628C158.881 180.342 154.987 182.466 150.621 184C146.255 185.416 141.417 186.124 136.107 186.124ZM243.914 186.124C236.48 186.124 229.99 184.472 224.444 181.168C219.016 177.864 214.827 173.262 211.877 167.362C209.045 161.462 207.629 154.559 207.629 146.653V87.712H230.816V144.706C230.816 148.718 231.583 152.258 233.117 155.326C234.769 158.276 237.07 160.636 240.02 162.406C243.088 164.058 246.51 164.884 250.286 164.884C254.062 164.884 257.425 164.058 260.375 162.406C263.325 160.636 265.626 158.217 267.278 155.149C268.93 152.081 269.756 148.423 269.756 144.175V87.712H292.943V184H270.995V165.061L272.942 168.424C270.7 174.324 266.983 178.749 261.791 181.699C256.717 184.649 250.758 186.124 243.914 186.124ZM314.497 184V87.712H336.268V106.651L334.498 103.288C336.74 97.506 340.398 93.14 345.472 90.19C350.664 87.122 356.682 85.588 363.526 85.588C370.606 85.588 376.86 87.122 382.288 90.19C387.834 93.258 392.141 97.565 395.209 103.111C398.277 108.539 399.811 114.852 399.811 122.05V184H376.624V127.537C376.624 123.289 375.798 119.631 374.146 116.563C372.494 113.495 370.193 111.135 367.243 109.483C364.411 107.713 361.048 106.828 357.154 106.828C353.378 106.828 350.015 107.713 347.065 109.483C344.115 111.135 341.814 113.495 340.162 116.563C338.51 119.631 337.684 123.289 337.684 127.537V184H314.497ZM465.792 186.124C456.234 186.124 447.62 183.941 439.95 179.575C432.398 175.091 426.439 169.073 422.073 161.521C417.707 153.851 415.524 145.237 415.524 135.679C415.524 126.121 417.707 117.566 422.073 110.014C426.439 102.462 432.398 96.503 439.95 92.137C447.62 87.771 456.234 85.588 465.792 85.588C472.636 85.588 479.008 86.827 484.908 89.305C490.808 91.665 495.882 94.969 500.13 99.217C504.496 103.347 507.623 108.303 509.511 114.085L489.156 122.935C487.386 118.097 484.377 114.203 480.129 111.253C475.999 108.303 471.22 106.828 465.792 106.828C460.718 106.828 456.175 108.067 452.163 110.545C448.269 113.023 445.201 116.445 442.959 120.811C440.717 125.177 439.596 130.192 439.596 135.856C439.596 141.52 440.717 146.535 442.959 150.901C445.201 155.267 448.269 158.689 452.163 161.167C456.175 163.645 460.718 164.884 465.792 164.884C471.338 164.884 476.176 163.409 480.306 160.459C484.436 157.509 487.386 153.556 489.156 148.6L509.511 157.804C507.623 163.232 504.555 168.129 500.307 172.495C496.059 176.743 490.985 180.106 485.085 182.584C479.185 184.944 472.754 186.124 465.792 186.124ZM527.105 184V50.011H550.292V106.651L547.106 103.288C549.348 97.506 553.006 93.14 558.08 90.19C563.272 87.122 569.29 85.588 576.134 85.588C583.214 85.588 589.468 87.122 594.896 90.19C600.442 93.258 604.749 97.565 607.817 103.111C610.885 108.539 612.419 114.852 612.419 122.05V184H589.232V127.537C589.232 123.289 588.406 119.631 586.754 116.563C585.102 113.495 582.801 111.135 579.851 109.483C577.019 107.713 573.656 106.828 569.762 106.828C565.986 106.828 562.623 107.713 559.673 109.483C556.723 111.135 554.422 113.495 552.77 116.563C551.118 119.631 550.292 123.289 550.292 127.537V184H527.105ZM633.973 184V52.135H683.179C692.147 52.135 700.053 53.787 706.897 57.091C713.859 60.277 719.287 64.997 723.181 71.251C727.075 77.387 729.022 84.88 729.022 93.73C729.022 102.462 727.016 109.955 723.004 116.209C719.11 122.345 713.741 127.065 706.897 130.369C700.053 133.673 692.147 135.325 683.179 135.325H658.045V184H633.973ZM658.045 114.085H683.533C687.899 114.085 691.675 113.259 694.861 111.607C698.047 109.837 700.525 107.418 702.295 104.35C704.065 101.282 704.95 97.742 704.95 93.73C704.95 89.6 704.065 86.06 702.295 83.11C700.525 80.042 698.047 77.682 694.861 76.03C691.675 74.26 687.899 73.375 683.533 73.375H658.045V114.085ZM770.3 186.124C763.574 186.124 757.733 185.003 752.777 182.761C747.821 180.519 743.986 177.333 741.272 173.203C738.558 168.955 737.201 164.058 737.201 158.512C737.201 153.202 738.381 148.482 740.741 144.352C743.101 140.104 746.759 136.564 751.715 133.732C756.671 130.9 762.925 128.894 770.477 127.714L801.983 122.581V140.281L774.902 144.883C770.3 145.709 766.878 147.184 764.636 149.308C762.394 151.432 761.273 154.205 761.273 157.627C761.273 160.931 762.512 163.586 764.99 165.592C767.586 167.48 770.772 168.424 774.548 168.424C779.386 168.424 783.634 167.421 787.292 165.415C791.068 163.291 793.959 160.4 795.965 156.742C798.089 153.084 799.151 149.072 799.151 144.706V119.926C799.151 115.796 797.499 112.374 794.195 109.66C791.009 106.828 786.761 105.412 781.451 105.412C776.495 105.412 772.07 106.769 768.176 109.483C764.4 112.079 761.627 115.56 759.857 119.926L740.918 110.722C742.806 105.648 745.756 101.282 749.768 97.624C753.898 93.848 758.736 90.898 764.282 88.774C769.828 86.65 775.846 85.588 782.336 85.588C790.242 85.588 797.204 87.063 803.222 90.013C809.24 92.845 813.901 96.857 817.205 102.049C820.627 107.123 822.338 113.082 822.338 119.926V184H800.39V167.539L805.346 167.185C802.868 171.315 799.918 174.796 796.496 177.628C793.074 180.342 789.18 182.466 784.814 184C780.448 185.416 775.61 186.124 770.3 186.124ZM888.55 186.124C879.228 186.124 870.909 183.941 863.593 179.575C856.277 175.091 850.495 169.014 846.247 161.344C841.999 153.674 839.875 145.178 839.875 135.856C839.875 126.416 841.999 117.92 846.247 110.368C850.495 102.816 856.277 96.798 863.593 92.314C871.027 87.83 879.287 85.588 888.373 85.588C895.689 85.588 902.179 87.063 907.843 90.013C913.625 92.845 918.168 96.857 921.472 102.049L917.932 106.828V50.011H941.119V184H919.171V165.415L921.649 170.017C918.345 175.209 913.743 179.221 907.843 182.053C901.943 184.767 895.512 186.124 888.55 186.124ZM891.028 164.884C896.338 164.884 900.999 163.645 905.011 161.167C909.023 158.689 912.15 155.267 914.392 150.901C916.752 146.535 917.932 141.52 917.932 135.856C917.932 130.31 916.752 125.354 914.392 120.988C912.15 116.504 909.023 113.023 905.011 110.545C900.999 108.067 896.338 106.828 891.028 106.828C885.836 106.828 881.175 108.126 877.045 110.722C872.915 113.2 869.67 116.622 867.31 120.988C865.068 125.236 863.947 130.192 863.947 135.856C863.947 141.52 865.068 146.535 867.31 150.901C869.67 155.267 872.915 158.689 877.045 161.167C881.175 163.645 885.836 164.884 891.028 164.884ZM996.097 184V52.135H1020.17V162.76H1076.63V184H996.097ZM1119.46 186.124C1112.73 186.124 1106.89 185.003 1101.94 182.761C1096.98 180.519 1093.15 177.333 1090.43 173.203C1087.72 168.955 1086.36 164.058 1086.36 158.512C1086.36 153.202 1087.54 148.482 1089.9 144.352C1092.26 140.104 1095.92 136.564 1100.88 133.732C1105.83 130.9 1112.09 128.894 1119.64 127.714L1151.14 122.581V140.281L1124.06 144.883C1119.46 145.709 1116.04 147.184 1113.8 149.308C1111.55 151.432 1110.43 154.205 1110.43 157.627C1110.43 160.931 1111.67 163.586 1114.15 165.592C1116.75 167.48 1119.93 168.424 1123.71 168.424C1128.55 168.424 1132.79 167.421 1136.45 165.415C1140.23 163.291 1143.12 160.4 1145.13 156.742C1147.25 153.084 1148.31 149.072 1148.31 144.706V119.926C1148.31 115.796 1146.66 112.374 1143.36 109.66C1140.17 106.828 1135.92 105.412 1130.61 105.412C1125.66 105.412 1121.23 106.769 1117.34 109.483C1113.56 112.079 1110.79 115.56 1109.02 119.926L1090.08 110.722C1091.97 105.648 1094.92 101.282 1098.93 97.624C1103.06 93.848 1107.9 90.898 1113.44 88.774C1118.99 86.65 1125.01 85.588 1131.5 85.588C1139.4 85.588 1146.36 87.063 1152.38 90.013C1158.4 92.845 1163.06 96.857 1166.37 102.049C1169.79 107.123 1171.5 113.082 1171.5 119.926V184H1149.55V167.539L1154.51 167.185C1152.03 171.315 1149.08 174.796 1145.66 177.628C1142.23 180.342 1138.34 182.466 1133.97 184C1129.61 185.416 1124.77 186.124 1119.46 186.124ZM1245.5 186.124C1238.54 186.124 1232.1 184.767 1226.2 182.053C1220.42 179.221 1215.82 175.209 1212.4 170.017L1214.7 165.415V184H1192.93V50.011H1216.12V106.828L1212.58 102.049C1215.88 96.857 1220.36 92.845 1226.03 90.013C1231.69 87.063 1238.24 85.588 1245.67 85.588C1254.76 85.588 1262.96 87.83 1270.28 92.314C1277.59 96.798 1283.38 102.816 1287.62 110.368C1291.99 117.92 1294.17 126.416 1294.17 135.856C1294.17 145.178 1292.05 153.674 1287.8 161.344C1283.55 169.014 1277.77 175.091 1270.45 179.575C1263.14 183.941 1254.82 186.124 1245.5 186.124ZM1242.84 164.884C1248.15 164.884 1252.87 163.645 1257 161.167C1261.13 158.689 1264.32 155.267 1266.56 150.901C1268.92 146.535 1270.1 141.52 1270.1 135.856C1270.1 130.192 1268.92 125.236 1266.56 120.988C1264.32 116.622 1261.13 113.2 1257 110.722C1252.87 108.126 1248.15 106.828 1242.84 106.828C1237.77 106.828 1233.17 108.067 1229.04 110.545C1225.02 113.023 1221.84 116.504 1219.48 120.988C1217.24 125.354 1216.12 130.31 1216.12 135.856C1216.12 141.52 1217.24 146.535 1219.48 150.901C1221.84 155.267 1225.02 158.689 1229.04 161.167C1233.17 163.645 1237.77 164.884 1242.84 164.884ZM1348.49 186.124C1338.22 186.124 1329.26 183.705 1321.59 178.867C1314.03 173.911 1308.84 167.244 1306.01 158.866L1323.36 150.547C1325.83 155.975 1329.26 160.223 1333.62 163.291C1338.11 166.359 1343.06 167.893 1348.49 167.893C1352.74 167.893 1356.1 166.949 1358.58 165.061C1361.06 163.173 1362.3 160.695 1362.3 157.627C1362.3 155.739 1361.76 154.205 1360.7 153.025C1359.76 151.727 1358.4 150.665 1356.63 149.839C1354.98 148.895 1353.15 148.128 1351.14 147.538L1335.39 143.113C1327.25 140.753 1321.05 137.154 1316.81 132.316C1312.68 127.478 1310.61 121.755 1310.61 115.147C1310.61 109.247 1312.09 104.114 1315.04 99.748C1318.1 95.264 1322.29 91.783 1327.6 89.305C1333.03 86.827 1339.23 85.588 1346.19 85.588C1355.27 85.588 1363.3 87.771 1370.26 92.137C1377.22 96.503 1382.18 102.639 1385.13 110.545L1367.43 118.864C1365.78 114.498 1363 111.017 1359.11 108.421C1355.22 105.825 1350.85 104.527 1346.01 104.527C1342.12 104.527 1339.05 105.412 1336.81 107.182C1334.57 108.952 1333.44 111.253 1333.44 114.085C1333.44 115.855 1333.92 117.389 1334.86 118.687C1335.8 119.985 1337.1 121.047 1338.75 121.873C1340.52 122.699 1342.53 123.466 1344.77 124.174L1360.17 128.776C1368.08 131.136 1374.15 134.676 1378.4 139.396C1382.77 144.116 1384.95 149.898 1384.95 156.742C1384.95 162.524 1383.42 167.657 1380.35 172.141C1377.28 176.507 1373.03 179.929 1367.61 182.407C1362.18 184.885 1355.81 186.124 1348.49 186.124Z" fill="url(#paint0_linear_2027_1178)"/>
<line x1="56" y1="235" x2="1336" y2="235" stroke="url(#paint1_linear_2027_1178)" stroke-width="2"/>
<defs>
<linearGradient id="paint0_linear_2027_1178" x1="696" y1="69.0668" x2="696" y2="189.144" gradientUnits="userSpaceOnUse">
<stop stop-color="#C2DCFF"/>
<stop offset="1" stop-color="white"/>
</linearGradient>
<linearGradient id="paint1_linear_2027_1178" x1="56" y1="236.5" x2="1336" y2="236.5" gradientUnits="userSpaceOnUse">
<stop offset="0.139423" stop-color="#F3F7F8" stop-opacity="0"/>
<stop offset="0.5" stop-color="#93B3D8"/>
<stop offset="0.817308" stop-color="#F3F7F8" stop-opacity="0"/>
</linearGradient>
</defs>
</svg>
