<svg width="411" height="187" viewBox="0 0 411 187" fill="none" xmlns="http://www.w3.org/2000/svg">
<g clip-path="url(#clip0_2032_271)">
<rect x="133" width="278" height="187" rx="20" fill="url(#paint0_linear_2032_271)"/>
<path d="M156.707 25.156C156.005 25.156 155.351 25.0303 154.744 24.779C154.146 24.5277 153.617 24.1767 153.158 23.726C152.707 23.2753 152.352 22.7467 152.092 22.14C151.841 21.5333 151.715 20.8703 151.715 20.151C151.715 19.4317 151.841 18.7687 152.092 18.162C152.352 17.5467 152.707 17.018 153.158 16.576C153.609 16.1253 154.137 15.7787 154.744 15.536C155.351 15.2847 156.005 15.159 156.707 15.159C157.418 15.159 158.072 15.2847 158.67 15.536C159.277 15.7787 159.805 16.1253 160.256 16.576C160.715 17.0267 161.071 17.5553 161.322 18.162C161.573 18.7687 161.699 19.4317 161.699 20.151C161.699 20.8703 161.569 21.5333 161.309 22.14C161.058 22.7467 160.707 23.2753 160.256 23.726C159.805 24.1767 159.277 24.5277 158.67 24.779C158.063 25.0303 157.409 25.156 156.707 25.156ZM156.707 23.752C157.21 23.752 157.669 23.661 158.085 23.479C158.51 23.297 158.878 23.0457 159.19 22.725C159.502 22.3957 159.745 22.0143 159.918 21.581C160.091 21.139 160.178 20.6623 160.178 20.151C160.178 19.6397 160.091 19.1673 159.918 18.734C159.745 18.3007 159.502 17.9193 159.19 17.59C158.878 17.2607 158.51 17.005 158.085 16.823C157.669 16.641 157.21 16.55 156.707 16.55C156.204 16.55 155.741 16.641 155.316 16.823C154.9 17.005 154.536 17.2607 154.224 17.59C153.912 17.9193 153.669 18.3007 153.496 18.734C153.331 19.1673 153.249 19.6397 153.249 20.151C153.249 20.6623 153.331 21.139 153.496 21.581C153.669 22.0143 153.912 22.3957 154.224 22.725C154.536 23.0457 154.904 23.297 155.329 23.479C155.754 23.661 156.213 23.752 156.707 23.752ZM166.612 25.156C165.91 25.156 165.286 24.9957 164.74 24.675C164.203 24.3457 163.774 23.9037 163.453 23.349C163.141 22.7943 162.985 22.166 162.985 21.464C162.985 20.7707 163.141 20.1467 163.453 19.592C163.765 19.0373 164.194 18.604 164.74 18.292C165.286 17.9713 165.91 17.811 166.612 17.811C167.089 17.811 167.535 17.8977 167.951 18.071C168.367 18.2357 168.727 18.4653 169.03 18.76C169.342 19.0547 169.572 19.397 169.719 19.787L168.432 20.385C168.285 20.021 168.046 19.7307 167.717 19.514C167.396 19.2887 167.028 19.176 166.612 19.176C166.213 19.176 165.854 19.2757 165.533 19.475C165.221 19.6657 164.974 19.9387 164.792 20.294C164.61 20.6407 164.519 21.035 164.519 21.477C164.519 21.919 164.61 22.3177 164.792 22.673C164.974 23.0197 165.221 23.2927 165.533 23.492C165.854 23.6913 166.213 23.791 166.612 23.791C167.037 23.791 167.405 23.6827 167.717 23.466C168.038 23.2407 168.276 22.9417 168.432 22.569L169.719 23.18C169.58 23.5527 169.355 23.8907 169.043 24.194C168.74 24.4887 168.38 24.7227 167.964 24.896C167.548 25.0693 167.097 25.156 166.612 25.156ZM174.197 25.078C173.46 25.078 172.888 24.87 172.481 24.454C172.074 24.038 171.87 23.453 171.87 22.699V19.293H170.635V17.967H170.83C171.159 17.967 171.415 17.8717 171.597 17.681C171.779 17.4903 171.87 17.2303 171.87 16.901V16.355H173.339V17.967H174.938V19.293H173.339V22.634C173.339 22.8767 173.378 23.0847 173.456 23.258C173.534 23.4227 173.66 23.5527 173.833 23.648C174.006 23.7347 174.232 23.778 174.509 23.778C174.578 23.778 174.656 23.7737 174.743 23.765C174.83 23.7563 174.912 23.7477 174.99 23.739V25C174.869 25.0173 174.734 25.0347 174.587 25.052C174.44 25.0693 174.31 25.078 174.197 25.078ZM179.689 25.156C179.013 25.156 178.394 24.9957 177.83 24.675C177.276 24.3543 176.834 23.9167 176.504 23.362C176.175 22.8073 176.01 22.179 176.01 21.477C176.01 20.7663 176.175 20.138 176.504 19.592C176.834 19.0373 177.276 18.604 177.83 18.292C178.385 17.9713 179.005 17.811 179.689 17.811C180.383 17.811 181.002 17.9713 181.548 18.292C182.103 18.604 182.541 19.0373 182.861 19.592C183.191 20.138 183.355 20.7663 183.355 21.477C183.355 22.1877 183.191 22.8203 182.861 23.375C182.532 23.9297 182.09 24.3673 181.535 24.688C180.981 25 180.365 25.156 179.689 25.156ZM179.689 23.791C180.105 23.791 180.474 23.6913 180.794 23.492C181.115 23.2927 181.366 23.0197 181.548 22.673C181.739 22.3177 181.834 21.919 181.834 21.477C181.834 21.035 181.739 20.6407 181.548 20.294C181.366 19.9473 181.115 19.6743 180.794 19.475C180.474 19.2757 180.105 19.176 179.689 19.176C179.282 19.176 178.914 19.2757 178.584 19.475C178.264 19.6743 178.008 19.9473 177.817 20.294C177.635 20.6407 177.544 21.035 177.544 21.477C177.544 21.919 177.635 22.3177 177.817 22.673C178.008 23.0197 178.264 23.2927 178.584 23.492C178.914 23.6913 179.282 23.791 179.689 23.791ZM188.547 25.156C188.001 25.156 187.502 25.0433 187.052 24.818C186.61 24.5927 186.267 24.2677 186.025 23.843L186.194 23.57V25H184.79V15.159H186.259V19.423L186.025 19.085C186.285 18.6863 186.631 18.3743 187.065 18.149C187.498 17.9237 187.992 17.811 188.547 17.811C189.214 17.811 189.812 17.9713 190.341 18.292C190.878 18.6127 191.298 19.0503 191.602 19.605C191.914 20.1597 192.07 20.7837 192.07 21.477C192.07 22.1703 191.914 22.7943 191.602 23.349C191.298 23.9037 190.882 24.3457 190.354 24.675C189.825 24.9957 189.223 25.156 188.547 25.156ZM188.404 23.791C188.82 23.791 189.188 23.6913 189.509 23.492C189.829 23.2927 190.081 23.0197 190.263 22.673C190.453 22.3177 190.549 21.919 190.549 21.477C190.549 21.035 190.453 20.6407 190.263 20.294C190.081 19.9473 189.829 19.6743 189.509 19.475C189.188 19.2757 188.82 19.176 188.404 19.176C187.996 19.176 187.628 19.2757 187.299 19.475C186.978 19.6743 186.722 19.9473 186.532 20.294C186.35 20.6407 186.259 21.035 186.259 21.477C186.259 21.919 186.35 22.3177 186.532 22.673C186.722 23.0197 186.978 23.2927 187.299 23.492C187.628 23.6913 187.996 23.791 188.404 23.791ZM196.801 25.156C196.099 25.156 195.475 24.9957 194.929 24.675C194.391 24.3457 193.971 23.9037 193.668 23.349C193.364 22.7857 193.213 22.1573 193.213 21.464C193.213 20.7533 193.364 20.125 193.668 19.579C193.98 19.033 194.396 18.604 194.916 18.292C195.436 17.9713 196.025 17.811 196.684 17.811C197.212 17.811 197.685 17.902 198.101 18.084C198.517 18.266 198.868 18.5173 199.154 18.838C199.44 19.15 199.656 19.5097 199.804 19.917C199.96 20.3243 200.038 20.7577 200.038 21.217C200.038 21.3297 200.033 21.4467 200.025 21.568C200.016 21.6893 199.999 21.802 199.973 21.906H194.37V20.736H199.141L198.439 21.269C198.525 20.8443 198.495 20.4673 198.348 20.138C198.209 19.8 197.992 19.5357 197.698 19.345C197.412 19.1457 197.074 19.046 196.684 19.046C196.294 19.046 195.947 19.1457 195.644 19.345C195.34 19.5357 195.106 19.813 194.942 20.177C194.777 20.5323 194.712 20.9657 194.747 21.477C194.703 21.9537 194.768 22.3697 194.942 22.725C195.124 23.0803 195.375 23.3577 195.696 23.557C196.025 23.7563 196.398 23.856 196.814 23.856C197.238 23.856 197.598 23.7607 197.893 23.57C198.196 23.3793 198.434 23.1323 198.608 22.829L199.804 23.414C199.665 23.7433 199.448 24.0423 199.154 24.311C198.868 24.571 198.521 24.779 198.114 24.935C197.715 25.0823 197.277 25.156 196.801 25.156ZM201.471 25V17.967H202.875V19.384L202.745 19.176C202.901 18.7167 203.153 18.3873 203.499 18.188C203.846 17.98 204.262 17.876 204.747 17.876H205.176V19.215H204.565C204.08 19.215 203.686 19.3667 203.382 19.67C203.088 19.9647 202.94 20.3893 202.94 20.944V25H201.471Z" fill="#4B4B4B"/>
<path d="M210.57 25V24.116L213.248 21.217C213.777 20.6537 214.197 20.19 214.509 19.826C214.83 19.462 215.064 19.137 215.211 18.851C215.358 18.565 215.432 18.2617 215.432 17.941C215.432 17.4123 215.276 17.005 214.964 16.719C214.652 16.433 214.24 16.29 213.729 16.29C213.209 16.29 212.767 16.4417 212.403 16.745C212.039 17.0397 211.788 17.46 211.649 18.006L210.492 17.707C210.605 17.187 210.813 16.7363 211.116 16.355C211.419 15.9737 211.796 15.679 212.247 15.471C212.698 15.263 213.192 15.159 213.729 15.159C214.318 15.159 214.834 15.276 215.276 15.51C215.727 15.7353 216.078 16.0517 216.329 16.459C216.589 16.8663 216.719 17.3387 216.719 17.876C216.719 18.2313 216.645 18.578 216.498 18.916C216.351 19.254 216.134 19.6137 215.848 19.995C215.562 20.3677 215.189 20.801 214.73 21.295L212.338 23.895H216.927V25H210.57ZM222.369 25.156C221.598 25.156 220.922 24.948 220.341 24.532C219.769 24.1073 219.323 23.5223 219.002 22.777C218.682 22.023 218.521 21.1477 218.521 20.151C218.521 19.1543 218.682 18.2833 219.002 17.538C219.323 16.784 219.769 16.199 220.341 15.783C220.913 15.367 221.585 15.159 222.356 15.159C223.128 15.159 223.799 15.367 224.371 15.783C224.943 16.199 225.39 16.784 225.71 17.538C226.04 18.2833 226.204 19.1543 226.204 20.151C226.204 21.1477 226.044 22.023 225.723 22.777C225.403 23.531 224.952 24.116 224.371 24.532C223.799 24.948 223.132 25.156 222.369 25.156ZM222.369 23.973C222.889 23.973 223.34 23.817 223.721 23.505C224.103 23.1843 224.397 22.738 224.605 22.166C224.822 21.594 224.93 20.9223 224.93 20.151C224.93 19.3797 224.822 18.708 224.605 18.136C224.397 17.564 224.098 17.122 223.708 16.81C223.327 16.498 222.876 16.342 222.356 16.342C221.836 16.342 221.386 16.498 221.004 16.81C220.623 17.122 220.324 17.564 220.107 18.136C219.899 18.708 219.795 19.3797 219.795 20.151C219.795 20.9137 219.899 21.581 220.107 22.153C220.324 22.725 220.623 23.1713 221.004 23.492C221.394 23.8127 221.849 23.973 222.369 23.973ZM227.76 25V24.116L230.438 21.217C230.966 20.6537 231.387 20.19 231.699 19.826C232.019 19.462 232.253 19.137 232.401 18.851C232.548 18.565 232.622 18.2617 232.622 17.941C232.622 17.4123 232.466 17.005 232.154 16.719C231.842 16.433 231.43 16.29 230.919 16.29C230.399 16.29 229.957 16.4417 229.593 16.745C229.229 17.0397 228.977 17.46 228.839 18.006L227.682 17.707C227.794 17.187 228.002 16.7363 228.306 16.355C228.609 15.9737 228.986 15.679 229.437 15.471C229.887 15.263 230.381 15.159 230.919 15.159C231.508 15.159 232.024 15.276 232.466 15.51C232.916 15.7353 233.267 16.0517 233.519 16.459C233.779 16.8663 233.909 17.3387 233.909 17.876C233.909 18.2313 233.835 18.578 233.688 18.916C233.54 19.254 233.324 19.6137 233.038 19.995C232.752 20.3677 232.379 20.801 231.92 21.295L229.528 23.895H234.117V25H227.76ZM238.74 25.156C238.237 25.156 237.765 25.0693 237.323 24.896C236.881 24.714 236.495 24.4583 236.166 24.129C235.845 23.791 235.611 23.3967 235.464 22.946L236.504 22.504C236.686 22.9807 236.981 23.3533 237.388 23.622C237.804 23.882 238.255 24.012 238.74 24.012C239.139 24.012 239.49 23.9253 239.793 23.752C240.105 23.57 240.348 23.323 240.521 23.011C240.694 22.6903 240.781 22.335 240.781 21.945C240.781 21.5377 240.69 21.178 240.508 20.866C240.335 20.554 240.096 20.3113 239.793 20.138C239.49 19.956 239.143 19.865 238.753 19.865C238.354 19.865 237.99 19.956 237.661 20.138C237.332 20.32 237.093 20.5497 236.946 20.827L235.919 20.606L236.66 15.315H241.678V16.42H237.141L237.635 15.926L237.063 20.034L236.621 19.774C236.907 19.41 237.241 19.15 237.622 18.994C238.012 18.8293 238.432 18.747 238.883 18.747C239.516 18.747 240.07 18.89 240.547 19.176C241.024 19.462 241.396 19.8433 241.665 20.32C241.934 20.7967 242.068 21.3383 242.068 21.945C242.068 22.5517 241.921 23.0977 241.626 23.583C241.34 24.0683 240.946 24.454 240.443 24.74C239.949 25.0173 239.381 25.156 238.74 25.156Z" fill="#8E8E8E"/>
<path d="M154.387 51.12C153.92 51.12 153.487 51.0333 153.087 50.86C152.687 50.68 152.347 50.4367 152.067 50.13C151.787 49.8233 151.58 49.47 151.447 49.07L152.447 48.65C152.627 49.11 152.89 49.4633 153.237 49.71C153.584 49.9567 153.984 50.08 154.437 50.08C154.704 50.08 154.937 50.04 155.137 49.96C155.337 49.8733 155.49 49.7533 155.597 49.6C155.71 49.4467 155.767 49.27 155.767 49.07C155.767 48.7967 155.69 48.58 155.537 48.42C155.384 48.26 155.157 48.1333 154.857 48.04L153.457 47.6C152.897 47.4267 152.47 47.1633 152.177 46.81C151.884 46.45 151.737 46.03 151.737 45.55C151.737 45.13 151.84 44.7633 152.047 44.45C152.254 44.13 152.537 43.88 152.897 43.7C153.264 43.52 153.68 43.43 154.147 43.43C154.594 43.43 155 43.51 155.367 43.67C155.734 43.8233 156.047 44.0367 156.307 44.31C156.574 44.5833 156.767 44.9 156.887 45.26L155.907 45.69C155.76 45.2967 155.53 44.9933 155.217 44.78C154.91 44.5667 154.554 44.46 154.147 44.46C153.9 44.46 153.684 44.5033 153.497 44.59C153.31 44.67 153.164 44.79 153.057 44.95C152.957 45.1033 152.907 45.2833 152.907 45.49C152.907 45.73 152.984 45.9433 153.137 46.13C153.29 46.3167 153.524 46.4567 153.837 46.55L155.137 46.96C155.73 47.14 156.177 47.4 156.477 47.74C156.777 48.0733 156.927 48.49 156.927 48.99C156.927 49.4033 156.817 49.77 156.597 50.09C156.384 50.41 156.087 50.6633 155.707 50.85C155.327 51.03 154.887 51.12 154.387 51.12ZM161.041 51.12C160.488 51.12 159.995 51.0033 159.561 50.77C159.135 50.5367 158.798 50.2167 158.551 49.81C158.311 49.4033 158.191 48.94 158.191 48.42V43.55H159.371V48.37C159.371 48.6967 159.441 48.9867 159.581 49.24C159.728 49.4933 159.925 49.69 160.171 49.83C160.425 49.97 160.715 50.04 161.041 50.04C161.375 50.04 161.665 49.97 161.911 49.83C162.165 49.69 162.361 49.4933 162.501 49.24C162.648 48.9867 162.721 48.6967 162.721 48.37V43.55H163.891V48.42C163.891 48.94 163.771 49.4033 163.531 49.81C163.291 50.2167 162.955 50.5367 162.521 50.77C162.095 51.0033 161.601 51.12 161.041 51.12ZM165.371 51V43.55H166.321L170.501 49.32L170.051 49.39V43.55H171.221V51H170.271L166.121 45.19L166.551 45.11V51H165.371Z" fill="#AAAAAA"/>
<path d="M187.814 51V43.55H188.914L191.714 47.43H191.164L193.914 43.55H195.014V51H193.844V44.94L194.284 45.06L191.474 48.9H191.354L188.604 45.06L188.994 44.94V51H187.814ZM200.174 51.12C199.634 51.12 199.131 51.0233 198.664 50.83C198.204 50.6367 197.798 50.3667 197.444 50.02C197.098 49.6733 196.824 49.2667 196.624 48.8C196.431 48.3333 196.334 47.8233 196.334 47.27C196.334 46.7167 196.431 46.2067 196.624 45.74C196.824 45.2667 197.098 44.86 197.444 44.52C197.791 44.1733 198.198 43.9067 198.664 43.72C199.131 43.5267 199.634 43.43 200.174 43.43C200.721 43.43 201.224 43.5267 201.684 43.72C202.151 43.9067 202.558 44.1733 202.904 44.52C203.258 44.8667 203.531 45.2733 203.724 45.74C203.918 46.2067 204.014 46.7167 204.014 47.27C204.014 47.8233 203.914 48.3333 203.714 48.8C203.521 49.2667 203.251 49.6733 202.904 50.02C202.558 50.3667 202.151 50.6367 201.684 50.83C201.218 51.0233 200.714 51.12 200.174 51.12ZM200.174 50.04C200.561 50.04 200.914 49.97 201.234 49.83C201.561 49.69 201.844 49.4967 202.084 49.25C202.324 48.9967 202.511 48.7033 202.644 48.37C202.778 48.03 202.844 47.6633 202.844 47.27C202.844 46.8767 202.778 46.5133 202.644 46.18C202.511 45.8467 202.324 45.5533 202.084 45.3C201.844 45.0467 201.561 44.85 201.234 44.71C200.914 44.57 200.561 44.5 200.174 44.5C199.788 44.5 199.431 44.57 199.104 44.71C198.784 44.85 198.504 45.0467 198.264 45.3C198.024 45.5533 197.838 45.8467 197.704 46.18C197.578 46.5133 197.514 46.8767 197.514 47.27C197.514 47.6633 197.578 48.03 197.704 48.37C197.838 48.7033 198.024 48.9967 198.264 49.25C198.504 49.4967 198.788 49.69 199.114 49.83C199.441 49.97 199.794 50.04 200.174 50.04ZM205.333 51V43.55H206.283L210.463 49.32L210.013 49.39V43.55H211.183V51H210.233L206.083 45.19L206.513 45.11V51H205.333Z" fill="#AAAAAA"/>
<path d="M229.366 51V44.6H227.386V43.55H232.486V44.6H230.536V51H229.366ZM236.159 51.12C235.605 51.12 235.112 51.0033 234.679 50.77C234.252 50.5367 233.915 50.2167 233.669 49.81C233.429 49.4033 233.309 48.94 233.309 48.42V43.55H234.489V48.37C234.489 48.6967 234.559 48.9867 234.699 49.24C234.845 49.4933 235.042 49.69 235.289 49.83C235.542 49.97 235.832 50.04 236.159 50.04C236.492 50.04 236.782 49.97 237.029 49.83C237.282 49.69 237.479 49.4933 237.619 49.24C237.765 48.9867 237.839 48.6967 237.839 48.37V43.55H239.009V48.42C239.009 48.94 238.889 49.4033 238.649 49.81C238.409 50.2167 238.072 50.5367 237.639 50.77C237.212 51.0033 236.719 51.12 236.159 51.12ZM240.488 51V43.55H245.398V44.6H241.668V46.74H245.198V47.79H241.668V49.95H245.398V51H240.488Z" fill="#AAAAAA"/>
<path d="M263.412 51L261.362 43.55H262.612L264.272 50H263.962L265.682 43.55H266.912L268.632 50H268.312L269.982 43.55H271.222L269.182 51H267.852L266.122 44.65H266.472L264.732 51H263.412ZM272.1 51V43.55H277.01V44.6H273.28V46.74H276.81V47.79H273.28V49.95H277.01V51H272.1ZM278.106 51V43.55H280.546C281.319 43.55 281.989 43.7067 282.556 44.02C283.129 44.3267 283.573 44.76 283.886 45.32C284.199 45.88 284.356 46.53 284.356 47.27C284.356 48.0033 284.199 48.6533 283.886 49.22C283.573 49.78 283.129 50.2167 282.556 50.53C281.989 50.8433 281.319 51 280.546 51H278.106ZM279.286 49.95H280.566C281.093 49.95 281.549 49.84 281.936 49.62C282.329 49.4 282.633 49.09 282.846 48.69C283.059 48.29 283.166 47.8167 283.166 47.27C283.166 46.7233 283.056 46.2533 282.836 45.86C282.623 45.46 282.323 45.15 281.936 44.93C281.549 44.71 281.093 44.6 280.566 44.6H279.286V49.95Z" fill="#AAAAAA"/>
<path d="M302.197 51V44.6H300.217V43.55H305.317V44.6H303.367V51H302.197ZM306.2 51V43.55H307.38V46.83H310.83V43.55H312V51H310.83V47.88H307.38V51H306.2ZM316.333 51.12C315.78 51.12 315.287 51.0033 314.853 50.77C314.427 50.5367 314.09 50.2167 313.843 49.81C313.603 49.4033 313.483 48.94 313.483 48.42V43.55H314.663V48.37C314.663 48.6967 314.733 48.9867 314.873 49.24C315.02 49.4933 315.217 49.69 315.463 49.83C315.717 49.97 316.007 50.04 316.333 50.04C316.667 50.04 316.957 49.97 317.203 49.83C317.457 49.69 317.653 49.4933 317.793 49.24C317.94 48.9867 318.013 48.6967 318.013 48.37V43.55H319.183V48.42C319.183 48.94 319.063 49.4033 318.823 49.81C318.583 50.2167 318.247 50.5367 317.813 50.77C317.387 51.0033 316.893 51.12 316.333 51.12Z" fill="#AAAAAA"/>
<path d="M340.216 51V43.55H345.066V44.6H341.396V46.84H344.666V47.89H341.396V51H340.216ZM346.056 51V43.55H348.766C349.266 43.55 349.706 43.6433 350.086 43.83C350.466 44.01 350.763 44.2767 350.976 44.63C351.196 44.9767 351.306 45.3933 351.306 45.88C351.306 46.3933 351.176 46.8333 350.916 47.2C350.663 47.5667 350.319 47.8333 349.886 48L351.606 51H350.266L348.436 47.75L349.206 48.2H347.236V51H346.056ZM347.236 47.15H348.786C349.059 47.15 349.296 47.0967 349.496 46.99C349.696 46.8833 349.849 46.7367 349.956 46.55C350.069 46.3567 350.126 46.13 350.126 45.87C350.126 45.61 350.069 45.3867 349.956 45.2C349.849 45.0067 349.696 44.86 349.496 44.76C349.296 44.6533 349.059 44.6 348.786 44.6H347.236V47.15ZM352.599 51V43.55H353.779V51H352.599Z" fill="#AAAAAA"/>
<path d="M375.293 51.12C374.826 51.12 374.393 51.0333 373.993 50.86C373.593 50.68 373.253 50.4367 372.973 50.13C372.693 49.8233 372.486 49.47 372.353 49.07L373.353 48.65C373.533 49.11 373.796 49.4633 374.143 49.71C374.49 49.9567 374.89 50.08 375.343 50.08C375.61 50.08 375.843 50.04 376.043 49.96C376.243 49.8733 376.396 49.7533 376.503 49.6C376.616 49.4467 376.673 49.27 376.673 49.07C376.673 48.7967 376.596 48.58 376.443 48.42C376.29 48.26 376.063 48.1333 375.763 48.04L374.363 47.6C373.803 47.4267 373.376 47.1633 373.083 46.81C372.79 46.45 372.643 46.03 372.643 45.55C372.643 45.13 372.746 44.7633 372.953 44.45C373.16 44.13 373.443 43.88 373.803 43.7C374.17 43.52 374.586 43.43 375.053 43.43C375.5 43.43 375.906 43.51 376.273 43.67C376.64 43.8233 376.953 44.0367 377.213 44.31C377.48 44.5833 377.673 44.9 377.793 45.26L376.813 45.69C376.666 45.2967 376.436 44.9933 376.123 44.78C375.816 44.5667 375.46 44.46 375.053 44.46C374.806 44.46 374.59 44.5033 374.403 44.59C374.216 44.67 374.07 44.79 373.963 44.95C373.863 45.1033 373.813 45.2833 373.813 45.49C373.813 45.73 373.89 45.9433 374.043 46.13C374.196 46.3167 374.43 46.4567 374.743 46.55L376.043 46.96C376.636 47.14 377.083 47.4 377.383 47.74C377.683 48.0733 377.833 48.49 377.833 48.99C377.833 49.4033 377.723 49.77 377.503 50.09C377.29 50.41 376.993 50.6633 376.613 50.85C376.233 51.03 375.793 51.12 375.293 51.12ZM378.449 51L381.069 43.55H382.529L385.149 51H383.889L383.319 49.33H380.289L379.709 51H378.449ZM380.629 48.28H382.959L381.639 44.38H381.969L380.629 48.28ZM386.855 51V44.6H384.875V43.55H389.975V44.6H388.025V51H386.855Z" fill="#AAAAAA"/>
<g clip-path="url(#clip1_2032_271)">
<rect x="182" y="66" width="34" height="31" rx="6" fill="url(#paint1_linear_2032_271)" fill-opacity="0.5"/>
<path d="M198.332 88V79.42H196.499V78.315H199.619V88H198.332Z" fill="#C9C9C9"/>
</g>
<rect x="144" y="101" width="34" height="31" rx="6" fill="#EFEFEF"/>
<path d="M158.44 122L162.691 113.42H157.946V112.315H164.03V113.42L159.818 122H158.44Z" fill="#C9C9C9"/>
<rect x="144" y="136" width="34" height="31" rx="6" fill="url(#paint2_linear_2032_271)" fill-opacity="0.5"/>
<path d="M156.687 157V148.42H154.854V147.315H157.974V157H156.687ZM164.654 157V154.764H159.896V153.711L164.628 147.315H165.85V153.711H167.111V154.764H165.85V157H164.654ZM160.858 154.166L160.676 153.711H164.654V148.381L165.031 148.485L160.858 154.166Z" fill="#C9C9C9"/>
<rect x="219" y="136" width="34" height="31" rx="6" fill="url(#paint3_linear_2032_271)" fill-opacity="0.5"/>
<path d="M232.504 157V148.42H230.671V147.315H233.791V157H232.504ZM238.94 157.156C238.316 157.156 237.762 157.017 237.276 156.74C236.8 156.463 236.423 156.086 236.145 155.609C235.868 155.124 235.729 154.573 235.729 153.958C235.729 153.62 235.768 153.286 235.846 152.957C235.924 152.628 236.05 152.294 236.223 151.956C236.397 151.618 236.618 151.267 236.886 150.903L239.616 147.315H241.15L237.809 151.657L237.575 151.631C237.705 151.458 237.848 151.323 238.004 151.228C238.169 151.133 238.342 151.063 238.524 151.02C238.715 150.977 238.914 150.955 239.122 150.955C239.694 150.955 240.206 151.089 240.656 151.358C241.116 151.618 241.475 151.978 241.735 152.437C242.004 152.896 242.138 153.425 242.138 154.023C242.138 154.621 242 155.158 241.722 155.635C241.445 156.103 241.064 156.476 240.578 156.753C240.102 157.022 239.556 157.156 238.94 157.156ZM238.94 156.012C239.304 156.012 239.629 155.93 239.915 155.765C240.201 155.592 240.427 155.353 240.591 155.05C240.765 154.747 240.851 154.409 240.851 154.036C240.851 153.646 240.769 153.308 240.604 153.022C240.44 152.727 240.214 152.493 239.928 152.32C239.642 152.147 239.313 152.06 238.94 152.06C238.576 152.06 238.247 152.147 237.952 152.32C237.658 152.493 237.428 152.727 237.263 153.022C237.099 153.308 237.016 153.646 237.016 154.036C237.016 154.409 237.099 154.747 237.263 155.05C237.437 155.353 237.666 155.592 237.952 155.765C238.247 155.93 238.576 156.012 238.94 156.012Z" fill="#C9C9C9"/>
<rect x="182" y="136" width="34" height="31" rx="6" fill="url(#paint4_linear_2032_271)" fill-opacity="0.5"/>
<path d="M195.327 157V148.42H193.494V147.315H196.614V157H195.327ZM201.877 157.156C201.374 157.156 200.902 157.069 200.46 156.896C200.018 156.714 199.632 156.458 199.303 156.129C198.982 155.791 198.748 155.397 198.601 154.946L199.641 154.504C199.823 154.981 200.117 155.353 200.525 155.622C200.941 155.882 201.391 156.012 201.877 156.012C202.275 156.012 202.626 155.925 202.93 155.752C203.242 155.57 203.484 155.323 203.658 155.011C203.831 154.69 203.918 154.335 203.918 153.945C203.918 153.538 203.827 153.178 203.645 152.866C203.471 152.554 203.233 152.311 202.93 152.138C202.626 151.956 202.28 151.865 201.89 151.865C201.491 151.865 201.127 151.956 200.798 152.138C200.468 152.32 200.23 152.55 200.083 152.827L199.056 152.606L199.797 147.315H204.815V148.42H200.278L200.772 147.926L200.2 152.034L199.758 151.774C200.044 151.41 200.377 151.15 200.759 150.994C201.149 150.829 201.569 150.747 202.02 150.747C202.652 150.747 203.207 150.89 203.684 151.176C204.16 151.462 204.533 151.843 204.802 152.32C205.07 152.797 205.205 153.338 205.205 153.945C205.205 154.552 205.057 155.098 204.763 155.583C204.477 156.068 204.082 156.454 203.58 156.74C203.086 157.017 202.518 157.156 201.877 157.156Z" fill="#C9C9C9"/>
<rect x="256" y="136" width="34" height="31" rx="6" fill="url(#paint5_linear_2032_271)" fill-opacity="0.5"/>
<path d="M269.771 157V148.42H267.938V147.315H271.058V157H269.771ZM273.422 157L277.673 148.42H272.928V147.315H279.012V148.42L274.8 157H273.422Z" fill="#C9C9C9"/>
<rect x="293" y="136" width="34" height="31" rx="6" fill="url(#paint6_linear_2032_271)" fill-opacity="0.5"/>
<path d="M305.744 157V148.42H303.911V147.315H307.031V157H305.744ZM312.489 157.156C311.839 157.156 311.263 157.026 310.76 156.766C310.266 156.506 309.876 156.155 309.59 155.713C309.313 155.262 309.174 154.76 309.174 154.205C309.174 153.581 309.347 153.035 309.694 152.567C310.041 152.099 310.517 151.765 311.124 151.566L311.098 151.891C310.639 151.709 310.279 151.419 310.019 151.02C309.768 150.613 309.642 150.175 309.642 149.707C309.642 149.213 309.763 148.775 310.006 148.394C310.257 148.013 310.595 147.714 311.02 147.497C311.453 147.272 311.943 147.159 312.489 147.159C313.035 147.159 313.52 147.267 313.945 147.484C314.37 147.701 314.703 148.004 314.946 148.394C315.197 148.775 315.323 149.213 315.323 149.707C315.323 150.201 315.189 150.643 314.92 151.033C314.66 151.423 314.313 151.713 313.88 151.904L313.841 151.566C314.456 151.765 314.937 152.103 315.284 152.58C315.631 153.048 315.804 153.59 315.804 154.205C315.804 154.76 315.661 155.262 315.375 155.713C315.098 156.155 314.708 156.506 314.205 156.766C313.711 157.026 313.139 157.156 312.489 157.156ZM312.489 156.051C312.896 156.051 313.252 155.973 313.555 155.817C313.858 155.661 314.092 155.444 314.257 155.167C314.43 154.881 314.517 154.556 314.517 154.192C314.517 153.819 314.43 153.494 314.257 153.217C314.092 152.931 313.858 152.714 313.555 152.567C313.252 152.411 312.896 152.333 312.489 152.333C312.082 152.333 311.722 152.411 311.41 152.567C311.107 152.714 310.873 152.931 310.708 153.217C310.543 153.494 310.461 153.819 310.461 154.192C310.461 154.556 310.543 154.881 310.708 155.167C310.873 155.444 311.107 155.661 311.41 155.817C311.722 155.973 312.082 156.051 312.489 156.051ZM312.489 151.228C312.784 151.228 313.044 151.163 313.269 151.033C313.503 150.903 313.689 150.73 313.828 150.513C313.967 150.288 314.036 150.028 314.036 149.733C314.036 149.438 313.967 149.183 313.828 148.966C313.689 148.749 313.503 148.58 313.269 148.459C313.044 148.329 312.784 148.264 312.489 148.264C312.186 148.264 311.917 148.329 311.683 148.459C311.449 148.58 311.263 148.749 311.124 148.966C310.985 149.183 310.916 149.438 310.916 149.733C310.916 150.028 310.985 150.288 311.124 150.513C311.263 150.73 311.449 150.903 311.683 151.033C311.917 151.163 312.186 151.228 312.489 151.228Z" fill="#C9C9C9"/>
<rect x="330" y="136" width="34" height="31" rx="6" fill="url(#paint7_linear_2032_271)" fill-opacity="0.5"/>
<path d="M343.441 157V148.42H341.608V147.315H344.728V157H343.441ZM347.755 157L351.096 152.645L351.33 152.671C351.2 152.844 351.057 152.983 350.901 153.087C350.745 153.182 350.571 153.252 350.381 153.295C350.199 153.338 349.999 153.36 349.783 153.36C349.211 153.36 348.695 153.23 348.236 152.97C347.785 152.701 347.425 152.337 347.157 151.878C346.897 151.41 346.767 150.877 346.767 150.279C346.767 149.681 346.905 149.148 347.183 148.68C347.46 148.212 347.841 147.844 348.327 147.575C348.812 147.298 349.358 147.159 349.965 147.159C350.589 147.159 351.139 147.298 351.616 147.575C352.101 147.844 352.482 148.221 352.76 148.706C353.037 149.183 353.176 149.733 353.176 150.357C353.176 150.695 353.137 151.029 353.059 151.358C352.981 151.687 352.855 152.021 352.682 152.359C352.517 152.697 352.296 153.048 352.019 153.412L349.289 157H347.755ZM349.965 152.242C350.337 152.242 350.667 152.16 350.953 151.995C351.247 151.822 351.477 151.588 351.642 151.293C351.806 150.99 351.889 150.652 351.889 150.279C351.889 149.889 351.802 149.547 351.629 149.252C351.464 148.957 351.239 148.723 350.953 148.55C350.667 148.377 350.337 148.29 349.965 148.29C349.601 148.29 349.276 148.377 348.99 148.55C348.704 148.723 348.474 148.957 348.301 149.252C348.136 149.547 348.054 149.889 348.054 150.279C348.054 150.652 348.136 150.99 348.301 151.293C348.465 151.588 348.691 151.822 348.977 151.995C349.271 152.16 349.601 152.242 349.965 152.242Z" fill="#C9C9C9"/>
<rect x="367" y="136" width="34" height="31" rx="6" fill="url(#paint8_linear_2032_271)" fill-opacity="0.5"/>
<path d="M376.107 157V156.116L378.785 153.217C379.314 152.654 379.734 152.19 380.046 151.826C380.367 151.462 380.601 151.137 380.748 150.851C380.896 150.565 380.969 150.262 380.969 149.941C380.969 149.412 380.813 149.005 380.501 148.719C380.189 148.433 379.778 148.29 379.266 148.29C378.746 148.29 378.304 148.442 377.94 148.745C377.576 149.04 377.325 149.46 377.186 150.006L376.029 149.707C376.142 149.187 376.35 148.736 376.653 148.355C376.957 147.974 377.334 147.679 377.784 147.471C378.235 147.263 378.729 147.159 379.266 147.159C379.856 147.159 380.371 147.276 380.813 147.51C381.264 147.735 381.615 148.052 381.866 148.459C382.126 148.866 382.256 149.339 382.256 149.876C382.256 150.231 382.183 150.578 382.035 150.916C381.888 151.254 381.671 151.614 381.385 151.995C381.099 152.368 380.727 152.801 380.267 153.295L377.875 155.895H382.464V157H376.107ZM387.907 157.156C387.135 157.156 386.459 156.948 385.879 156.532C385.307 156.107 384.86 155.522 384.54 154.777C384.219 154.023 384.059 153.148 384.059 152.151C384.059 151.154 384.219 150.283 384.54 149.538C384.86 148.784 385.307 148.199 385.879 147.783C386.451 147.367 387.122 147.159 387.894 147.159C388.665 147.159 389.337 147.367 389.909 147.783C390.481 148.199 390.927 148.784 391.248 149.538C391.577 150.283 391.742 151.154 391.742 152.151C391.742 153.148 391.581 154.023 391.261 154.777C390.94 155.531 390.489 156.116 389.909 156.532C389.337 156.948 388.669 157.156 387.907 157.156ZM387.907 155.973C388.427 155.973 388.877 155.817 389.259 155.505C389.64 155.184 389.935 154.738 390.143 154.166C390.359 153.594 390.468 152.922 390.468 152.151C390.468 151.38 390.359 150.708 390.143 150.136C389.935 149.564 389.636 149.122 389.246 148.81C388.864 148.498 388.414 148.342 387.894 148.342C387.374 148.342 386.923 148.498 386.542 148.81C386.16 149.122 385.861 149.564 385.645 150.136C385.437 150.708 385.333 151.38 385.333 152.151C385.333 152.914 385.437 153.581 385.645 154.153C385.861 154.725 386.16 155.171 386.542 155.492C386.932 155.813 387.387 155.973 387.907 155.973Z" fill="#C9C9C9"/>
<rect x="219" y="101" width="34" height="31" rx="6" fill="#EFEFEF"/>
<path d="M233.773 122L237.114 117.645L237.348 117.671C237.218 117.844 237.075 117.983 236.919 118.087C236.763 118.182 236.59 118.252 236.399 118.295C236.217 118.338 236.018 118.36 235.801 118.36C235.229 118.36 234.713 118.23 234.254 117.97C233.803 117.701 233.444 117.337 233.175 116.878C232.915 116.41 232.785 115.877 232.785 115.279C232.785 114.681 232.924 114.148 233.201 113.68C233.478 113.212 233.86 112.844 234.345 112.575C234.83 112.298 235.376 112.159 235.983 112.159C236.607 112.159 237.157 112.298 237.634 112.575C238.119 112.844 238.501 113.221 238.778 113.706C239.055 114.183 239.194 114.733 239.194 115.357C239.194 115.695 239.155 116.029 239.077 116.358C238.999 116.687 238.873 117.021 238.7 117.359C238.535 117.697 238.314 118.048 238.037 118.412L235.307 122H233.773ZM235.983 117.242C236.356 117.242 236.685 117.16 236.971 116.995C237.266 116.822 237.495 116.588 237.66 116.293C237.825 115.99 237.907 115.652 237.907 115.279C237.907 114.889 237.82 114.547 237.647 114.252C237.482 113.957 237.257 113.723 236.971 113.55C236.685 113.377 236.356 113.29 235.983 113.29C235.619 113.29 235.294 113.377 235.008 113.55C234.722 113.723 234.492 113.957 234.319 114.252C234.154 114.547 234.072 114.889 234.072 115.279C234.072 115.652 234.154 115.99 234.319 116.293C234.484 116.588 234.709 116.822 234.995 116.995C235.29 117.16 235.619 117.242 235.983 117.242Z" fill="#C9C9C9"/>
<rect x="182" y="101" width="34" height="31" rx="6" fill="#EFEFEF"/>
<path d="M199.507 122.156C198.857 122.156 198.281 122.026 197.778 121.766C197.284 121.506 196.894 121.155 196.608 120.713C196.331 120.262 196.192 119.76 196.192 119.205C196.192 118.581 196.365 118.035 196.712 117.567C197.059 117.099 197.535 116.765 198.142 116.566L198.116 116.891C197.657 116.709 197.297 116.419 197.037 116.02C196.786 115.613 196.66 115.175 196.66 114.707C196.66 114.213 196.781 113.775 197.024 113.394C197.275 113.013 197.613 112.714 198.038 112.497C198.471 112.272 198.961 112.159 199.507 112.159C200.053 112.159 200.538 112.267 200.963 112.484C201.388 112.701 201.721 113.004 201.964 113.394C202.215 113.775 202.341 114.213 202.341 114.707C202.341 115.201 202.207 115.643 201.938 116.033C201.678 116.423 201.331 116.713 200.898 116.904L200.859 116.566C201.474 116.765 201.955 117.103 202.302 117.58C202.649 118.048 202.822 118.59 202.822 119.205C202.822 119.76 202.679 120.262 202.393 120.713C202.116 121.155 201.726 121.506 201.223 121.766C200.729 122.026 200.157 122.156 199.507 122.156ZM199.507 121.051C199.914 121.051 200.27 120.973 200.573 120.817C200.876 120.661 201.11 120.444 201.275 120.167C201.448 119.881 201.535 119.556 201.535 119.192C201.535 118.819 201.448 118.494 201.275 118.217C201.11 117.931 200.876 117.714 200.573 117.567C200.27 117.411 199.914 117.333 199.507 117.333C199.1 117.333 198.74 117.411 198.428 117.567C198.125 117.714 197.891 117.931 197.726 118.217C197.561 118.494 197.479 118.819 197.479 119.192C197.479 119.556 197.561 119.881 197.726 120.167C197.891 120.444 198.125 120.661 198.428 120.817C198.74 120.973 199.1 121.051 199.507 121.051ZM199.507 116.228C199.802 116.228 200.062 116.163 200.287 116.033C200.521 115.903 200.707 115.73 200.846 115.513C200.985 115.288 201.054 115.028 201.054 114.733C201.054 114.438 200.985 114.183 200.846 113.966C200.707 113.749 200.521 113.58 200.287 113.459C200.062 113.329 199.802 113.264 199.507 113.264C199.204 113.264 198.935 113.329 198.701 113.459C198.467 113.58 198.281 113.749 198.142 113.966C198.003 114.183 197.934 114.438 197.934 114.733C197.934 115.028 198.003 115.288 198.142 115.513C198.281 115.73 198.467 115.903 198.701 116.033C198.935 116.163 199.204 116.228 199.507 116.228Z" fill="#C9C9C9"/>
<rect x="256" y="101" width="34" height="31" rx="6" fill="#EFEFEF"/>
<path d="M268.628 122V113.42H266.795V112.315H269.915V122H268.628ZM275.997 122.156C275.226 122.156 274.55 121.948 273.969 121.532C273.397 121.107 272.951 120.522 272.63 119.777C272.31 119.023 272.149 118.148 272.149 117.151C272.149 116.154 272.31 115.283 272.63 114.538C272.951 113.784 273.397 113.199 273.969 112.783C274.541 112.367 275.213 112.159 275.984 112.159C276.756 112.159 277.427 112.367 277.999 112.783C278.571 113.199 279.018 113.784 279.338 114.538C279.668 115.283 279.832 116.154 279.832 117.151C279.832 118.148 279.672 119.023 279.351 119.777C279.031 120.531 278.58 121.116 277.999 121.532C277.427 121.948 276.76 122.156 275.997 122.156ZM275.997 120.973C276.517 120.973 276.968 120.817 277.349 120.505C277.731 120.184 278.025 119.738 278.233 119.166C278.45 118.594 278.558 117.922 278.558 117.151C278.558 116.38 278.45 115.708 278.233 115.136C278.025 114.564 277.726 114.122 277.336 113.81C276.955 113.498 276.504 113.342 275.984 113.342C275.464 113.342 275.014 113.498 274.632 113.81C274.251 114.122 273.952 114.564 273.735 115.136C273.527 115.708 273.423 116.38 273.423 117.151C273.423 117.914 273.527 118.581 273.735 119.153C273.952 119.725 274.251 120.171 274.632 120.492C275.022 120.813 275.477 120.973 275.997 120.973Z" fill="#C9C9C9"/>
<g filter="url(#filter0_d_2032_271)">
<rect x="293" y="101" width="34" height="31" rx="6" fill="url(#paint9_linear_2032_271)"/>
<path d="M306.697 122V113.615H304.838V112.315H308.218V122H306.697ZM311.788 122V113.615H309.929V112.315H313.309V122H311.788Z" fill="white"/>
</g>
<rect x="330" y="101" width="34" height="31" rx="6" fill="#EFEFEF"/>
<path d="M343.441 122V113.42H341.608V112.315H344.728V122H343.441ZM346.793 122V121.116L349.471 118.217C349.999 117.654 350.42 117.19 350.732 116.826C351.052 116.462 351.286 116.137 351.434 115.851C351.581 115.565 351.655 115.262 351.655 114.941C351.655 114.412 351.499 114.005 351.187 113.719C350.875 113.433 350.463 113.29 349.952 113.29C349.432 113.29 348.99 113.442 348.626 113.745C348.262 114.04 348.01 114.46 347.872 115.006L346.715 114.707C346.827 114.187 347.035 113.736 347.339 113.355C347.642 112.974 348.019 112.679 348.47 112.471C348.92 112.263 349.414 112.159 349.952 112.159C350.541 112.159 351.057 112.276 351.499 112.51C351.949 112.735 352.3 113.052 352.552 113.459C352.812 113.866 352.942 114.339 352.942 114.876C352.942 115.231 352.868 115.578 352.721 115.916C352.573 116.254 352.357 116.614 352.071 116.995C351.785 117.368 351.412 117.801 350.953 118.295L348.561 120.895H353.15V122H346.793Z" fill="#C9C9C9"/>
<rect x="367" y="101" width="34" height="31" rx="6" fill="#EFEFEF"/>
<path d="M380.365 122V113.42H378.532V112.315H381.652V122H380.365ZM386.837 122.156C386.325 122.156 385.849 122.065 385.407 121.883C384.965 121.701 384.583 121.445 384.263 121.116C383.942 120.778 383.704 120.379 383.548 119.92L384.627 119.478C384.809 119.963 385.095 120.34 385.485 120.609C385.875 120.878 386.325 121.012 386.837 121.012C387.235 121.012 387.591 120.934 387.903 120.778C388.215 120.622 388.457 120.397 388.631 120.102C388.813 119.807 388.904 119.452 388.904 119.036C388.904 118.611 388.813 118.256 388.631 117.97C388.457 117.675 388.215 117.45 387.903 117.294C387.591 117.138 387.231 117.06 386.824 117.06C386.694 117.06 386.551 117.069 386.395 117.086C386.247 117.103 386.122 117.129 386.018 117.164L385.745 116.579L388.332 113.42H384.042V112.315H389.775V113.381L387.305 116.423L387.227 116.085C387.807 116.102 388.319 116.237 388.761 116.488C389.203 116.739 389.549 117.082 389.801 117.515C390.052 117.94 390.178 118.438 390.178 119.01C390.178 119.599 390.035 120.132 389.749 120.609C389.463 121.086 389.068 121.463 388.566 121.74C388.063 122.017 387.487 122.156 386.837 122.156Z" fill="#C9C9C9"/>
<rect x="219" y="66" width="34" height="31" rx="6" fill="url(#paint10_linear_2032_271)" fill-opacity="0.5"/>
<path d="M231.811 87V86.116L234.489 83.217C235.018 82.6537 235.438 82.19 235.75 81.826C236.071 81.462 236.305 81.137 236.452 80.851C236.599 80.565 236.673 80.2617 236.673 79.941C236.673 79.4123 236.517 79.005 236.205 78.719C235.893 78.433 235.481 78.29 234.97 78.29C234.45 78.29 234.008 78.4417 233.644 78.745C233.28 79.0397 233.029 79.46 232.89 80.006L231.733 79.707C231.846 79.187 232.054 78.7363 232.357 78.355C232.66 77.9737 233.037 77.679 233.488 77.471C233.939 77.263 234.433 77.159 234.97 77.159C235.559 77.159 236.075 77.276 236.517 77.51C236.968 77.7353 237.319 78.0517 237.57 78.459C237.83 78.8663 237.96 79.3387 237.96 79.876C237.96 80.2313 237.886 80.578 237.739 80.916C237.592 81.254 237.375 81.6137 237.089 81.995C236.803 82.3677 236.43 82.801 235.971 83.295L233.579 85.895H238.168V87H231.811Z" fill="#C9C9C9"/>
<rect x="256" y="66" width="34" height="31" rx="6" fill="url(#paint11_linear_2032_271)" fill-opacity="0.5"/>
<path d="M272.855 87.156C272.343 87.156 271.867 87.065 271.425 86.883C270.983 86.701 270.601 86.4453 270.281 86.116C269.96 85.778 269.722 85.3793 269.566 84.92L270.645 84.478C270.827 84.9633 271.113 85.3403 271.503 85.609C271.893 85.8777 272.343 86.012 272.855 86.012C273.253 86.012 273.609 85.934 273.921 85.778C274.233 85.622 274.475 85.3967 274.649 85.102C274.831 84.8073 274.922 84.452 274.922 84.036C274.922 83.6113 274.831 83.256 274.649 82.97C274.475 82.6753 274.233 82.45 273.921 82.294C273.609 82.138 273.249 82.06 272.842 82.06C272.712 82.06 272.569 82.0687 272.413 82.086C272.265 82.1033 272.14 82.1293 272.036 82.164L271.763 81.579L274.35 78.42H270.06V77.315H275.793V78.381L273.323 81.423L273.245 81.085C273.825 81.1023 274.337 81.2367 274.779 81.488C275.221 81.7393 275.567 82.0817 275.819 82.515C276.07 82.9397 276.196 83.438 276.196 84.01C276.196 84.5993 276.053 85.1323 275.767 85.609C275.481 86.0857 275.086 86.4627 274.584 86.74C274.081 87.0173 273.505 87.156 272.855 87.156Z" fill="#C9C9C9"/>
<rect x="293" y="66" width="34" height="31" rx="6" fill="url(#paint12_linear_2032_271)" fill-opacity="0.5"/>
<path d="M311.672 87V84.764H306.914V83.711L311.646 77.315H312.868V83.711H314.129V84.764H312.868V87H311.672ZM307.876 84.166L307.694 83.711H311.672V78.381L312.049 78.485L307.876 84.166Z" fill="#C9C9C9"/>
<rect x="330" y="66" width="34" height="31" rx="6" fill="url(#paint13_linear_2032_271)" fill-opacity="0.5"/>
<path d="M347.395 87.156C346.892 87.156 346.42 87.0693 345.978 86.896C345.536 86.714 345.15 86.4583 344.821 86.129C344.5 85.791 344.266 85.3967 344.119 84.946L345.159 84.504C345.341 84.9807 345.635 85.3533 346.043 85.622C346.459 85.882 346.909 86.012 347.395 86.012C347.793 86.012 348.144 85.9253 348.448 85.752C348.76 85.57 349.002 85.323 349.176 85.011C349.349 84.6903 349.436 84.335 349.436 83.945C349.436 83.5377 349.345 83.178 349.163 82.866C348.989 82.554 348.751 82.3113 348.448 82.138C348.144 81.956 347.798 81.865 347.408 81.865C347.009 81.865 346.645 81.956 346.316 82.138C345.986 82.32 345.748 82.5497 345.601 82.827L344.574 82.606L345.315 77.315H350.333V78.42H345.796L346.29 77.926L345.718 82.034L345.276 81.774C345.562 81.41 345.895 81.15 346.277 80.994C346.667 80.8293 347.087 80.747 347.538 80.747C348.17 80.747 348.725 80.89 349.202 81.176C349.678 81.462 350.051 81.8433 350.32 82.32C350.588 82.7967 350.723 83.3383 350.723 83.945C350.723 84.5517 350.575 85.0977 350.281 85.583C349.995 86.0683 349.6 86.454 349.098 86.74C348.604 87.0173 348.036 87.156 347.395 87.156Z" fill="#C9C9C9"/>
<g filter="url(#filter1_f_2032_271)">
<ellipse cx="279.5" cy="183.5" rx="220.5" ry="41.5" fill="#F3F7F8"/>
</g>
<g filter="url(#filter2_d_2032_271)">
<path d="M315.354 153.841L316.928 130.934C316.984 130.124 317.932 129.714 318.56 130.23L335.828 144.397C336.637 145.062 336.01 146.366 334.986 146.149L323.266 143.663C322.816 143.567 322.359 143.791 322.159 144.205L317.252 154.345C316.773 155.336 315.279 154.939 315.354 153.841Z" fill="url(#paint14_linear_2032_271)"/>
</g>
</g>
<g filter="url(#filter3_dddd_2032_271)">
<rect x="12" y="64" width="218" height="48" rx="24" fill="url(#paint15_linear_2032_271)"/>
<rect x="13" y="65" width="216" height="46" rx="23" stroke="url(#paint16_linear_2032_271)" stroke-width="2"/>
<path d="M35.232 94V82.08H40.256C41.0027 82.08 41.648 82.2133 42.192 82.48C42.736 82.736 43.152 83.1093 43.44 83.6C43.728 84.08 43.872 84.6507 43.872 85.312C43.872 85.888 43.7227 86.416 43.424 86.896C43.136 87.3653 42.6827 87.7387 42.064 88.016V87.216C42.608 87.4293 43.0507 87.7013 43.392 88.032C43.7333 88.352 43.9787 88.7147 44.128 89.12C44.288 89.5253 44.368 89.952 44.368 90.4C44.368 91.52 44 92.4 43.264 93.04C42.5387 93.68 41.5413 94 40.272 94H35.232ZM37.12 92.32H40.416C41.0453 92.32 41.5467 92.1493 41.92 91.808C42.2933 91.456 42.48 90.992 42.48 90.416C42.48 89.8293 42.2933 89.3653 41.92 89.024C41.5467 88.672 41.0453 88.496 40.416 88.496H37.12V92.32ZM37.12 86.832H40.304C40.816 86.832 41.2267 86.688 41.536 86.4C41.8453 86.1013 42 85.712 42 85.232C42 84.752 41.8453 84.3787 41.536 84.112C41.2267 83.8453 40.816 83.712 40.304 83.712H37.12V86.832ZM50.3101 94.192C49.4781 94.192 48.7155 93.9947 48.0221 93.6C47.3395 93.2053 46.7955 92.6667 46.3901 91.984C45.9848 91.3013 45.7821 90.528 45.7821 89.664C45.7821 88.7893 45.9848 88.016 46.3901 87.344C46.7955 86.6613 47.3395 86.128 48.0221 85.744C48.7048 85.3493 49.4675 85.152 50.3101 85.152C51.1635 85.152 51.9261 85.3493 52.5981 85.744C53.2808 86.128 53.8195 86.6613 54.2141 87.344C54.6195 88.016 54.8221 88.7893 54.8221 89.664C54.8221 90.5387 54.6195 91.3173 54.2141 92C53.8088 92.6827 53.2648 93.2213 52.5821 93.616C51.8995 94 51.1421 94.192 50.3101 94.192ZM50.3101 92.512C50.8221 92.512 51.2755 92.3893 51.6701 92.144C52.0648 91.8987 52.3741 91.5627 52.5981 91.136C52.8328 90.6987 52.9501 90.208 52.9501 89.664C52.9501 89.12 52.8328 88.6347 52.5981 88.208C52.3741 87.7813 52.0648 87.4453 51.6701 87.2C51.2755 86.9547 50.8221 86.832 50.3101 86.832C49.8088 86.832 49.3555 86.9547 48.9501 87.2C48.5555 87.4453 48.2408 87.7813 48.0061 88.208C47.7821 88.6347 47.6701 89.12 47.6701 89.664C47.6701 90.208 47.7821 90.6987 48.0061 91.136C48.2408 91.5627 48.5555 91.8987 48.9501 92.144C49.3555 92.3893 49.8088 92.512 50.3101 92.512ZM60.7633 94.192C59.9313 94.192 59.1686 93.9947 58.4753 93.6C57.7926 93.2053 57.2486 92.6667 56.8433 91.984C56.4379 91.3013 56.2353 90.528 56.2353 89.664C56.2353 88.7893 56.4379 88.016 56.8433 87.344C57.2486 86.6613 57.7926 86.128 58.4753 85.744C59.1579 85.3493 59.9206 85.152 60.7633 85.152C61.6166 85.152 62.3793 85.3493 63.0513 85.744C63.7339 86.128 64.2726 86.6613 64.6673 87.344C65.0726 88.016 65.2753 88.7893 65.2753 89.664C65.2753 90.5387 65.0726 91.3173 64.6673 92C64.2619 92.6827 63.7179 93.2213 63.0353 93.616C62.3526 94 61.5953 94.192 60.7633 94.192ZM60.7633 92.512C61.2753 92.512 61.7286 92.3893 62.1233 92.144C62.5179 91.8987 62.8273 91.5627 63.0513 91.136C63.2859 90.6987 63.4033 90.208 63.4033 89.664C63.4033 89.12 63.2859 88.6347 63.0513 88.208C62.8273 87.7813 62.5179 87.4453 62.1233 87.2C61.7286 86.9547 61.2753 86.832 60.7633 86.832C60.2619 86.832 59.8086 86.9547 59.4033 87.2C59.0086 87.4453 58.6939 87.7813 58.4593 88.208C58.2353 88.6347 58.1233 89.12 58.1233 89.664C58.1233 90.208 58.2353 90.6987 58.4593 91.136C58.6939 91.5627 59.0086 91.8987 59.4033 92.144C59.8086 92.3893 60.2619 92.512 60.7633 92.512ZM67.0404 94V81.888H68.8484V90L68.1444 89.824L72.4804 85.344H74.7364L71.4724 88.816L74.8804 94H72.8004L69.7604 89.408L70.8324 89.264L68.2724 91.984L68.8484 90.784V94H67.0404ZM79.0914 94V82.08H80.8514L85.3314 88.288H84.4514L88.8514 82.08H90.6114V94H88.7394V84.304L89.4434 84.496L84.9474 90.64H84.7554L80.3554 84.496L80.9794 84.304V94H79.0914ZM93.6678 97.52C93.4544 97.52 93.2411 97.4987 93.0278 97.456C92.8251 97.424 92.6384 97.3707 92.4678 97.296V95.744C92.5958 95.776 92.7504 95.8027 92.9318 95.824C93.1131 95.856 93.2891 95.872 93.4598 95.872C93.9611 95.872 94.3291 95.76 94.5638 95.536C94.8091 95.3227 95.0278 94.992 95.2198 94.544L95.7958 93.232L95.7638 94.752L92.0198 85.344H93.9557L96.7238 92.56H96.0677L98.8198 85.344H100.772L96.9478 94.944C96.7451 95.456 96.4891 95.904 96.1798 96.288C95.8811 96.6827 95.5238 96.9867 95.1078 97.2C94.7024 97.4133 94.2224 97.52 93.6678 97.52ZM104.982 94V82.08H112.742V83.76H106.87V87.344H112.102V89.024H106.87V94H104.982ZM113.665 94V85.344H115.393V87.088L115.233 86.832C115.425 86.2667 115.735 85.8613 116.161 85.616C116.588 85.36 117.1 85.232 117.697 85.232H118.225V86.88H117.473C116.876 86.88 116.391 87.0667 116.017 87.44C115.655 87.8027 115.473 88.3253 115.473 89.008V94H113.665ZM123.526 94.192C122.662 94.192 121.894 93.9947 121.222 93.6C120.561 93.1947 120.044 92.6507 119.67 91.968C119.297 91.2747 119.11 90.5013 119.11 89.648C119.11 88.7733 119.297 88 119.67 87.328C120.054 86.656 120.566 86.128 121.206 85.744C121.846 85.3493 122.572 85.152 123.382 85.152C124.033 85.152 124.614 85.264 125.126 85.488C125.638 85.712 126.07 86.0213 126.422 86.416C126.774 86.8 127.041 87.2427 127.222 87.744C127.414 88.2453 127.51 88.7787 127.51 89.344C127.51 89.4827 127.505 89.6267 127.494 89.776C127.484 89.9253 127.462 90.064 127.43 90.192H120.534V88.752H126.406L125.542 89.408C125.649 88.8853 125.612 88.4213 125.43 88.016C125.26 87.6 124.993 87.2747 124.63 87.04C124.278 86.7947 123.862 86.672 123.382 86.672C122.902 86.672 122.476 86.7947 122.102 87.04C121.729 87.2747 121.441 87.616 121.238 88.064C121.036 88.5013 120.956 89.0347 120.998 89.664C120.945 90.2507 121.025 90.7627 121.238 91.2C121.462 91.6373 121.772 91.9787 122.166 92.224C122.572 92.4693 123.03 92.592 123.542 92.592C124.065 92.592 124.508 92.4747 124.87 92.24C125.244 92.0053 125.537 91.7013 125.75 91.328L127.222 92.048C127.052 92.4533 126.785 92.8213 126.422 93.152C126.07 93.472 125.644 93.728 125.142 93.92C124.652 94.1013 124.113 94.192 123.526 94.192ZM133.339 94.192C132.475 94.192 131.707 93.9947 131.035 93.6C130.373 93.1947 129.856 92.6507 129.483 91.968C129.109 91.2747 128.923 90.5013 128.923 89.648C128.923 88.7733 129.109 88 129.483 87.328C129.867 86.656 130.379 86.128 131.019 85.744C131.659 85.3493 132.384 85.152 133.195 85.152C133.845 85.152 134.427 85.264 134.939 85.488C135.451 85.712 135.883 86.0213 136.235 86.416C136.587 86.8 136.853 87.2427 137.035 87.744C137.227 88.2453 137.323 88.7787 137.323 89.344C137.323 89.4827 137.317 89.6267 137.307 89.776C137.296 89.9253 137.275 90.064 137.243 90.192H130.347V88.752H136.219L135.355 89.408C135.461 88.8853 135.424 88.4213 135.243 88.016C135.072 87.6 134.805 87.2747 134.443 87.04C134.091 86.7947 133.675 86.672 133.195 86.672C132.715 86.672 132.288 86.7947 131.915 87.04C131.541 87.2747 131.253 87.616 131.051 88.064C130.848 88.5013 130.768 89.0347 130.811 89.664C130.757 90.2507 130.837 90.7627 131.051 91.2C131.275 91.6373 131.584 91.9787 131.979 92.224C132.384 92.4693 132.843 92.592 133.355 92.592C133.877 92.592 134.32 92.4747 134.683 92.24C135.056 92.0053 135.349 91.7013 135.563 91.328L137.035 92.048C136.864 92.4533 136.597 92.8213 136.235 93.152C135.883 93.472 135.456 93.728 134.955 93.92C134.464 94.1013 133.925 94.192 133.339 94.192ZM142.06 94V82.08H143.82L148.3 88.288H147.42L151.82 82.08H153.58V94H151.708V84.304L152.412 84.496L147.916 90.64H147.724L143.324 84.496L143.948 84.304V94H142.06ZM159.213 94L154.989 82.08H157.021L160.477 92.256H160.077L163.517 82.08H165.549L161.325 94H159.213ZM166.951 94V82.08H171.287C172.087 82.08 172.791 82.2293 173.399 82.528C174.017 82.816 174.497 83.2427 174.839 83.808C175.18 84.3627 175.351 85.0293 175.351 85.808C175.351 86.576 175.175 87.2373 174.823 87.792C174.481 88.3467 174.007 88.7733 173.399 89.072C172.791 89.3707 172.087 89.52 171.287 89.52H168.839V94H166.951ZM168.839 87.84H171.335C171.761 87.84 172.135 87.7547 172.455 87.584C172.775 87.4133 173.025 87.1787 173.207 86.88C173.388 86.5707 173.479 86.208 173.479 85.792C173.479 85.376 173.388 85.0187 173.207 84.72C173.025 84.4107 172.775 84.176 172.455 84.016C172.135 83.8453 171.761 83.76 171.335 83.76H168.839V87.84ZM185.643 94.192C184.801 94.192 184.017 94.0373 183.291 93.728C182.577 93.4187 181.953 92.992 181.419 92.448C180.897 91.8933 180.486 91.2427 180.187 90.496C179.889 89.7493 179.739 88.928 179.739 88.032C179.739 87.1467 179.883 86.3307 180.171 85.584C180.47 84.8267 180.886 84.176 181.419 83.632C181.953 83.0773 182.577 82.6507 183.291 82.352C184.006 82.0427 184.79 81.888 185.643 81.888C186.486 81.888 187.238 82.032 187.899 82.32C188.571 82.608 189.137 82.9867 189.595 83.456C190.054 83.9147 190.385 84.416 190.587 84.96L188.891 85.76C188.635 85.12 188.225 84.6027 187.659 84.208C187.105 83.8027 186.433 83.6 185.643 83.6C184.854 83.6 184.155 83.7867 183.547 84.16C182.939 84.5333 182.465 85.0507 182.123 85.712C181.793 86.3733 181.627 87.1467 181.627 88.032C181.627 88.9173 181.793 89.696 182.123 90.368C182.465 91.0293 182.939 91.5467 183.547 91.92C184.155 92.2827 184.854 92.464 185.643 92.464C186.433 92.464 187.105 92.2667 187.659 91.872C188.225 91.4773 188.635 90.96 188.891 90.32L190.587 91.12C190.385 91.6533 190.054 92.1547 189.595 92.624C189.137 93.0933 188.571 93.472 187.899 93.76C187.238 94.048 186.486 94.192 185.643 94.192ZM194.789 94.192C194.202 94.192 193.685 94.0907 193.237 93.888C192.799 93.6747 192.458 93.3867 192.213 93.024C191.967 92.6507 191.845 92.2133 191.845 91.712C191.845 91.2427 191.946 90.8213 192.149 90.448C192.362 90.0747 192.687 89.76 193.125 89.504C193.562 89.248 194.111 89.0667 194.773 88.96L197.781 88.464V89.888L195.125 90.352C194.645 90.4373 194.293 90.592 194.069 90.816C193.845 91.0293 193.733 91.3067 193.733 91.648C193.733 91.9787 193.855 92.2507 194.101 92.464C194.357 92.6667 194.682 92.768 195.077 92.768C195.567 92.768 195.994 92.6613 196.357 92.448C196.73 92.2347 197.018 91.952 197.221 91.6C197.423 91.2373 197.525 90.8373 197.525 90.4V88.176C197.525 87.7493 197.365 87.4027 197.045 87.136C196.735 86.8587 196.319 86.72 195.797 86.72C195.317 86.72 194.895 86.848 194.533 87.104C194.181 87.3493 193.919 87.6693 193.749 88.064L192.245 87.312C192.405 86.8853 192.666 86.512 193.029 86.192C193.391 85.8613 193.813 85.6053 194.293 85.424C194.783 85.2427 195.301 85.152 195.845 85.152C196.527 85.152 197.13 85.28 197.653 85.536C198.186 85.792 198.597 86.1493 198.885 86.608C199.183 87.056 199.333 87.5787 199.333 88.176V94H197.605V92.432L197.973 92.48C197.77 92.832 197.509 93.136 197.189 93.392C196.879 93.648 196.522 93.8453 196.117 93.984C195.722 94.1227 195.279 94.192 194.789 94.192ZM201.447 94V81.888H203.255V94H201.447ZM205.368 94V81.888H207.177V94H205.368Z" fill="white"/>
</g>
<defs>
<filter id="filter0_d_2032_271" x="264" y="74" width="92" height="89" filterUnits="userSpaceOnUse" color-interpolation-filters="sRGB">
<feFlood flood-opacity="0" result="BackgroundImageFix"/>
<feColorMatrix in="SourceAlpha" type="matrix" values="0 0 0 0 0 0 0 0 0 0 0 0 0 0 0 0 0 0 127 0" result="hardAlpha"/>
<feMorphology radius="4" operator="dilate" in="SourceAlpha" result="effect1_dropShadow_2032_271"/>
<feOffset dy="2"/>
<feGaussianBlur stdDeviation="12.5"/>
<feComposite in2="hardAlpha" operator="out"/>
<feColorMatrix type="matrix" values="0 0 0 0 0 0 0 0 0 0.0132212 0 0 0 0 0.264423 0 0 0 0.28 0"/>
<feBlend mode="normal" in2="BackgroundImageFix" result="effect1_dropShadow_2032_271"/>
<feBlend mode="normal" in="SourceGraphic" in2="effect1_dropShadow_2032_271" result="shape"/>
</filter>
<filter id="filter1_f_2032_271" x="20" y="103" width="519" height="161" filterUnits="userSpaceOnUse" color-interpolation-filters="sRGB">
<feFlood flood-opacity="0" result="BackgroundImageFix"/>
<feBlend mode="normal" in="SourceGraphic" in2="BackgroundImageFix" result="shape"/>
<feGaussianBlur stdDeviation="19.5" result="effect1_foregroundBlur_2032_271"/>
</filter>
<filter id="filter2_d_2032_271" x="311.352" y="130.001" width="28.8457" height="32.9106" filterUnits="userSpaceOnUse" color-interpolation-filters="sRGB">
<feFlood flood-opacity="0" result="BackgroundImageFix"/>
<feColorMatrix in="SourceAlpha" type="matrix" values="0 0 0 0 0 0 0 0 0 0 0 0 0 0 0 0 0 0 127 0" result="hardAlpha"/>
<feOffset dy="4"/>
<feGaussianBlur stdDeviation="2"/>
<feComposite in2="hardAlpha" operator="out"/>
<feColorMatrix type="matrix" values="0 0 0 0 0 0 0 0 0 0 0 0 0 0 0 0 0 0 0.25 0"/>
<feBlend mode="normal" in2="BackgroundImageFix" result="effect1_dropShadow_2032_271"/>
<feBlend mode="normal" in="SourceGraphic" in2="effect1_dropShadow_2032_271" result="shape"/>
</filter>
<filter id="filter3_dddd_2032_271" x="0" y="62" width="242" height="92" filterUnits="userSpaceOnUse" color-interpolation-filters="sRGB">
<feFlood flood-opacity="0" result="BackgroundImageFix"/>
<feColorMatrix in="SourceAlpha" type="matrix" values="0 0 0 0 0 0 0 0 0 0 0 0 0 0 0 0 0 0 127 0" result="hardAlpha"/>
<feOffset dy="2"/>
<feGaussianBlur stdDeviation="2"/>
<feColorMatrix type="matrix" values="0 0 0 0 0.117647 0 0 0 0 0.443137 0 0 0 0 0.898039 0 0 0 0.15 0"/>
<feBlend mode="normal" in2="BackgroundImageFix" result="effect1_dropShadow_2032_271"/>
<feColorMatrix in="SourceAlpha" type="matrix" values="0 0 0 0 0 0 0 0 0 0 0 0 0 0 0 0 0 0 127 0" result="hardAlpha"/>
<feOffset dy="7"/>
<feGaussianBlur stdDeviation="3.5"/>
<feColorMatrix type="matrix" values="0 0 0 0 0.117647 0 0 0 0 0.443137 0 0 0 0 0.898039 0 0 0 0.13 0"/>
<feBlend mode="normal" in2="effect1_dropShadow_2032_271" result="effect2_dropShadow_2032_271"/>
<feColorMatrix in="SourceAlpha" type="matrix" values="0 0 0 0 0 0 0 0 0 0 0 0 0 0 0 0 0 0 127 0" result="hardAlpha"/>
<feOffset dy="17"/>
<feGaussianBlur stdDeviation="5"/>
<feColorMatrix type="matrix" values="0 0 0 0 0.117647 0 0 0 0 0.443137 0 0 0 0 0.898039 0 0 0 0.08 0"/>
<feBlend mode="normal" in2="effect2_dropShadow_2032_271" result="effect3_dropShadow_2032_271"/>
<feColorMatrix in="SourceAlpha" type="matrix" values="0 0 0 0 0 0 0 0 0 0 0 0 0 0 0 0 0 0 127 0" result="hardAlpha"/>
<feOffset dy="30"/>
<feGaussianBlur stdDeviation="6"/>
<feColorMatrix type="matrix" values="0 0 0 0 0.117647 0 0 0 0 0.443137 0 0 0 0 0.898039 0 0 0 0.02 0"/>
<feBlend mode="normal" in2="effect3_dropShadow_2032_271" result="effect4_dropShadow_2032_271"/>
<feBlend mode="normal" in="SourceGraphic" in2="effect4_dropShadow_2032_271" result="shape"/>
</filter>
<linearGradient id="paint0_linear_2032_271" x1="272" y1="0" x2="272" y2="187" gradientUnits="userSpaceOnUse">
<stop stop-color="white"/>
<stop offset="1" stop-color="white" stop-opacity="0"/>
</linearGradient>
<linearGradient id="paint1_linear_2032_271" x1="199" y1="66" x2="199" y2="97" gradientUnits="userSpaceOnUse">
<stop stop-color="white"/>
<stop offset="1" stop-color="#E4E4E4"/>
</linearGradient>
<linearGradient id="paint2_linear_2032_271" x1="161" y1="136" x2="161" y2="182.5" gradientUnits="userSpaceOnUse">
<stop stop-color="#E4E4E4"/>
<stop offset="1" stop-color="white" stop-opacity="0"/>
</linearGradient>
<linearGradient id="paint3_linear_2032_271" x1="236" y1="136" x2="236" y2="178.5" gradientUnits="userSpaceOnUse">
<stop stop-color="#E4E4E4"/>
<stop offset="1" stop-color="white" stop-opacity="0"/>
</linearGradient>
<linearGradient id="paint4_linear_2032_271" x1="199" y1="136" x2="199" y2="179.5" gradientUnits="userSpaceOnUse">
<stop stop-color="#E4E4E4"/>
<stop offset="1" stop-color="white" stop-opacity="0"/>
</linearGradient>
<linearGradient id="paint5_linear_2032_271" x1="273" y1="136" x2="273" y2="192.5" gradientUnits="userSpaceOnUse">
<stop stop-color="#E4E4E4"/>
<stop offset="1" stop-color="white" stop-opacity="0"/>
</linearGradient>
<linearGradient id="paint6_linear_2032_271" x1="310" y1="136" x2="310" y2="181" gradientUnits="userSpaceOnUse">
<stop stop-color="#E4E4E4"/>
<stop offset="1" stop-color="white" stop-opacity="0"/>
</linearGradient>
<linearGradient id="paint7_linear_2032_271" x1="347" y1="136" x2="347" y2="189" gradientUnits="userSpaceOnUse">
<stop stop-color="#E4E4E4"/>
<stop offset="1" stop-color="white" stop-opacity="0"/>
</linearGradient>
<linearGradient id="paint8_linear_2032_271" x1="384" y1="136" x2="384" y2="187" gradientUnits="userSpaceOnUse">
<stop stop-color="#E4E4E4"/>
<stop offset="1" stop-color="white" stop-opacity="0"/>
</linearGradient>
<linearGradient id="paint9_linear_2032_271" x1="310" y1="101" x2="310" y2="132" gradientUnits="userSpaceOnUse">
<stop stop-color="#60A6FF"/>
<stop offset="1" stop-color="#74B2FF"/>
</linearGradient>
<linearGradient id="paint10_linear_2032_271" x1="236" y1="66" x2="236" y2="97" gradientUnits="userSpaceOnUse">
<stop stop-color="white"/>
<stop offset="1" stop-color="#E4E4E4"/>
</linearGradient>
<linearGradient id="paint11_linear_2032_271" x1="273" y1="66" x2="273" y2="97" gradientUnits="userSpaceOnUse">
<stop stop-color="white"/>
<stop offset="1" stop-color="#E4E4E4"/>
</linearGradient>
<linearGradient id="paint12_linear_2032_271" x1="310" y1="66" x2="310" y2="97" gradientUnits="userSpaceOnUse">
<stop stop-color="white"/>
<stop offset="1" stop-color="#E4E4E4"/>
</linearGradient>
<linearGradient id="paint13_linear_2032_271" x1="347" y1="66" x2="347" y2="97" gradientUnits="userSpaceOnUse">
<stop stop-color="white"/>
<stop offset="1" stop-color="#E4E4E4"/>
</linearGradient>
<linearGradient id="paint14_linear_2032_271" x1="326.5" y1="129" x2="326.5" y2="156.5" gradientUnits="userSpaceOnUse">
<stop stop-color="#07ACEF"/>
<stop offset="1" stop-color="#2810AB"/>
</linearGradient>
<linearGradient id="paint15_linear_2032_271" x1="111.979" y1="112" x2="111.325" y2="40.5806" gradientUnits="userSpaceOnUse">
<stop stop-color="#0F93FF"/>
<stop offset="1" stop-color="#003BB9"/>
</linearGradient>
<linearGradient id="paint16_linear_2032_271" x1="12" y1="88" x2="230" y2="88" gradientUnits="userSpaceOnUse">
<stop stop-color="#9CC6FF"/>
<stop offset="1" stop-color="#00D0FF"/>
</linearGradient>
<clipPath id="clip0_2032_271">
<rect x="133" width="278" height="187" rx="20" fill="white"/>
</clipPath>
<clipPath id="clip1_2032_271">
<rect x="182" y="66" width="34" height="31" rx="6" fill="white"/>
</clipPath>
</defs>
</svg>
