<svg width="242" height="64" viewBox="0 0 242 64" fill="none" xmlns="http://www.w3.org/2000/svg">
<path d="M71.694 41V24.61H74.29V38.69H81.374V41H71.694ZM86.8754 41.264C86.0687 41.264 85.3574 41.1247 84.7414 40.846C84.14 40.5527 83.6707 40.1567 83.3334 39.658C82.996 39.1447 82.8274 38.5433 82.8274 37.854C82.8274 37.2087 82.9667 36.6293 83.2454 36.116C83.5387 35.6027 83.986 35.17 84.5874 34.818C85.1887 34.466 85.944 34.2167 86.8534 34.07L90.9894 33.388V35.346L87.3374 35.984C86.6774 36.1013 86.1934 36.314 85.8854 36.622C85.5774 36.9153 85.4234 37.2967 85.4234 37.766C85.4234 38.2207 85.592 38.5947 85.9294 38.888C86.2814 39.1667 86.7287 39.306 87.2714 39.306C87.946 39.306 88.5327 39.1593 89.0314 38.866C89.5447 38.5727 89.9407 38.184 90.2194 37.7C90.498 37.2013 90.6374 36.6513 90.6374 36.05V32.992C90.6374 32.4053 90.4174 31.9287 89.9774 31.562C89.552 31.1807 88.98 30.99 88.2614 30.99C87.6014 30.99 87.022 31.166 86.5234 31.518C86.0394 31.8553 85.68 32.2953 85.4454 32.838L83.3774 31.804C83.5974 31.2173 83.9567 30.704 84.4554 30.264C84.954 29.8093 85.5334 29.4573 86.1934 29.208C86.868 28.9587 87.5794 28.834 88.3274 28.834C89.266 28.834 90.0947 29.01 90.8134 29.362C91.5467 29.714 92.1114 30.2053 92.5074 30.836C92.918 31.452 93.1234 32.1707 93.1234 32.992V41H90.7474V38.844L91.2534 38.91C90.9747 39.394 90.6154 39.812 90.1754 40.164C89.75 40.516 89.2587 40.7873 88.7014 40.978C88.1587 41.1687 87.55 41.264 86.8754 41.264ZM100.276 41.264C99.3815 41.264 98.5968 41.066 97.9221 40.67C97.2475 40.2593 96.7195 39.6947 96.3381 38.976C95.9715 38.2427 95.7881 37.3993 95.7881 36.446V29.098H98.2741V36.226C98.2741 36.7687 98.3841 37.2453 98.6041 37.656C98.8241 38.0667 99.1321 38.3893 99.5281 38.624C99.9241 38.844 100.379 38.954 100.892 38.954C101.42 38.954 101.882 38.8367 102.278 38.602C102.674 38.3673 102.982 38.0373 103.202 37.612C103.437 37.1867 103.554 36.688 103.554 36.116V29.098H106.018V41H103.664V38.668L103.928 38.976C103.649 39.7093 103.187 40.274 102.542 40.67C101.897 41.066 101.141 41.264 100.276 41.264ZM108.921 41V29.098H111.297V31.43L111.011 31.122C111.304 30.374 111.773 29.8093 112.419 29.428C113.064 29.032 113.812 28.834 114.663 28.834C115.543 28.834 116.32 29.0247 116.995 29.406C117.669 29.7873 118.197 30.3153 118.579 30.99C118.96 31.6647 119.151 32.442 119.151 33.322V41H116.687V33.982C116.687 33.3807 116.577 32.8747 116.357 32.464C116.137 32.0387 115.821 31.716 115.411 31.496C115.015 31.2613 114.56 31.144 114.047 31.144C113.533 31.144 113.071 31.2613 112.661 31.496C112.265 31.716 111.957 32.0387 111.737 32.464C111.517 32.8893 111.407 33.3953 111.407 33.982V41H108.921ZM127.465 41.264C126.277 41.264 125.221 40.9927 124.297 40.45C123.388 39.8927 122.662 39.1447 122.119 38.206C121.591 37.2673 121.327 36.204 121.327 35.016C121.327 33.8427 121.591 32.7867 122.119 31.848C122.647 30.9093 123.373 30.176 124.297 29.648C125.221 29.1053 126.277 28.834 127.465 28.834C128.272 28.834 129.027 28.9807 129.731 29.274C130.435 29.5527 131.044 29.9413 131.557 30.44C132.085 30.9387 132.474 31.518 132.723 32.178L130.545 33.19C130.296 32.574 129.893 32.0827 129.335 31.716C128.793 31.3347 128.169 31.144 127.465 31.144C126.791 31.144 126.182 31.3127 125.639 31.65C125.111 31.9727 124.693 32.4347 124.385 33.036C124.077 33.6227 123.923 34.29 123.923 35.038C123.923 35.786 124.077 36.4607 124.385 37.062C124.693 37.6487 125.111 38.1107 125.639 38.448C126.182 38.7853 126.791 38.954 127.465 38.954C128.184 38.954 128.807 38.7707 129.335 38.404C129.878 38.0227 130.281 37.5167 130.545 36.886L132.723 37.92C132.489 38.5507 132.107 39.1227 131.579 39.636C131.066 40.1347 130.457 40.5307 129.753 40.824C129.049 41.1173 128.287 41.264 127.465 41.264ZM135.153 41V24.346H137.639V31.43L137.243 31.122C137.537 30.374 138.006 29.8093 138.651 29.428C139.297 29.032 140.045 28.834 140.895 28.834C141.775 28.834 142.553 29.0247 143.227 29.406C143.902 29.7873 144.43 30.3153 144.811 30.99C145.193 31.6647 145.383 32.4347 145.383 33.3V41H142.919V33.982C142.919 33.3807 142.802 32.8747 142.567 32.464C142.347 32.0387 142.039 31.716 141.643 31.496C141.247 31.2613 140.793 31.144 140.279 31.144C139.781 31.144 139.326 31.2613 138.915 31.496C138.519 31.716 138.204 32.0387 137.969 32.464C137.749 32.8893 137.639 33.3953 137.639 33.982V41H135.153ZM148.286 41V24.61H154.248C155.348 24.61 156.316 24.8153 157.152 25.226C158.002 25.622 158.662 26.2087 159.132 26.986C159.601 27.7487 159.836 28.6653 159.836 29.736C159.836 30.792 159.594 31.7013 159.11 32.464C158.64 33.2267 157.988 33.8133 157.152 34.224C156.316 34.6347 155.348 34.84 154.248 34.84H150.882V41H148.286ZM150.882 32.53H154.314C154.9 32.53 155.414 32.4127 155.854 32.178C156.294 31.9433 156.638 31.6207 156.888 31.21C157.137 30.7847 157.262 30.286 157.262 29.714C157.262 29.142 157.137 28.6507 156.888 28.24C156.638 27.8147 156.294 27.492 155.854 27.272C155.414 27.0373 154.9 26.92 154.314 26.92H150.882V32.53ZM165.057 41.264C164.25 41.264 163.539 41.1247 162.923 40.846C162.322 40.5527 161.852 40.1567 161.515 39.658C161.178 39.1447 161.009 38.5433 161.009 37.854C161.009 37.2087 161.148 36.6293 161.427 36.116C161.72 35.6027 162.168 35.17 162.769 34.818C163.37 34.466 164.126 34.2167 165.035 34.07L169.171 33.388V35.346L165.519 35.984C164.859 36.1013 164.375 36.314 164.067 36.622C163.759 36.9153 163.605 37.2967 163.605 37.766C163.605 38.2207 163.774 38.5947 164.111 38.888C164.463 39.1667 164.91 39.306 165.453 39.306C166.128 39.306 166.714 39.1593 167.213 38.866C167.726 38.5727 168.122 38.184 168.401 37.7C168.68 37.2013 168.819 36.6513 168.819 36.05V32.992C168.819 32.4053 168.599 31.9287 168.159 31.562C167.734 31.1807 167.162 30.99 166.443 30.99C165.783 30.99 165.204 31.166 164.705 31.518C164.221 31.8553 163.862 32.2953 163.627 32.838L161.559 31.804C161.779 31.2173 162.138 30.704 162.637 30.264C163.136 29.8093 163.715 29.4573 164.375 29.208C165.05 28.9587 165.761 28.834 166.509 28.834C167.448 28.834 168.276 29.01 168.995 29.362C169.728 29.714 170.293 30.2053 170.689 30.836C171.1 31.452 171.305 32.1707 171.305 32.992V41H168.929V38.844L169.435 38.91C169.156 39.394 168.797 39.812 168.357 40.164C167.932 40.516 167.44 40.7873 166.883 40.978C166.34 41.1687 165.732 41.264 165.057 41.264ZM179.712 41.264C178.568 41.264 177.541 40.9927 176.632 40.45C175.737 39.8927 175.026 39.1447 174.498 38.206C173.984 37.2673 173.728 36.2113 173.728 35.038C173.728 33.8647 173.992 32.8087 174.52 31.87C175.048 30.9313 175.759 30.1907 176.654 29.648C177.548 29.1053 178.56 28.834 179.69 28.834C180.643 28.834 181.486 29.0247 182.22 29.406C182.953 29.7873 183.532 30.3153 183.958 30.99L183.584 31.562V24.346H186.048V41H183.694V38.58L183.98 39.042C183.569 39.7607 182.982 40.3107 182.22 40.692C181.457 41.0733 180.621 41.264 179.712 41.264ZM179.954 38.954C180.643 38.954 181.259 38.7853 181.802 38.448C182.359 38.1107 182.792 37.6487 183.1 37.062C183.422 36.4607 183.584 35.786 183.584 35.038C183.584 34.29 183.422 33.6227 183.1 33.036C182.792 32.4493 182.359 31.9873 181.802 31.65C181.259 31.3127 180.643 31.144 179.954 31.144C179.264 31.144 178.641 31.3127 178.084 31.65C177.526 31.9873 177.094 32.4493 176.786 33.036C176.478 33.6227 176.324 34.29 176.324 35.038C176.324 35.786 176.478 36.4607 176.786 37.062C177.094 37.6487 177.519 38.1107 178.062 38.448C178.619 38.7853 179.25 38.954 179.954 38.954Z" fill="url(#paint0_linear_1_3892)"/>
<path d="M193.038 41V24.61H195.634V38.69H202.718V41H193.038ZM208.219 41.264C207.412 41.264 206.701 41.1247 206.085 40.846C205.484 40.5527 205.014 40.1567 204.677 39.658C204.34 39.1447 204.171 38.5433 204.171 37.854C204.171 37.2087 204.31 36.6293 204.589 36.116C204.882 35.6027 205.33 35.17 205.931 34.818C206.532 34.466 207.288 34.2167 208.197 34.07L212.333 33.388V35.346L208.681 35.984C208.021 36.1013 207.537 36.314 207.229 36.622C206.921 36.9153 206.767 37.2967 206.767 37.766C206.767 38.2207 206.936 38.5947 207.273 38.888C207.625 39.1667 208.072 39.306 208.615 39.306C209.29 39.306 209.876 39.1593 210.375 38.866C210.888 38.5727 211.284 38.184 211.563 37.7C211.842 37.2013 211.981 36.6513 211.981 36.05V32.992C211.981 32.4053 211.761 31.9287 211.321 31.562C210.896 31.1807 210.324 30.99 209.605 30.99C208.945 30.99 208.366 31.166 207.867 31.518C207.383 31.8553 207.024 32.2953 206.789 32.838L204.721 31.804C204.941 31.2173 205.3 30.704 205.799 30.264C206.298 29.8093 206.877 29.4573 207.537 29.208C208.212 28.9587 208.923 28.834 209.671 28.834C210.61 28.834 211.438 29.01 212.157 29.362C212.89 29.714 213.455 30.2053 213.851 30.836C214.262 31.452 214.467 32.1707 214.467 32.992V41H212.091V38.844L212.597 38.91C212.318 39.394 211.959 39.812 211.519 40.164C211.094 40.516 210.602 40.7873 210.045 40.978C209.502 41.1687 208.894 41.264 208.219 41.264ZM223.732 41.264C222.808 41.264 221.965 41.0733 221.202 40.692C220.454 40.3107 219.875 39.7607 219.464 39.042L219.75 38.58V41H217.374V24.346H219.86V31.562L219.464 30.99C219.904 30.3153 220.491 29.7873 221.224 29.406C221.957 29.0247 222.793 28.834 223.732 28.834C224.861 28.834 225.873 29.1053 226.768 29.648C227.677 30.1907 228.389 30.9313 228.902 31.87C229.43 32.8087 229.694 33.8647 229.694 35.038C229.694 36.2113 229.43 37.2673 228.902 38.206C228.389 39.1447 227.685 39.8927 226.79 40.45C225.895 40.9927 224.876 41.264 223.732 41.264ZM223.49 38.954C224.194 38.954 224.817 38.7853 225.36 38.448C225.903 38.1107 226.328 37.6487 226.636 37.062C226.959 36.4607 227.12 35.786 227.12 35.038C227.12 34.29 226.959 33.6227 226.636 33.036C226.328 32.4493 225.903 31.9873 225.36 31.65C224.817 31.3127 224.194 31.144 223.49 31.144C222.801 31.144 222.177 31.3127 221.62 31.65C221.077 31.9873 220.645 32.4493 220.322 33.036C220.014 33.6227 219.86 34.29 219.86 35.038C219.86 35.786 220.014 36.4607 220.322 37.062C220.645 37.6487 221.077 38.1107 221.62 38.448C222.177 38.7853 222.801 38.954 223.49 38.954ZM236.512 41.264C235.295 41.264 234.224 40.9633 233.3 40.362C232.391 39.7607 231.753 38.954 231.386 37.942L233.3 37.04C233.623 37.7147 234.063 38.25 234.62 38.646C235.192 39.042 235.823 39.24 236.512 39.24C237.099 39.24 237.575 39.108 237.942 38.844C238.309 38.58 238.492 38.2207 238.492 37.766C238.492 37.4727 238.411 37.238 238.25 37.062C238.089 36.8713 237.883 36.7173 237.634 36.6C237.399 36.4827 237.157 36.3947 236.908 36.336L235.038 35.808C234.011 35.5147 233.241 35.0747 232.728 34.488C232.229 33.8867 231.98 33.19 231.98 32.398C231.98 31.6793 232.163 31.056 232.53 30.528C232.897 29.9853 233.403 29.5673 234.048 29.274C234.693 28.9807 235.419 28.834 236.226 28.834C237.311 28.834 238.279 29.1053 239.13 29.648C239.981 30.176 240.582 30.9167 240.934 31.87L239.02 32.772C238.785 32.2 238.411 31.7453 237.898 31.408C237.399 31.0707 236.835 30.902 236.204 30.902C235.661 30.902 235.229 31.034 234.906 31.298C234.583 31.5473 234.422 31.8773 234.422 32.288C234.422 32.5667 234.495 32.8013 234.642 32.992C234.789 33.168 234.979 33.3147 235.214 33.432C235.449 33.5347 235.691 33.6227 235.94 33.696L237.876 34.268C238.859 34.5467 239.614 34.9867 240.142 35.588C240.67 36.1747 240.934 36.8787 240.934 37.7C240.934 38.404 240.743 39.0273 240.362 39.57C239.995 40.098 239.482 40.516 238.822 40.824C238.162 41.1173 237.392 41.264 236.512 41.264Z" fill="black"/>
<g filter="url(#filter0_di_1_3892)">
<rect x="11" y="9" width="46" height="42" rx="9" fill="white"/>
<path d="M38.6264 23.8806C38.2767 23.8808 37.9378 24.0023 37.6676 24.2243C37.3973 24.4463 37.2124 24.7551 37.1444 25.0982C37.0763 25.4412 37.1293 25.7973 37.2943 26.1056C37.4593 26.414 37.7262 26.6556 38.0494 26.7893C38.3725 26.923 38.7321 26.9405 39.0667 26.8388C39.4013 26.7371 39.6904 26.5226 39.8845 26.2317C40.0787 25.9408 40.166 25.5916 40.1316 25.2436C40.0972 24.8955 39.9432 24.5702 39.6958 24.323C39.5555 24.1824 39.3888 24.0709 39.2052 23.995C39.0217 23.9191 38.825 23.8802 38.6264 23.8806Z" fill="url(#paint1_linear_1_3892)"/>
<path d="M47.0425 17.8355C47.0423 17.8339 47.0423 17.8321 47.0425 17.8304C46.9946 17.6205 46.889 17.4281 46.7376 17.275C46.5862 17.1218 46.395 17.0141 46.1856 16.9638C44.4977 16.5521 41.8424 16.991 38.8999 18.1692C35.9342 19.3586 33.1554 21.1145 31.2772 22.9961C30.6752 23.5949 30.1159 24.2352 29.6034 24.9122C28.3387 24.8556 27.2245 25.0357 26.286 25.4452C23.0156 26.8845 22.0816 30.5678 21.8329 32.0801C21.7969 32.295 21.811 32.5153 21.8741 32.7238C21.9371 32.9323 22.0475 33.1235 22.1965 33.2825C22.3455 33.4414 22.5292 33.5638 22.7333 33.6402C22.9373 33.7165 23.1562 33.7448 23.373 33.7227H23.3803L27.0235 33.3251C27.028 33.3715 27.0331 33.414 27.0371 33.4531C27.0839 33.897 27.2818 34.3113 27.5978 34.6267L29.3758 36.4057C29.6906 36.7222 30.1049 36.9204 30.5488 36.967L30.6706 36.9801L30.2741 40.6187V40.626C30.2538 40.822 30.2747 41.02 30.3353 41.2075C30.3959 41.3949 30.495 41.5677 30.6262 41.7146C30.7574 41.8616 30.9178 41.9796 31.0972 42.061C31.2766 42.1425 31.471 42.1856 31.668 42.1876C31.7467 42.1877 31.8254 42.1813 31.9031 42.1684C33.4239 41.9237 37.1055 41.001 38.5408 37.713C38.9469 36.7807 39.1264 35.6711 39.076 34.4086C39.7561 33.8972 40.3987 33.3379 40.999 32.7349C42.8925 30.851 44.654 28.0949 45.831 25.1722C47.0029 22.2631 47.4441 19.588 47.0425 17.8355ZM40.9786 27.7409C40.5132 28.2067 39.9201 28.5241 39.2743 28.6528C38.6284 28.7816 37.959 28.7158 37.3505 28.464C36.742 28.2122 36.222 27.7855 35.856 27.238C35.4901 26.6905 35.2948 26.0468 35.2948 25.3883C35.2948 24.7298 35.4901 24.0861 35.856 23.5386C36.222 22.9911 36.742 22.5644 37.3505 22.3126C37.959 22.0607 38.6284 21.995 39.2743 22.1237C39.9201 22.2525 40.5132 22.5698 40.9786 23.0357C41.2905 23.343 41.5382 23.7092 41.7073 24.1131C41.8764 24.517 41.9635 24.9504 41.9635 25.3883C41.9635 25.8261 41.8764 26.2596 41.7073 26.6635C41.5382 27.0674 41.2905 27.4336 40.9786 27.7409Z" fill="url(#paint2_linear_1_3892)"/>
<path d="M29.1719 36.8881C28.9527 36.8609 28.7311 36.9147 28.5488 37.0393C28.1869 37.2868 27.8233 37.5315 27.4562 37.77C26.7137 38.2526 25.8255 37.4052 26.2668 36.6372L26.955 35.4477C27.0533 35.3038 27.1081 35.1345 27.1127 34.9603C27.1174 34.786 27.0716 34.6141 26.981 34.4651C26.8903 34.3162 26.7587 34.1966 26.6017 34.1206C26.4448 34.0446 26.2693 34.0155 26.0963 34.0368C25.3325 34.1334 24.6225 34.4813 24.0782 35.0257C23.8709 35.2336 23.2405 35.8646 22.9012 38.269C22.8046 38.9596 22.7437 39.6548 22.7188 40.3517C22.7157 40.4726 22.7369 40.593 22.781 40.7056C22.8252 40.8182 22.8914 40.9209 22.9759 41.0075C23.0603 41.0942 23.1613 41.163 23.2728 41.21C23.3843 41.257 23.5041 41.2812 23.6251 41.2811H23.6477C24.3451 41.2564 25.0409 41.1959 25.7321 41.0999C28.1376 40.76 28.7686 40.1291 28.9759 39.9218C29.5228 39.3772 29.8699 38.6639 29.9609 37.8974C29.99 37.659 29.9232 37.4187 29.7753 37.2294C29.6273 37.0402 29.4103 36.9174 29.1719 36.8881Z" fill="url(#paint3_linear_1_3892)"/>
</g>
<defs>
<filter id="filter0_di_1_3892" x="0" y="0" width="68" height="64" filterUnits="userSpaceOnUse" color-interpolation-filters="sRGB">
<feFlood flood-opacity="0" result="BackgroundImageFix"/>
<feColorMatrix in="SourceAlpha" type="matrix" values="0 0 0 0 0 0 0 0 0 0 0 0 0 0 0 0 0 0 127 0" result="hardAlpha"/>
<feOffset dy="2"/>
<feGaussianBlur stdDeviation="5.5"/>
<feComposite in2="hardAlpha" operator="out"/>
<feColorMatrix type="matrix" values="0 0 0 0 0 0 0 0 0 0 0 0 0 0 0 0 0 0 0.25 0"/>
<feBlend mode="normal" in2="BackgroundImageFix" result="effect1_dropShadow_1_3892"/>
<feBlend mode="normal" in="SourceGraphic" in2="effect1_dropShadow_1_3892" result="shape"/>
<feColorMatrix in="SourceAlpha" type="matrix" values="0 0 0 0 0 0 0 0 0 0 0 0 0 0 0 0 0 0 127 0" result="hardAlpha"/>
<feOffset/>
<feGaussianBlur stdDeviation="8.5"/>
<feComposite in2="hardAlpha" operator="arithmetic" k2="-1" k3="1"/>
<feColorMatrix type="matrix" values="0 0 0 0 0.730769 0 0 0 0 0.751913 0 0 0 0 1 0 0 0 0.25 0"/>
<feBlend mode="normal" in2="shape" result="effect2_innerShadow_1_3892"/>
</filter>
<linearGradient id="paint0_linear_1_3892" x1="70" y1="32" x2="242" y2="32" gradientUnits="userSpaceOnUse">
<stop stop-color="#2209A7"/>
<stop offset="1" stop-color="#03BDF7"/>
</linearGradient>
<linearGradient id="paint1_linear_1_3892" x1="38.6272" y1="23.8806" x2="38.6272" y2="26.9041" gradientUnits="userSpaceOnUse">
<stop stop-color="#2300A3"/>
<stop offset="1" stop-color="#00D0FF"/>
</linearGradient>
<linearGradient id="paint2_linear_1_3892" x1="34.5005" y1="16.8127" x2="34.5005" y2="42.1876" gradientUnits="userSpaceOnUse">
<stop stop-color="#2300A3"/>
<stop offset="1" stop-color="#00D0FF"/>
</linearGradient>
<linearGradient id="paint3_linear_1_3892" x1="26.343" y1="34.03" x2="26.343" y2="41.2811" gradientUnits="userSpaceOnUse">
<stop stop-color="#2300A3"/>
<stop offset="1" stop-color="#00D0FF"/>
</linearGradient>
</defs>
</svg>
