<svg width="344" height="403" viewBox="0 0 344 403" fill="none" xmlns="http://www.w3.org/2000/svg">
<g clip-path="url(#clip0_2018_461)">
<rect width="344" height="403" rx="8" fill="url(#paint0_linear_2018_461)"/>
<line x1="319.5" x2="319.5" y2="349" stroke="#CAE3FF"/>
<line x1="97" y1="23.5" x2="347" y2="23.5" stroke="#CAE3FF"/>
<line x1="291.5" y1="1" x2="291.5" y2="350" stroke="#CAE3FF"/>
<line x1="98" y1="53.5" x2="348" y2="53.5" stroke="#CAE3FF"/>
<line x1="263.5" y1="1" x2="263.5" y2="350" stroke="#CAE3FF"/>
<line x1="98" y1="83.5" x2="348" y2="83.5" stroke="#CAE3FF"/>
<line x1="234.5" x2="234.5" y2="349" stroke="#CAE3FF"/>
<line x1="97" y1="114.5" x2="347" y2="114.5" stroke="#CAE3FF"/>
<line x1="207.5" x2="207.5" y2="349" stroke="#CAE3FF"/>
<line x1="97" y1="143.5" x2="347" y2="143.5" stroke="#CAE3FF"/>
<line x1="93" y1="254.5" x2="343" y2="254.5" stroke="#CAE3FF"/>
<line x1="182.5" x2="182.5" y2="250" stroke="#CAE3FF"/>
<line x1="97" y1="169.5" x2="347" y2="169.5" stroke="#CAE3FF"/>
<line x1="93" y1="280.5" x2="343" y2="280.5" stroke="#CAE3FF"/>
<line x1="155.5" y1="-4" x2="155.5" y2="246" stroke="black"/>
<line x1="155.5" y1="1" x2="155.5" y2="251" stroke="#CAE3FF"/>
<line x1="98" y1="198.5" x2="348" y2="198.5" stroke="#CAE3FF"/>
<line x1="94" y1="309.5" x2="344" y2="309.5" stroke="#CAE3FF"/>
<line x1="129.5" y1="1" x2="129.5" y2="251" stroke="#CAE3FF"/>
<line x1="98" y1="226.5" x2="348" y2="226.5" stroke="#CAE3FF"/>
<line x1="94" y1="337.5" x2="344" y2="337.5" stroke="#CAE3FF"/>
<g filter="url(#filter0_f_2018_461)">
<ellipse cx="106" cy="302" rx="128" ry="136" fill="#EFF5FF"/>
</g>
<g filter="url(#filter1_f_2018_461)">
<ellipse cx="144.5" cy="108" rx="144.5" ry="138" fill="white"/>
</g>
<path d="M16.386 71V57.59H18.51V69.11H24.306V71H16.386ZM28.8071 71.216C28.1471 71.216 27.5651 71.102 27.0611 70.874C26.5691 70.634 26.1851 70.31 25.9091 69.902C25.6331 69.482 25.4951 68.99 25.4951 68.426C25.4951 67.898 25.6091 67.424 25.8371 67.004C26.0771 66.584 26.4431 66.23 26.9351 65.942C27.4271 65.654 28.0451 65.45 28.7891 65.33L32.1731 64.772V66.374L29.1851 66.896C28.6451 66.992 28.2491 67.166 27.9971 67.418C27.7451 67.658 27.6191 67.97 27.6191 68.354C27.6191 68.726 27.7571 69.032 28.0331 69.272C28.3211 69.5 28.6871 69.614 29.1311 69.614C29.6831 69.614 30.1631 69.494 30.5711 69.254C30.9911 69.014 31.3151 68.696 31.5431 68.3C31.7711 67.892 31.8851 67.442 31.8851 66.95V64.448C31.8851 63.968 31.7051 63.578 31.3451 63.278C30.9971 62.966 30.5291 62.81 29.9411 62.81C29.4011 62.81 28.9271 62.954 28.5191 63.242C28.1231 63.518 27.8291 63.878 27.6371 64.322L25.9451 63.476C26.1251 62.996 26.4191 62.576 26.8271 62.216C27.2351 61.844 27.7091 61.556 28.2491 61.352C28.8011 61.148 29.3831 61.046 29.9951 61.046C30.7631 61.046 31.4411 61.19 32.0291 61.478C32.6291 61.766 33.0911 62.168 33.4151 62.684C33.7511 63.188 33.9191 63.776 33.9191 64.448V71H31.9751V69.236L32.3891 69.29C32.1611 69.686 31.8671 70.028 31.5071 70.316C31.1591 70.604 30.7571 70.826 30.3011 70.982C29.8571 71.138 29.3591 71.216 28.8071 71.216ZM39.7714 71.216C39.0394 71.216 38.3974 71.054 37.8454 70.73C37.2934 70.394 36.8614 69.932 36.5494 69.344C36.2494 68.744 36.0994 68.054 36.0994 67.274V61.262H38.1334V67.094C38.1334 67.538 38.2234 67.928 38.4034 68.264C38.5834 68.6 38.8354 68.864 39.1594 69.056C39.4834 69.236 39.8554 69.326 40.2754 69.326C40.7074 69.326 41.0854 69.23 41.4094 69.038C41.7334 68.846 41.9854 68.576 42.1654 68.228C42.3574 67.88 42.4534 67.472 42.4534 67.004V61.262H44.4694V71H42.5434V69.092L42.7594 69.344C42.5314 69.944 42.1534 70.406 41.6254 70.73C41.0974 71.054 40.4794 71.216 39.7714 71.216ZM46.8442 71V61.262H48.7883V63.17L48.5543 62.918C48.7943 62.306 49.1783 61.844 49.7063 61.532C50.2343 61.208 50.8463 61.046 51.5423 61.046C52.2623 61.046 52.8983 61.202 53.4503 61.514C54.0023 61.826 54.4343 62.258 54.7462 62.81C55.0583 63.362 55.2143 63.998 55.2143 64.718V71H53.1983V65.258C53.1983 64.766 53.1083 64.352 52.9283 64.016C52.7483 63.668 52.4903 63.404 52.1543 63.224C51.8303 63.032 51.4583 62.936 51.0383 62.936C50.6183 62.936 50.2403 63.032 49.9043 63.224C49.5803 63.404 49.3283 63.668 49.1483 64.016C48.9683 64.364 48.8783 64.778 48.8783 65.258V71H46.8442ZM62.0171 71.216C61.0451 71.216 60.1811 70.994 59.4251 70.55C58.6811 70.094 58.0871 69.482 57.6431 68.714C57.2111 67.946 56.9951 67.076 56.9951 66.104C56.9951 65.144 57.2111 64.28 57.6431 63.512C58.0751 62.744 58.6691 62.144 59.4251 61.712C60.1811 61.268 61.0451 61.046 62.0171 61.046C62.6771 61.046 63.2951 61.166 63.8711 61.406C64.4471 61.634 64.9451 61.952 65.3651 62.36C65.7971 62.768 66.1151 63.242 66.3191 63.782L64.5371 64.61C64.3331 64.106 64.0031 63.704 63.5471 63.404C63.1031 63.092 62.5931 62.936 62.0171 62.936C61.4651 62.936 60.9671 63.074 60.5231 63.35C60.0911 63.614 59.7491 63.992 59.4971 64.484C59.2451 64.964 59.1191 65.51 59.1191 66.122C59.1191 66.734 59.2451 67.286 59.4971 67.778C59.7491 68.258 60.0911 68.636 60.5231 68.912C60.9671 69.188 61.4651 69.326 62.0171 69.326C62.6051 69.326 63.1151 69.176 63.5471 68.876C63.9911 68.564 64.3211 68.15 64.5371 67.634L66.3191 68.48C66.1271 68.996 65.8151 69.464 65.3831 69.884C64.9631 70.292 64.4651 70.616 63.8891 70.856C63.3131 71.096 62.6891 71.216 62.0171 71.216ZM68.3071 71V57.374H70.3411V63.17L70.0171 62.918C70.2571 62.306 70.6411 61.844 71.1691 61.532C71.6971 61.208 72.3091 61.046 73.0051 61.046C73.7251 61.046 74.3611 61.202 74.9131 61.514C75.4651 61.826 75.8971 62.258 76.2091 62.81C76.5211 63.362 76.6771 63.992 76.6771 64.7V71H74.6611V65.258C74.6611 64.766 74.5651 64.352 74.3731 64.016C74.1931 63.668 73.9411 63.404 73.6171 63.224C73.2931 63.032 72.9211 62.936 72.5011 62.936C72.0931 62.936 71.7211 63.032 71.3851 63.224C71.0611 63.404 70.8031 63.668 70.6111 64.016C70.4311 64.364 70.3411 64.778 70.3411 65.258V71H68.3071ZM82.1985 71V57.59H87.0765C87.9765 57.59 88.7685 57.758 89.4525 58.094C90.1485 58.418 90.6885 58.898 91.0725 59.534C91.4565 60.158 91.6485 60.908 91.6485 61.784C91.6485 62.648 91.4505 63.392 91.0545 64.016C90.6705 64.64 90.1365 65.12 89.4525 65.456C88.7685 65.792 87.9765 65.96 87.0765 65.96H84.3225V71H82.1985ZM84.3225 64.07H87.1305C87.6105 64.07 88.0305 63.974 88.3905 63.782C88.7505 63.59 89.0325 63.326 89.2365 62.99C89.4405 62.642 89.5425 62.234 89.5425 61.766C89.5425 61.298 89.4405 60.896 89.2365 60.56C89.0325 60.212 88.7505 59.948 88.3905 59.768C88.0305 59.576 87.6105 59.48 87.1305 59.48H84.3225V64.07ZM93.6372 71V57.374H95.6712V71H93.6372ZM100.965 71.216C100.305 71.216 99.7233 71.102 99.2193 70.874C98.7273 70.634 98.3433 70.31 98.0673 69.902C97.7913 69.482 97.6533 68.99 97.6533 68.426C97.6533 67.898 97.7673 67.424 97.9953 67.004C98.2353 66.584 98.6013 66.23 99.0933 65.942C99.5853 65.654 100.203 65.45 100.947 65.33L104.331 64.772V66.374L101.343 66.896C100.803 66.992 100.407 67.166 100.155 67.418C99.9033 67.658 99.7773 67.97 99.7773 68.354C99.7773 68.726 99.9153 69.032 100.191 69.272C100.479 69.5 100.845 69.614 101.289 69.614C101.841 69.614 102.321 69.494 102.729 69.254C103.149 69.014 103.473 68.696 103.701 68.3C103.929 67.892 104.043 67.442 104.043 66.95V64.448C104.043 63.968 103.863 63.578 103.503 63.278C103.155 62.966 102.687 62.81 102.099 62.81C101.559 62.81 101.085 62.954 100.677 63.242C100.281 63.518 99.9873 63.878 99.7953 64.322L98.1033 63.476C98.2833 62.996 98.5773 62.576 98.9853 62.216C99.3933 61.844 99.8673 61.556 100.407 61.352C100.959 61.148 101.541 61.046 102.153 61.046C102.921 61.046 103.599 61.19 104.187 61.478C104.787 61.766 105.249 62.168 105.573 62.684C105.909 63.188 106.077 63.776 106.077 64.448V71H104.133V69.236L104.547 69.29C104.319 69.686 104.025 70.028 103.665 70.316C103.317 70.604 102.915 70.826 102.459 70.982C102.015 71.138 101.517 71.216 100.965 71.216ZM108.456 71V61.262H110.4V63.17L110.166 62.918C110.406 62.306 110.79 61.844 111.318 61.532C111.846 61.208 112.458 61.046 113.154 61.046C113.874 61.046 114.51 61.202 115.062 61.514C115.614 61.826 116.046 62.258 116.358 62.81C116.67 63.362 116.826 63.998 116.826 64.718V71H114.81V65.258C114.81 64.766 114.72 64.352 114.54 64.016C114.36 63.668 114.102 63.404 113.766 63.224C113.442 63.032 113.07 62.936 112.65 62.936C112.23 62.936 111.852 63.032 111.516 63.224C111.192 63.404 110.94 63.668 110.76 64.016C110.58 64.364 110.49 64.778 110.49 65.258V71H108.456Z" fill="#404040"/>
<g filter="url(#filter2_d_2018_461)">
<g clip-path="url(#clip1_2018_461)">
<rect x="15" y="15" width="29" height="28" rx="6" fill="url(#paint1_linear_2018_461)"/>
<path d="M25.31 35.18C24.42 35.18 23.64 34.94 22.97 34.46C22.3 33.98 21.775 33.305 21.395 32.435C21.025 31.565 20.84 30.555 20.84 29.405C20.84 28.245 21.025 27.235 21.395 26.375C21.765 25.515 22.285 24.845 22.955 24.365C23.625 23.885 24.405 23.645 25.295 23.645C26.205 23.645 26.99 23.885 27.65 24.365C28.32 24.845 28.845 25.52 29.225 26.39C29.605 27.25 29.795 28.255 29.795 29.405C29.795 30.555 29.605 31.565 29.225 32.435C28.855 33.295 28.335 33.97 27.665 34.46C26.995 34.94 26.21 35.18 25.31 35.18ZM25.325 33.32C25.835 33.32 26.27 33.165 26.63 32.855C26.99 32.535 27.265 32.085 27.455 31.505C27.655 30.915 27.755 30.215 27.755 29.405C27.755 28.595 27.655 27.9 27.455 27.32C27.265 26.73 26.985 26.28 26.615 25.97C26.255 25.66 25.815 25.505 25.295 25.505C24.795 25.505 24.365 25.66 24.005 25.97C23.645 26.28 23.365 26.73 23.165 27.32C22.975 27.9 22.88 28.595 22.88 29.405C22.88 30.205 22.975 30.9 23.165 31.49C23.365 32.07 23.645 32.52 24.005 32.84C24.375 33.16 24.815 33.32 25.325 33.32ZM31.3101 35V33.455L34.3401 30.29C34.9401 29.66 35.4001 29.16 35.7201 28.79C36.0501 28.41 36.2801 28.085 36.4101 27.815C36.5401 27.545 36.6051 27.27 36.6051 26.99C36.6051 26.52 36.4551 26.15 36.1551 25.88C35.8651 25.61 35.4901 25.475 35.0301 25.475C34.5501 25.475 34.1351 25.615 33.7851 25.895C33.4351 26.165 33.1801 26.565 33.0201 27.095L31.2351 26.54C31.3551 25.95 31.6001 25.44 31.9701 25.01C32.3401 24.57 32.7901 24.235 33.3201 24.005C33.8601 23.765 34.4301 23.645 35.0301 23.645C35.7501 23.645 36.3801 23.775 36.9201 24.035C37.4701 24.295 37.8951 24.66 38.1951 25.13C38.5051 25.6 38.6601 26.15 38.6601 26.78C38.6601 27.18 38.5851 27.575 38.4351 27.965C38.2851 28.355 38.0601 28.755 37.7601 29.165C37.4601 29.565 37.0701 30.015 36.5901 30.515L33.9651 33.275H38.8101V35H31.3101Z" fill="white"/>
</g>
</g>
<path d="M178.904 336V350.529C178.904 350.529 180.646 354.379 169.32 355H114" stroke="url(#paint2_linear_2018_461)" stroke-width="2"/>
<path d="M176.906 246V231.471C176.906 231.471 178.595 227.621 167.618 227H114" stroke="url(#paint3_linear_2018_461)" stroke-width="2"/>
<path d="M136 292L112 292" stroke="url(#paint4_linear_2018_461)" stroke-width="2"/>
<g filter="url(#filter3_d_2018_461)">
<rect x="16" y="214" width="98" height="30" rx="8" fill="white"/>
<path d="M23 230.5C23 230.5 24.5 230.5 26.5 234C26.5 234 32.059 224.833 37 223" stroke="#00B100" stroke-width="2.5" stroke-linecap="round" stroke-linejoin="round"/>
<rect x="42" y="220" width="64" height="6" rx="3" fill="#D8EDFF"/>
<rect x="42" y="230" width="43" height="6" rx="3" fill="#D8EDFF"/>
</g>
<g filter="url(#filter4_d_2018_461)">
<rect x="16" y="276" width="98" height="30" rx="8" fill="white"/>
<path d="M23 292.5C23 292.5 24.5 292.5 26.5 296C26.5 296 32.059 286.833 37 285" stroke="#00B100" stroke-width="2.5" stroke-linecap="round" stroke-linejoin="round"/>
<rect x="42" y="282" width="64" height="6" rx="3" fill="#D8EDFF"/>
<rect x="42" y="292" width="43" height="6" rx="3" fill="#D8EDFF"/>
</g>
<g filter="url(#filter5_d_2018_461)">
<rect x="16" y="340" width="98" height="30" rx="8" fill="white"/>
<path d="M23 356.5C23 356.5 24.5 356.5 26.5 360C26.5 360 32.059 350.833 37 349" stroke="#00B100" stroke-width="2.5" stroke-linecap="round" stroke-linejoin="round"/>
<rect x="42" y="346" width="64" height="6" rx="3" fill="#D8EDFF"/>
<rect x="42" y="356" width="43" height="6" rx="3" fill="#D8EDFF"/>
</g>
<path d="M238 292L214 292" stroke="url(#paint5_linear_2018_461)" stroke-width="2"/>
<g filter="url(#filter6_d_2018_461)">
<path d="M127 264C127 254.059 135.059 246 145 246H190C199.941 246 208 254.059 208 264V311C208 320.941 199.941 329 190 329H145C135.059 329 127 320.941 127 311V264Z" fill="white"/>
</g>
<g filter="url(#filter7_d_2018_461)">
<path d="M237 233C237 227.477 241.477 223 247 223H318C323.523 223 328 227.477 328 233V344C328 349.523 323.523 354 318 354H247C241.477 354 237 349.523 237 344V233Z" fill="white"/>
<path d="M243 234.776C243 233.582 243.863 230.955 247.315 230H269.966H279.135H287.764L291 235.373V270H283.989H276.438H243V234.776Z" fill="#EEF5FF"/>
<path d="M269.966 230C261.12 230 247.315 230 247.315 230C243.863 230.955 243 233.582 243 234.776V270C243 270 263.38 270 276.438 270M269.966 230C272.494 232.331 276.438 235.97 276.438 235.97M269.966 230C269.966 232.331 269.966 235.97 269.966 235.97H276.438M269.966 230C273.547 230 275.554 230 279.135 230M276.438 235.97C276.438 235.97 276.438 256.711 276.438 270M276.438 270C279.387 270 283.989 270 283.989 270M279.135 230C281.03 232.098 283.989 235.373 283.989 235.373V270M279.135 230C282.505 230 287.764 230 287.764 230L291 235.373V270H283.989" stroke="#A7CBF6"/>
<rect x="243.5" y="283.5" width="78" height="63" rx="8.5" stroke="#D7EAFF"/>
<rect x="296" y="240" width="28" height="4" rx="2" fill="#D8EDFF"/>
<rect x="277.5" y="287.5" width="27" height="3" rx="1.5" fill="#EEF5FF" stroke="#A7CBF6"/>
<rect x="246.5" y="286.5" width="27" height="25" rx="5.5" fill="#EEF5FF" stroke="#A7CBF6"/>
<rect x="296" y="249" width="28" height="4" rx="2" fill="#D8EDFF"/>
<rect x="277.5" y="296.5" width="27" height="3" rx="1.5" fill="#EEF5FF" stroke="#A7CBF6"/>
<rect x="296" y="258" width="28" height="4" rx="2" fill="#D8EDFF"/>
<rect x="277.5" y="305.5" width="27" height="3" rx="1.5" fill="#EEF5FF" stroke="#A7CBF6"/>
<rect x="309.5" y="286.5" width="9" height="54" rx="4.5" fill="#EEF5FF" stroke="#A7CBF6"/>
<rect x="246.5" y="315.5" width="60" height="25" rx="5.5" fill="#EEF5FF" stroke="#A7CBF6"/>
</g>
<mask id="path-58-inside-1_2018_461" fill="white">
<path d="M136 273C136 261.954 144.954 253 156 253H197C208.046 253 217 261.954 217 273V316C217 327.046 208.046 336 197 336H156C144.954 336 136 327.046 136 316V273Z"/>
</mask>
<path d="M136 273C136 261.954 144.954 253 156 253H197C208.046 253 217 261.954 217 273V316C217 327.046 208.046 336 197 336H156C144.954 336 136 327.046 136 316V273Z" fill="url(#paint6_linear_2018_461)"/>
<path d="M135 272C135 260.402 144.402 251 156 251H197C208.598 251 218 260.402 218 272L216 273C216 263.059 207.493 255 197 255H156C145.507 255 137 263.059 137 273L135 272ZM218 316C218 327.598 208.598 337 197 337H156C144.402 337 135 327.598 135 316H137C137 326.493 145.507 335 156 335H197C207.493 335 216 326.493 216 316H218ZM156 337C144.402 337 135 327.598 135 316V272C135 260.402 144.402 251 156 251V255C145.507 255 137 263.059 137 273V316C137 326.493 145.507 335 156 335V337ZM197 251C208.598 251 218 260.402 218 272V316C218 327.598 208.598 337 197 337V335C207.493 335 216 326.493 216 316V273C216 263.059 207.493 255 197 255V251Z" fill="url(#paint7_linear_2018_461)" mask="url(#path-58-inside-1_2018_461)"/>
<line x1="168.5" y1="281.5" x2="203.5" y2="281.5" stroke="white" stroke-width="3" stroke-linecap="round"/>
<line x1="168.5" y1="295.5" x2="203.5" y2="295.5" stroke="white" stroke-width="3" stroke-linecap="round"/>
<line x1="168.5" y1="309.5" x2="203.5" y2="309.5" stroke="white" stroke-width="3" stroke-linecap="round"/>
<path d="M146.922 281.297L150.641 285.016L158.078 277.047" stroke="white" stroke-width="1.5" stroke-linecap="round" stroke-linejoin="round"/>
<path d="M147.922 296.297L151.641 300.016L159.078 292.047" stroke="white" stroke-width="1.5" stroke-linecap="round" stroke-linejoin="round"/>
<path d="M148.922 311.297L152.641 315.016L160.078 307.047" stroke="white" stroke-width="1.5" stroke-linecap="round" stroke-linejoin="round"/>
</g>
<path d="M18.15 101L15.154 90.57H16.288L18.878 99.908H18.64L21.3 90.57H22.49L25.136 99.908H24.884L27.488 90.57H28.622L25.626 101H24.436L21.762 91.62H22.014L19.34 101H18.15ZM32.7147 101.168C32.0147 101.168 31.38 101 30.8107 100.664C30.2507 100.319 29.8074 99.8473 29.4807 99.25C29.154 98.6527 28.9907 97.976 28.9907 97.22C28.9907 96.464 29.1494 95.7967 29.4667 95.218C29.784 94.63 30.2134 94.168 30.7547 93.832C31.3054 93.496 31.9214 93.328 32.6027 93.328C33.144 93.328 33.6247 93.4307 34.0447 93.636C34.474 93.832 34.838 94.1027 35.1367 94.448C35.4354 94.784 35.664 95.1667 35.8227 95.596C35.9814 96.016 36.0607 96.45 36.0607 96.898C36.0607 96.9913 36.056 97.0987 36.0467 97.22C36.0374 97.332 36.0234 97.4487 36.0047 97.57H29.6627V96.59H35.4027L34.8987 97.01C34.9827 96.4967 34.922 96.0393 34.7167 95.638C34.5207 95.2273 34.236 94.9053 33.8627 94.672C33.4894 94.4293 33.0694 94.308 32.6027 94.308C32.136 94.308 31.702 94.4293 31.3007 94.672C30.9087 94.9147 30.6007 95.2553 30.3767 95.694C30.1527 96.1233 30.064 96.6367 30.1107 97.234C30.064 97.8313 30.1574 98.354 30.3907 98.802C30.6334 99.2407 30.96 99.5813 31.3707 99.824C31.7907 100.067 32.2387 100.188 32.7147 100.188C33.2654 100.188 33.7274 100.057 34.1007 99.796C34.474 99.5347 34.7774 99.208 35.0107 98.816L35.9067 99.292C35.7574 99.628 35.5287 99.9407 35.2207 100.23C34.9127 100.51 34.544 100.739 34.1147 100.916C33.6947 101.084 33.228 101.168 32.7147 101.168ZM40.2909 101V93.496H41.3409V94.924L41.1729 94.714C41.3782 94.2753 41.6816 93.9347 42.0829 93.692C42.4936 93.4493 42.9416 93.328 43.4269 93.328C44.0056 93.328 44.5282 93.4913 44.9949 93.818C45.4616 94.1447 45.7929 94.5693 45.9889 95.092L45.6949 95.106C45.8816 94.5273 46.2036 94.0887 46.6609 93.79C47.1276 93.482 47.6409 93.328 48.2009 93.328C48.7049 93.328 49.1669 93.4493 49.5869 93.692C50.0162 93.9347 50.3569 94.2707 50.6089 94.7C50.8702 95.12 51.0009 95.596 51.0009 96.128V101H49.9509V96.534C49.9509 96.0767 49.8669 95.6893 49.6989 95.372C49.5402 95.0547 49.3209 94.812 49.0409 94.644C48.7609 94.4667 48.4389 94.378 48.0749 94.378C47.7202 94.378 47.3982 94.4667 47.1089 94.644C46.8196 94.812 46.5909 95.0593 46.4229 95.386C46.2549 95.7033 46.1709 96.086 46.1709 96.534V101H45.1209V96.534C45.1209 96.0767 45.0369 95.6893 44.8689 95.372C44.7102 95.0547 44.4909 94.812 44.2109 94.644C43.9309 94.4667 43.6089 94.378 43.2449 94.378C42.8809 94.378 42.5542 94.4667 42.2649 94.644C41.9849 94.812 41.7609 95.0593 41.5929 95.386C41.4249 95.7033 41.3409 96.086 41.3409 96.534V101H40.2909ZM55.1757 101.168C54.6997 101.168 54.2751 101.079 53.9017 100.902C53.5284 100.715 53.2344 100.463 53.0197 100.146C52.8051 99.8287 52.6977 99.4647 52.6977 99.054C52.6977 98.662 52.7817 98.3073 52.9497 97.99C53.1177 97.6633 53.3791 97.388 53.7337 97.164C54.0884 96.94 54.5411 96.7813 55.0917 96.688L58.0317 96.198V97.15L55.3437 97.598C54.8024 97.6913 54.4104 97.864 54.1677 98.116C53.9344 98.368 53.8177 98.6667 53.8177 99.012C53.8177 99.348 53.9484 99.6327 54.2097 99.866C54.4804 100.099 54.8257 100.216 55.2457 100.216C55.7591 100.216 56.2071 100.109 56.5897 99.894C56.9724 99.67 57.2711 99.3713 57.4857 98.998C57.7004 98.6247 57.8077 98.2093 57.8077 97.752V95.848C57.8077 95.4 57.6444 95.036 57.3177 94.756C56.9911 94.476 56.5664 94.336 56.0437 94.336C55.5864 94.336 55.1851 94.4527 54.8397 94.686C54.4944 94.91 54.2377 95.204 54.0697 95.568L53.1177 95.05C53.2577 94.7327 53.4771 94.4433 53.7757 94.182C54.0837 93.9207 54.4337 93.7153 54.8257 93.566C55.2177 93.4073 55.6237 93.328 56.0437 93.328C56.5944 93.328 57.0797 93.4353 57.4997 93.65C57.9291 93.8647 58.2604 94.1633 58.4937 94.546C58.7364 94.9193 58.8577 95.3533 58.8577 95.848V101H57.8077V99.502L57.9617 99.656C57.8311 99.936 57.6257 100.193 57.3457 100.426C57.0751 100.65 56.7531 100.832 56.3797 100.972C56.0157 101.103 55.6144 101.168 55.1757 101.168ZM61.0175 103.8V93.496H62.0675V95.176L61.8995 94.882C62.1981 94.406 62.5948 94.028 63.0895 93.748C63.5935 93.468 64.1675 93.328 64.8115 93.328C65.5208 93.328 66.1508 93.5007 66.7015 93.846C67.2615 94.182 67.7001 94.644 68.0175 95.232C68.3441 95.82 68.5075 96.492 68.5075 97.248C68.5075 97.9947 68.3441 98.6667 68.0175 99.264C67.7001 99.852 67.2615 100.319 66.7015 100.664C66.1508 101 65.5208 101.168 64.8115 101.168C64.1675 101.168 63.5841 101.023 63.0615 100.734C62.5481 100.435 62.1608 100.015 61.8995 99.474L62.0675 99.32V103.8H61.0175ZM64.7555 100.118C65.2595 100.118 65.7075 99.992 66.0995 99.74C66.5008 99.488 66.8135 99.1473 67.0375 98.718C67.2708 98.2793 67.3875 97.7893 67.3875 97.248C67.3875 96.6973 67.2708 96.2073 67.0375 95.778C66.8135 95.3487 66.5008 95.008 66.0995 94.756C65.7075 94.504 65.2595 94.378 64.7555 94.378C64.2515 94.378 63.7941 94.504 63.3835 94.756C62.9821 95.008 62.6601 95.3533 62.4175 95.792C62.1841 96.2213 62.0675 96.7067 62.0675 97.248C62.0675 97.7893 62.1841 98.2793 62.4175 98.718C62.6601 99.1473 62.9821 99.488 63.3835 99.74C63.7941 99.992 64.2515 100.118 64.7555 100.118ZM72.8883 104.08C72.7389 104.08 72.5849 104.066 72.4263 104.038C72.2769 104.019 72.1276 103.982 71.9783 103.926V102.946C72.0716 102.955 72.1883 102.969 72.3283 102.988C72.4776 103.016 72.6269 103.03 72.7763 103.03C73.2336 103.03 73.5836 102.932 73.8263 102.736C74.0689 102.549 74.3069 102.185 74.5403 101.644L75.0163 100.524L74.9883 101.448L71.8103 93.496H72.9443L75.5483 100.062H75.2542L77.8443 93.496H79.0063L75.5763 101.952C75.4269 102.316 75.2356 102.661 75.0023 102.988C74.7783 103.315 74.4936 103.576 74.1483 103.772C73.8029 103.977 73.3829 104.08 72.8883 104.08ZM83.6174 101.168C82.9081 101.168 82.2641 101 81.6854 100.664C81.1067 100.319 80.6447 99.852 80.2994 99.264C79.9634 98.6667 79.7954 97.99 79.7954 97.234C79.7954 96.4873 79.9634 95.82 80.2994 95.232C80.6354 94.644 81.0881 94.182 81.6574 93.846C82.2361 93.5007 82.8894 93.328 83.6174 93.328C84.3454 93.328 84.9941 93.496 85.5634 93.832C86.1421 94.168 86.5947 94.63 86.9214 95.218C87.2574 95.806 87.4254 96.478 87.4254 97.234C87.4254 97.9993 87.2527 98.6807 86.9074 99.278C86.5621 99.866 86.1001 100.328 85.5214 100.664C84.9521 101 84.3174 101.168 83.6174 101.168ZM83.6174 100.118C84.1214 100.118 84.5741 99.992 84.9754 99.74C85.3861 99.488 85.7081 99.1427 85.9414 98.704C86.1841 98.2653 86.3054 97.7753 86.3054 97.234C86.3054 96.6927 86.1841 96.2073 85.9414 95.778C85.7081 95.3487 85.3861 95.008 84.9754 94.756C84.5741 94.504 84.1214 94.378 83.6174 94.378C83.1134 94.378 82.6561 94.504 82.2454 94.756C81.8441 95.008 81.5221 95.3487 81.2794 95.778C81.0367 96.2073 80.9154 96.6927 80.9154 97.234C80.9154 97.7753 81.0367 98.2653 81.2794 98.704C81.5221 99.1427 81.8441 99.488 82.2454 99.74C82.6561 99.992 83.1134 100.118 83.6174 100.118ZM91.9372 101.168C91.4146 101.168 90.9386 101.047 90.5092 100.804C90.0799 100.552 89.7392 100.207 89.4872 99.768C89.2446 99.32 89.1232 98.8067 89.1232 98.228V93.496H90.1732V98.102C90.1732 98.5033 90.2526 98.858 90.4112 99.166C90.5792 99.4647 90.8079 99.698 91.0972 99.866C91.3959 100.034 91.7366 100.118 92.1192 100.118C92.5019 100.118 92.8426 100.034 93.1412 99.866C93.4399 99.6887 93.6732 99.4413 93.8412 99.124C94.0092 98.7973 94.0932 98.41 94.0932 97.962V93.496H95.1432V101H94.0932V99.544L94.3312 99.6C94.1539 100.085 93.8506 100.468 93.4212 100.748C92.9919 101.028 92.4972 101.168 91.9372 101.168ZM97.3026 101V93.496H98.3526V94.728L98.2126 94.546C98.3899 94.1913 98.6559 93.9113 99.0106 93.706C99.3746 93.5007 99.8133 93.398 100.327 93.398H100.803V94.448H100.145C99.6033 94.448 99.1693 94.616 98.8426 94.952C98.5159 95.288 98.3526 95.764 98.3526 96.38V101H97.3026ZM104.566 101V90.57H105.546L109.466 96.254H108.92L112.826 90.57H113.806V101H112.686V92.082L113.05 92.222L109.214 97.78H109.158L105.336 92.222L105.686 92.082V101H104.566ZM119.013 101L115.191 90.57H116.353L119.713 100.006H119.489L122.835 90.57H124.011L120.189 101H119.013ZM125.402 101V90.57H128.986C129.667 90.57 130.265 90.7053 130.778 90.976C131.291 91.2373 131.688 91.6107 131.968 92.096C132.257 92.572 132.402 93.1273 132.402 93.762C132.402 94.3967 132.257 94.952 131.968 95.428C131.688 95.904 131.291 96.2773 130.778 96.548C130.274 96.8093 129.677 96.94 128.986 96.94H126.522V101H125.402ZM126.522 95.89H129.042C129.49 95.89 129.882 95.806 130.218 95.638C130.554 95.4607 130.815 95.2133 131.002 94.896C131.189 94.5693 131.282 94.1867 131.282 93.748C131.282 93.3093 131.189 92.9313 131.002 92.614C130.815 92.2967 130.554 92.054 130.218 91.886C129.882 91.7087 129.49 91.62 129.042 91.62H126.522V95.89ZM140.417 101.168C139.773 101.168 139.19 101.023 138.667 100.734C138.154 100.435 137.766 100.015 137.505 99.474L137.673 99.32V101H136.623V90.402H137.673V95.176L137.505 94.882C137.804 94.406 138.2 94.028 138.695 93.748C139.199 93.468 139.773 93.328 140.417 93.328C141.126 93.328 141.756 93.5007 142.307 93.846C142.867 94.182 143.306 94.644 143.623 95.232C143.95 95.82 144.113 96.492 144.113 97.248C144.113 97.9947 143.95 98.6667 143.623 99.264C143.306 99.852 142.867 100.319 142.307 100.664C141.756 101 141.126 101.168 140.417 101.168ZM140.361 100.118C140.865 100.118 141.313 99.992 141.705 99.74C142.106 99.488 142.419 99.1473 142.643 98.718C142.876 98.2793 142.993 97.7893 142.993 97.248C142.993 96.6973 142.876 96.2073 142.643 95.778C142.419 95.3487 142.106 95.008 141.705 94.756C141.313 94.504 140.865 94.378 140.361 94.378C139.857 94.378 139.4 94.504 138.989 94.756C138.588 95.008 138.266 95.3533 138.023 95.792C137.79 96.2213 137.673 96.7067 137.673 97.248C137.673 97.7893 137.79 98.2793 138.023 98.718C138.266 99.1473 138.588 99.488 138.989 99.74C139.4 99.992 139.857 100.118 140.361 100.118ZM145.961 101V90.402H147.011V101H145.961ZM151.82 101.168C151.297 101.168 150.821 101.047 150.392 100.804C149.963 100.552 149.622 100.207 149.37 99.768C149.127 99.32 149.006 98.8067 149.006 98.228V93.496H150.056V98.102C150.056 98.5033 150.135 98.858 150.294 99.166C150.462 99.4647 150.691 99.698 150.98 99.866C151.279 100.034 151.619 100.118 152.002 100.118C152.385 100.118 152.725 100.034 153.024 99.866C153.323 99.6887 153.556 99.4413 153.724 99.124C153.892 98.7973 153.976 98.41 153.976 97.962V93.496H155.026V101H153.976V99.544L154.214 99.6C154.037 100.085 153.733 100.468 153.304 100.748C152.875 101.028 152.38 101.168 151.82 101.168ZM160.601 101.168C159.901 101.168 159.267 101 158.697 100.664C158.137 100.319 157.694 99.8473 157.367 99.25C157.041 98.6527 156.877 97.976 156.877 97.22C156.877 96.464 157.036 95.7967 157.353 95.218C157.671 94.63 158.1 94.168 158.641 93.832C159.192 93.496 159.808 93.328 160.489 93.328C161.031 93.328 161.511 93.4307 161.931 93.636C162.361 93.832 162.725 94.1027 163.023 94.448C163.322 94.784 163.551 95.1667 163.709 95.596C163.868 96.016 163.947 96.45 163.947 96.898C163.947 96.9913 163.943 97.0987 163.933 97.22C163.924 97.332 163.91 97.4487 163.891 97.57H157.549V96.59H163.289L162.785 97.01C162.869 96.4967 162.809 96.0393 162.603 95.638C162.407 95.2273 162.123 94.9053 161.749 94.672C161.376 94.4293 160.956 94.308 160.489 94.308C160.023 94.308 159.589 94.4293 159.187 94.672C158.795 94.9147 158.487 95.2553 158.263 95.694C158.039 96.1233 157.951 96.6367 157.997 97.234C157.951 97.8313 158.044 98.354 158.277 98.802C158.52 99.2407 158.847 99.5813 159.257 99.824C159.677 100.067 160.125 100.188 160.601 100.188C161.152 100.188 161.614 100.057 161.987 99.796C162.361 99.5347 162.664 99.208 162.897 98.816L163.793 99.292C163.644 99.628 163.415 99.9407 163.107 100.23C162.799 100.51 162.431 100.739 162.001 100.916C161.581 101.084 161.115 101.168 160.601 101.168ZM165.799 103.8V93.496H166.849V95.176L166.681 94.882C166.979 94.406 167.376 94.028 167.871 93.748C168.375 93.468 168.949 93.328 169.593 93.328C170.302 93.328 170.932 93.5007 171.483 93.846C172.043 94.182 172.481 94.644 172.799 95.232C173.125 95.82 173.289 96.492 173.289 97.248C173.289 97.9947 173.125 98.6667 172.799 99.264C172.481 99.852 172.043 100.319 171.483 100.664C170.932 101 170.302 101.168 169.593 101.168C168.949 101.168 168.365 101.023 167.843 100.734C167.329 100.435 166.942 100.015 166.681 99.474L166.849 99.32V103.8H165.799ZM169.537 100.118C170.041 100.118 170.489 99.992 170.881 99.74C171.282 99.488 171.595 99.1473 171.819 98.718C172.052 98.2793 172.169 97.7893 172.169 97.248C172.169 96.6973 172.052 96.2073 171.819 95.778C171.595 95.3487 171.282 95.008 170.881 94.756C170.489 94.504 170.041 94.378 169.537 94.378C169.033 94.378 168.575 94.504 168.165 94.756C167.763 95.008 167.441 95.3533 167.199 95.792C166.965 96.2213 166.849 96.7067 166.849 97.248C166.849 97.7893 166.965 98.2793 167.199 98.718C167.441 99.1473 167.763 99.488 168.165 99.74C168.575 99.992 169.033 100.118 169.537 100.118ZM175.137 101V93.496H176.187V94.728L176.047 94.546C176.224 94.1913 176.49 93.9113 176.845 93.706C177.209 93.5007 177.647 93.398 178.161 93.398H178.637V94.448H177.979C177.437 94.448 177.003 94.616 176.677 94.952C176.35 95.288 176.187 95.764 176.187 96.38V101H175.137ZM179.867 101V93.496H180.917V101H179.867ZM179.867 92.11V90.57H180.917V92.11H179.867ZM183.066 101V93.496H184.116V94.952L183.878 94.896C184.065 94.4107 184.368 94.028 184.788 93.748C185.218 93.468 185.712 93.328 186.272 93.328C186.804 93.328 187.28 93.4493 187.7 93.692C188.13 93.9347 188.466 94.2707 188.708 94.7C188.96 95.12 189.086 95.596 189.086 96.128V101H188.036V96.534C188.036 96.0767 187.952 95.6893 187.784 95.372C187.626 95.0547 187.397 94.812 187.098 94.644C186.809 94.4667 186.473 94.378 186.09 94.378C185.708 94.378 185.367 94.4667 185.068 94.644C184.77 94.812 184.536 95.0593 184.368 95.386C184.2 95.7033 184.116 96.086 184.116 96.534V101H183.066ZM193.962 101.084C193.29 101.084 192.772 100.888 192.408 100.496C192.044 100.104 191.862 99.544 191.862 98.816V94.546H190.476V93.496H190.826C191.143 93.496 191.395 93.3933 191.582 93.188C191.768 92.9733 191.862 92.7073 191.862 92.39V91.76H192.912V93.496H194.564V94.546H192.912V98.816C192.912 99.068 192.949 99.292 193.024 99.488C193.098 99.6747 193.224 99.824 193.402 99.936C193.588 100.048 193.836 100.104 194.144 100.104C194.218 100.104 194.307 100.099 194.41 100.09C194.512 100.081 194.601 100.071 194.676 100.062V101C194.564 101.028 194.438 101.047 194.298 101.056C194.158 101.075 194.046 101.084 193.962 101.084ZM201.068 101.168C200.592 101.168 200.168 101.079 199.794 100.902C199.421 100.715 199.127 100.463 198.912 100.146C198.698 99.8287 198.59 99.4647 198.59 99.054C198.59 98.662 198.674 98.3073 198.842 97.99C199.01 97.6633 199.272 97.388 199.626 97.164C199.981 96.94 200.434 96.7813 200.984 96.688L203.924 96.198V97.15L201.236 97.598C200.695 97.6913 200.303 97.864 200.06 98.116C199.827 98.368 199.71 98.6667 199.71 99.012C199.71 99.348 199.841 99.6327 200.102 99.866C200.373 100.099 200.718 100.216 201.138 100.216C201.652 100.216 202.1 100.109 202.482 99.894C202.865 99.67 203.164 99.3713 203.378 98.998C203.593 98.6247 203.7 98.2093 203.7 97.752V95.848C203.7 95.4 203.537 95.036 203.21 94.756C202.884 94.476 202.459 94.336 201.936 94.336C201.479 94.336 201.078 94.4527 200.732 94.686C200.387 94.91 200.13 95.204 199.962 95.568L199.01 95.05C199.15 94.7327 199.37 94.4433 199.668 94.182C199.976 93.9207 200.326 93.7153 200.718 93.566C201.11 93.4073 201.516 93.328 201.936 93.328C202.487 93.328 202.972 93.4353 203.392 93.65C203.822 93.8647 204.153 94.1633 204.386 94.546C204.629 94.9193 204.75 95.3533 204.75 95.848V101H203.7V99.502L203.854 99.656C203.724 99.936 203.518 100.193 203.238 100.426C202.968 100.65 202.646 100.832 202.272 100.972C201.908 101.103 201.507 101.168 201.068 101.168ZM206.91 101V93.496H207.96V94.952L207.722 94.896C207.909 94.4107 208.212 94.028 208.632 93.748C209.061 93.468 209.556 93.328 210.116 93.328C210.648 93.328 211.124 93.4493 211.544 93.692C211.973 93.9347 212.309 94.2707 212.552 94.7C212.804 95.12 212.93 95.596 212.93 96.128V101H211.88V96.534C211.88 96.0767 211.796 95.6893 211.628 95.372C211.469 95.0547 211.241 94.812 210.942 94.644C210.653 94.4667 210.317 94.378 209.934 94.378C209.551 94.378 209.211 94.4667 208.912 94.644C208.613 94.812 208.38 95.0593 208.212 95.386C208.044 95.7033 207.96 96.086 207.96 96.534V101H206.91ZM218.323 101.168C217.623 101.168 216.993 101 216.433 100.664C215.873 100.319 215.43 99.852 215.103 99.264C214.786 98.6667 214.627 97.9947 214.627 97.248C214.627 96.492 214.786 95.82 215.103 95.232C215.43 94.644 215.869 94.182 216.419 93.846C216.979 93.5007 217.614 93.328 218.323 93.328C218.967 93.328 219.541 93.468 220.045 93.748C220.549 94.028 220.946 94.406 221.235 94.882L221.067 95.176V90.402H222.117V101H221.067V99.32L221.235 99.474C220.974 100.015 220.582 100.435 220.059 100.734C219.546 101.023 218.967 101.168 218.323 101.168ZM218.379 100.118C218.883 100.118 219.336 99.992 219.737 99.74C220.148 99.488 220.47 99.1473 220.703 98.718C220.946 98.2793 221.067 97.7893 221.067 97.248C221.067 96.7067 220.946 96.2213 220.703 95.792C220.47 95.3533 220.148 95.008 219.737 94.756C219.336 94.504 218.883 94.378 218.379 94.378C217.885 94.378 217.437 94.504 217.035 94.756C216.634 95.008 216.317 95.3487 216.083 95.778C215.859 96.2073 215.747 96.6973 215.747 97.248C215.747 97.7893 215.859 98.2793 216.083 98.718C216.317 99.1473 216.629 99.488 217.021 99.74C217.423 99.992 217.875 100.118 218.379 100.118ZM230.04 101.168C229.34 101.168 228.71 101 228.15 100.664C227.59 100.319 227.147 99.852 226.82 99.264C226.503 98.6667 226.344 97.9947 226.344 97.248C226.344 96.492 226.503 95.82 226.82 95.232C227.147 94.644 227.586 94.182 228.136 93.846C228.696 93.5007 229.331 93.328 230.04 93.328C230.684 93.328 231.258 93.468 231.762 93.748C232.266 94.028 232.663 94.406 232.952 94.882L232.784 95.176V90.402H233.834V101H232.784V99.32L232.952 99.474C232.691 100.015 232.299 100.435 231.776 100.734C231.263 101.023 230.684 101.168 230.04 101.168ZM230.096 100.118C230.6 100.118 231.053 99.992 231.454 99.74C231.865 99.488 232.187 99.1473 232.42 98.718C232.663 98.2793 232.784 97.7893 232.784 97.248C232.784 96.7067 232.663 96.2213 232.42 95.792C232.187 95.3533 231.865 95.008 231.454 94.756C231.053 94.504 230.6 94.378 230.096 94.378C229.602 94.378 229.154 94.504 228.752 94.756C228.351 95.008 228.034 95.3487 227.8 95.778C227.576 96.2073 227.464 96.6973 227.464 97.248C227.464 97.7893 227.576 98.2793 227.8 98.718C228.034 99.1473 228.346 99.488 228.738 99.74C229.14 99.992 229.592 100.118 230.096 100.118ZM239.406 101.168C238.706 101.168 238.071 101 237.502 100.664C236.942 100.319 236.499 99.8473 236.172 99.25C235.845 98.6527 235.682 97.976 235.682 97.22C235.682 96.464 235.841 95.7967 236.158 95.218C236.475 94.63 236.905 94.168 237.446 93.832C237.997 93.496 238.613 93.328 239.294 93.328C239.835 93.328 240.316 93.4307 240.736 93.636C241.165 93.832 241.529 94.1027 241.828 94.448C242.127 94.784 242.355 95.1667 242.514 95.596C242.673 96.016 242.752 96.45 242.752 96.898C242.752 96.9913 242.747 97.0987 242.738 97.22C242.729 97.332 242.715 97.4487 242.696 97.57H236.354V96.59H242.094L241.59 97.01C241.674 96.4967 241.613 96.0393 241.408 95.638C241.212 95.2273 240.927 94.9053 240.554 94.672C240.181 94.4293 239.761 94.308 239.294 94.308C238.827 94.308 238.393 94.4293 237.992 94.672C237.6 94.9147 237.292 95.2553 237.068 95.694C236.844 96.1233 236.755 96.6367 236.802 97.234C236.755 97.8313 236.849 98.354 237.082 98.802C237.325 99.2407 237.651 99.5813 238.062 99.824C238.482 100.067 238.93 100.188 239.406 100.188C239.957 100.188 240.419 100.057 240.792 99.796C241.165 99.5347 241.469 99.208 241.702 98.816L242.598 99.292C242.449 99.628 242.22 99.9407 241.912 100.23C241.604 100.51 241.235 100.739 240.806 100.916C240.386 101.084 239.919 101.168 239.406 101.168ZM244.603 101V90.402H245.653V101H244.603ZM247.803 101V93.496H248.853V101H247.803ZM247.803 92.11V90.57H248.853V92.11H247.803ZM253.004 101L250.078 93.496H251.254L253.718 100.076H253.34L255.818 93.496H257.008L254.054 101H253.004ZM261.514 101.168C260.814 101.168 260.179 101 259.61 100.664C259.05 100.319 258.606 99.8473 258.28 99.25C257.953 98.6527 257.79 97.976 257.79 97.22C257.79 96.464 257.948 95.7967 258.266 95.218C258.583 94.63 259.012 94.168 259.554 93.832C260.104 93.496 260.72 93.328 261.402 93.328C261.943 93.328 262.424 93.4307 262.844 93.636C263.273 93.832 263.637 94.1027 263.936 94.448C264.234 94.784 264.463 95.1667 264.622 95.596C264.78 96.016 264.86 96.45 264.86 96.898C264.86 96.9913 264.855 97.0987 264.846 97.22C264.836 97.332 264.822 97.4487 264.804 97.57H258.462V96.59H264.202L263.698 97.01C263.782 96.4967 263.721 96.0393 263.516 95.638C263.32 95.2273 263.035 94.9053 262.662 94.672C262.288 94.4293 261.868 94.308 261.402 94.308C260.935 94.308 260.501 94.4293 260.1 94.672C259.708 94.9147 259.4 95.2553 259.176 95.694C258.952 96.1233 258.863 96.6367 258.91 97.234C258.863 97.8313 258.956 98.354 259.19 98.802C259.432 99.2407 259.759 99.5813 260.17 99.824C260.59 100.067 261.038 100.188 261.514 100.188C262.064 100.188 262.526 100.057 262.9 99.796C263.273 99.5347 263.576 99.208 263.81 98.816L264.706 99.292C264.556 99.628 264.328 99.9407 264.02 100.23C263.712 100.51 263.343 100.739 262.914 100.916C262.494 101.084 262.027 101.168 261.514 101.168ZM266.711 101V93.496H267.761V94.728L267.621 94.546C267.798 94.1913 268.064 93.9113 268.419 93.706C268.783 93.5007 269.221 93.398 269.735 93.398H270.211V94.448H269.553C269.011 94.448 268.577 94.616 268.251 94.952C267.924 95.288 267.761 95.764 267.761 96.38V101H266.711ZM275.99 101.168C275.514 101.168 275.09 101.079 274.716 100.902C274.343 100.715 274.049 100.463 273.834 100.146C273.62 99.8287 273.512 99.4647 273.512 99.054C273.512 98.662 273.596 98.3073 273.764 97.99C273.932 97.6633 274.194 97.388 274.548 97.164C274.903 96.94 275.356 96.7813 275.906 96.688L278.846 96.198V97.15L276.158 97.598C275.617 97.6913 275.225 97.864 274.982 98.116C274.749 98.368 274.632 98.6667 274.632 99.012C274.632 99.348 274.763 99.6327 275.024 99.866C275.295 100.099 275.64 100.216 276.06 100.216C276.574 100.216 277.022 100.109 277.404 99.894C277.787 99.67 278.086 99.3713 278.3 98.998C278.515 98.6247 278.622 98.2093 278.622 97.752V95.848C278.622 95.4 278.459 95.036 278.132 94.756C277.806 94.476 277.381 94.336 276.858 94.336C276.401 94.336 276 94.4527 275.654 94.686C275.309 94.91 275.052 95.204 274.884 95.568L273.932 95.05C274.072 94.7327 274.292 94.4433 274.59 94.182C274.898 93.9207 275.248 93.7153 275.64 93.566C276.032 93.4073 276.438 93.328 276.858 93.328C277.409 93.328 277.894 93.4353 278.314 93.65C278.744 93.8647 279.075 94.1633 279.308 94.546C279.551 94.9193 279.672 95.3533 279.672 95.848V101H278.622V99.502L278.776 99.656C278.646 99.936 278.44 100.193 278.16 100.426C277.89 100.65 277.568 100.832 277.194 100.972C276.83 101.103 276.429 101.168 275.99 101.168ZM287.641 101.168C286.903 101.168 286.255 100.995 285.695 100.65C285.135 100.305 284.696 99.838 284.379 99.25C284.061 98.6527 283.903 97.9807 283.903 97.234C283.903 96.4873 284.061 95.82 284.379 95.232C284.696 94.644 285.135 94.182 285.695 93.846C286.255 93.5007 286.903 93.328 287.641 93.328C288.107 93.328 288.546 93.412 288.957 93.58C289.367 93.748 289.731 93.9767 290.049 94.266C290.366 94.546 290.604 94.8727 290.763 95.246L289.811 95.736C289.624 95.3347 289.339 95.008 288.957 94.756C288.574 94.504 288.135 94.378 287.641 94.378C287.146 94.378 286.698 94.504 286.297 94.756C285.905 94.9987 285.592 95.3393 285.359 95.778C285.135 96.2073 285.023 96.6973 285.023 97.248C285.023 97.7893 285.135 98.2793 285.359 98.718C285.592 99.1473 285.905 99.488 286.297 99.74C286.698 99.992 287.146 100.118 287.641 100.118C288.135 100.118 288.569 99.992 288.943 99.74C289.325 99.488 289.615 99.152 289.811 98.732L290.763 99.25C290.604 99.614 290.366 99.9407 290.049 100.23C289.731 100.519 289.367 100.748 288.957 100.916C288.546 101.084 288.107 101.168 287.641 101.168ZM292.605 101V90.402H293.655V101H292.605ZM299.221 101.168C298.521 101.168 297.886 101 297.317 100.664C296.757 100.319 296.313 99.8473 295.987 99.25C295.66 98.6527 295.497 97.976 295.497 97.22C295.497 96.464 295.655 95.7967 295.973 95.218C296.29 94.63 296.719 94.168 297.261 93.832C297.811 93.496 298.427 93.328 299.109 93.328C299.65 93.328 300.131 93.4307 300.551 93.636C300.98 93.832 301.344 94.1027 301.643 94.448C301.941 94.784 302.17 95.1667 302.329 95.596C302.487 96.016 302.567 96.45 302.567 96.898C302.567 96.9913 302.562 97.0987 302.553 97.22C302.543 97.332 302.529 97.4487 302.511 97.57H296.169V96.59H301.909L301.405 97.01C301.489 96.4967 301.428 96.0393 301.223 95.638C301.027 95.2273 300.742 94.9053 300.369 94.672C299.995 94.4293 299.575 94.308 299.109 94.308C298.642 94.308 298.208 94.4293 297.807 94.672C297.415 94.9147 297.107 95.2553 296.883 95.694C296.659 96.1233 296.57 96.6367 296.617 97.234C296.57 97.8313 296.663 98.354 296.897 98.802C297.139 99.2407 297.466 99.5813 297.877 99.824C298.297 100.067 298.745 100.188 299.221 100.188C299.771 100.188 300.233 100.057 300.607 99.796C300.98 99.5347 301.283 99.208 301.517 98.816L302.413 99.292C302.263 99.628 302.035 99.9407 301.727 100.23C301.419 100.51 301.05 100.739 300.621 100.916C300.201 101.084 299.734 101.168 299.221 101.168ZM306.451 101.168C305.975 101.168 305.55 101.079 305.177 100.902C304.804 100.715 304.51 100.463 304.295 100.146C304.08 99.8287 303.973 99.4647 303.973 99.054C303.973 98.662 304.057 98.3073 304.225 97.99C304.393 97.6633 304.654 97.388 305.009 97.164C305.364 96.94 305.816 96.7813 306.367 96.688L309.307 96.198V97.15L306.619 97.598C306.078 97.6913 305.686 97.864 305.443 98.116C305.21 98.368 305.093 98.6667 305.093 99.012C305.093 99.348 305.224 99.6327 305.485 99.866C305.756 100.099 306.101 100.216 306.521 100.216C307.034 100.216 307.482 100.109 307.865 99.894C308.248 99.67 308.546 99.3713 308.761 98.998C308.976 98.6247 309.083 98.2093 309.083 97.752V95.848C309.083 95.4 308.92 95.036 308.593 94.756C308.266 94.476 307.842 94.336 307.319 94.336C306.862 94.336 306.46 94.4527 306.115 94.686C305.77 94.91 305.513 95.204 305.345 95.568L304.393 95.05C304.533 94.7327 304.752 94.4433 305.051 94.182C305.359 93.9207 305.709 93.7153 306.101 93.566C306.493 93.4073 306.899 93.328 307.319 93.328C307.87 93.328 308.355 93.4353 308.775 93.65C309.204 93.8647 309.536 94.1633 309.769 94.546C310.012 94.9193 310.133 95.3533 310.133 95.848V101H309.083V99.502L309.237 99.656C309.106 99.936 308.901 100.193 308.621 100.426C308.35 100.65 308.028 100.832 307.655 100.972C307.291 101.103 306.89 101.168 306.451 101.168ZM312.293 101V93.496H313.343V94.728L313.203 94.546C313.38 94.1913 313.646 93.9113 314.001 93.706C314.365 93.5007 314.804 93.398 315.317 93.398H315.793V94.448H315.135C314.594 94.448 314.16 94.616 313.833 94.952C313.506 95.288 313.343 95.764 313.343 96.38V101H312.293ZM16.232 126V115.57H19.816C20.4973 115.57 21.0947 115.705 21.608 115.976C22.1213 116.237 22.518 116.611 22.798 117.096C23.0873 117.572 23.232 118.127 23.232 118.762C23.232 119.397 23.0873 119.952 22.798 120.428C22.518 120.904 22.1213 121.277 21.608 121.548C21.104 121.809 20.5067 121.94 19.816 121.94H17.352V126H16.232ZM17.352 120.89H19.872C20.32 120.89 20.712 120.806 21.048 120.638C21.384 120.461 21.6453 120.213 21.832 119.896C22.0187 119.569 22.112 119.187 22.112 118.748C22.112 118.309 22.0187 117.931 21.832 117.614C21.6453 117.297 21.384 117.054 21.048 116.886C20.712 116.709 20.32 116.62 19.872 116.62H17.352V120.89ZM25.2281 126V115.57H28.8121C29.4934 115.57 30.0908 115.705 30.6041 115.976C31.1174 116.237 31.5141 116.611 31.7941 117.096C32.0834 117.572 32.2281 118.127 32.2281 118.762C32.2281 119.499 32.0321 120.129 31.6401 120.652C31.2574 121.175 30.7348 121.543 30.0721 121.758L32.5081 126H31.1921L28.6441 121.506L29.4001 121.94H26.3481V126H25.2281ZM26.3481 120.89H28.8681C29.3161 120.89 29.7081 120.806 30.0441 120.638C30.3801 120.461 30.6414 120.213 30.8281 119.896C31.0148 119.569 31.1081 119.187 31.1081 118.748C31.1081 118.309 31.0148 117.931 30.8281 117.614C30.6414 117.297 30.3801 117.054 30.0441 116.886C29.7081 116.709 29.3161 116.62 28.8681 116.62H26.3481V120.89ZM34.1968 126V115.57H37.6268C38.6628 115.57 39.5635 115.785 40.3288 116.214C41.0942 116.634 41.6868 117.236 42.1068 118.02C42.5268 118.795 42.7368 119.714 42.7368 120.778C42.7368 121.833 42.5268 122.752 42.1068 123.536C41.6868 124.32 41.0942 124.927 40.3288 125.356C39.5635 125.785 38.6628 126 37.6268 126H34.1968ZM35.3168 124.95H37.6268C38.4295 124.95 39.1248 124.782 39.7128 124.446C40.3008 124.101 40.7535 123.615 41.0708 122.99C41.3975 122.365 41.5608 121.627 41.5608 120.778C41.5608 119.929 41.3975 119.196 41.0708 118.58C40.7442 117.955 40.2868 117.474 39.6988 117.138C39.1108 116.793 38.4202 116.62 37.6268 116.62H35.3168V124.95ZM50.2004 126.168C49.5004 126.168 48.8704 126 48.3104 125.664C47.7504 125.319 47.307 124.852 46.9804 124.264C46.663 123.667 46.5044 122.995 46.5044 122.248C46.5044 121.492 46.663 120.82 46.9804 120.232C47.307 119.644 47.7457 119.182 48.2964 118.846C48.8564 118.501 49.491 118.328 50.2004 118.328C50.8444 118.328 51.4184 118.468 51.9224 118.748C52.4264 119.028 52.823 119.406 53.1124 119.882L52.9444 120.176V115.402H53.9944V126H52.9444V124.32L53.1124 124.474C52.851 125.015 52.459 125.435 51.9364 125.734C51.423 126.023 50.8444 126.168 50.2004 126.168ZM50.2564 125.118C50.7604 125.118 51.213 124.992 51.6144 124.74C52.025 124.488 52.347 124.147 52.5804 123.718C52.823 123.279 52.9444 122.789 52.9444 122.248C52.9444 121.707 52.823 121.221 52.5804 120.792C52.347 120.353 52.025 120.008 51.6144 119.756C51.213 119.504 50.7604 119.378 50.2564 119.378C49.7617 119.378 49.3137 119.504 48.9124 119.756C48.511 120.008 48.1937 120.349 47.9604 120.778C47.7364 121.207 47.6244 121.697 47.6244 122.248C47.6244 122.789 47.7364 123.279 47.9604 123.718C48.1937 124.147 48.5064 124.488 48.8984 124.74C49.2997 124.992 49.7524 125.118 50.2564 125.118ZM59.5663 126.168C58.8663 126.168 58.2316 126 57.6623 125.664C57.1023 125.319 56.6589 124.847 56.3323 124.25C56.0056 123.653 55.8423 122.976 55.8423 122.22C55.8423 121.464 56.0009 120.797 56.3183 120.218C56.6356 119.63 57.0649 119.168 57.6063 118.832C58.1569 118.496 58.7729 118.328 59.4543 118.328C59.9956 118.328 60.4763 118.431 60.8963 118.636C61.3256 118.832 61.6896 119.103 61.9883 119.448C62.2869 119.784 62.5156 120.167 62.6743 120.596C62.8329 121.016 62.9123 121.45 62.9123 121.898C62.9123 121.991 62.9076 122.099 62.8983 122.22C62.8889 122.332 62.8749 122.449 62.8563 122.57H56.5143V121.59H62.2543L61.7503 122.01C61.8343 121.497 61.7736 121.039 61.5683 120.638C61.3723 120.227 61.0876 119.905 60.7143 119.672C60.3409 119.429 59.9209 119.308 59.4543 119.308C58.9876 119.308 58.5536 119.429 58.1523 119.672C57.7603 119.915 57.4523 120.255 57.2283 120.694C57.0043 121.123 56.9156 121.637 56.9623 122.234C56.9156 122.831 57.0089 123.354 57.2423 123.802C57.4849 124.241 57.8116 124.581 58.2223 124.824C58.6423 125.067 59.0903 125.188 59.5663 125.188C60.1169 125.188 60.5789 125.057 60.9523 124.796C61.3256 124.535 61.6289 124.208 61.8623 123.816L62.7583 124.292C62.6089 124.628 62.3803 124.941 62.0723 125.23C61.7643 125.51 61.3956 125.739 60.9663 125.916C60.5463 126.084 60.0796 126.168 59.5663 126.168ZM65.5335 126V119.546H64.0355V118.496H65.5335V117.824C65.5335 117.301 65.6502 116.863 65.8835 116.508C66.1169 116.144 66.4249 115.869 66.8075 115.682C67.1902 115.495 67.6009 115.402 68.0395 115.402C68.1329 115.402 68.2402 115.411 68.3615 115.43C68.4829 115.439 68.5809 115.453 68.6555 115.472V116.424C68.5902 116.405 68.5015 116.396 68.3895 116.396C68.2775 116.387 68.1982 116.382 68.1515 116.382C67.7035 116.382 67.3302 116.489 67.0315 116.704C66.7329 116.919 66.5835 117.292 66.5835 117.824V118.496H70.7975V119.546H66.5835V126H65.5335ZM69.9155 126V118.496H70.9655V126H69.9155ZM72.912 126V118.496H73.962V119.952L73.724 119.896C73.9107 119.411 74.214 119.028 74.634 118.748C75.0633 118.468 75.558 118.328 76.118 118.328C76.65 118.328 77.126 118.449 77.546 118.692C77.9753 118.935 78.3113 119.271 78.554 119.7C78.806 120.12 78.932 120.596 78.932 121.128V126H77.882V121.534C77.882 121.077 77.798 120.689 77.63 120.372C77.4713 120.055 77.2427 119.812 76.944 119.644C76.6547 119.467 76.3187 119.378 75.936 119.378C75.5533 119.378 75.2127 119.467 74.914 119.644C74.6153 119.812 74.382 120.059 74.214 120.386C74.046 120.703 73.962 121.086 73.962 121.534V126H72.912ZM80.9374 126V118.496H81.9874V126H80.9374ZM80.9374 117.11V115.57H81.9874V117.11H80.9374ZM84.1366 126V118.496H85.1866V119.952L84.9486 119.896C85.1353 119.411 85.4386 119.028 85.8586 118.748C86.2879 118.468 86.7826 118.328 87.3426 118.328C87.8746 118.328 88.3506 118.449 88.7706 118.692C89.1999 118.935 89.5359 119.271 89.7786 119.7C90.0306 120.12 90.1566 120.596 90.1566 121.128V126H89.1066V121.534C89.1066 121.077 89.0226 120.689 88.8546 120.372C88.6959 120.055 88.4673 119.812 88.1686 119.644C87.8793 119.467 87.5433 119.378 87.1606 119.378C86.7779 119.378 86.4373 119.467 86.1386 119.644C85.8399 119.812 85.6066 120.059 85.4386 120.386C85.2706 120.703 85.1866 121.086 85.1866 121.534V126H84.1366ZM95.718 129.08C95.2047 129.08 94.7287 129.001 94.29 128.842C93.8607 128.683 93.4873 128.464 93.17 128.184C92.862 127.913 92.624 127.596 92.456 127.232L93.422 126.714C93.5713 127.069 93.8373 127.377 94.22 127.638C94.6027 127.899 95.0927 128.03 95.69 128.03C96.1473 128.03 96.5673 127.941 96.95 127.764C97.3327 127.587 97.6407 127.325 97.874 126.98C98.1073 126.635 98.224 126.21 98.224 125.706V124.04L98.392 124.194C98.1307 124.735 97.7433 125.155 97.23 125.454C96.7167 125.743 96.1567 125.888 95.55 125.888C94.85 125.888 94.22 125.72 93.66 125.384C93.1 125.048 92.6567 124.595 92.33 124.026C92.0127 123.447 91.854 122.808 91.854 122.108C91.854 121.399 92.0127 120.759 92.33 120.19C92.6567 119.621 93.0953 119.168 93.646 118.832C94.206 118.496 94.8407 118.328 95.55 118.328C96.1567 118.328 96.7073 118.468 97.202 118.748C97.706 119.028 98.1027 119.406 98.392 119.882L98.224 120.176V118.496H99.274V125.706C99.274 126.35 99.12 126.924 98.812 127.428C98.5133 127.941 98.0933 128.343 97.552 128.632C97.02 128.931 96.4087 129.08 95.718 129.08ZM95.606 124.838C96.0913 124.838 96.53 124.717 96.922 124.474C97.314 124.222 97.6267 123.891 97.86 123.48C98.1027 123.06 98.224 122.603 98.224 122.108C98.224 121.613 98.1027 121.161 97.86 120.75C97.6267 120.33 97.314 119.999 96.922 119.756C96.53 119.504 96.0913 119.378 95.606 119.378C95.1113 119.378 94.6633 119.504 94.262 119.756C93.8607 119.999 93.5433 120.325 93.31 120.736C93.086 121.147 92.974 121.604 92.974 122.108C92.974 122.603 93.086 123.06 93.31 123.48C93.5433 123.891 93.856 124.222 94.248 124.474C94.6493 124.717 95.102 124.838 95.606 124.838ZM104.58 126V119.546H103.082V118.496H104.58V117.824C104.58 117.301 104.697 116.863 104.93 116.508C105.164 116.144 105.472 115.869 105.854 115.682C106.237 115.495 106.648 115.402 107.086 115.402C107.18 115.402 107.287 115.411 107.408 115.43C107.53 115.439 107.628 115.453 107.702 115.472V116.424C107.637 116.405 107.548 116.396 107.436 116.396C107.324 116.387 107.245 116.382 107.198 116.382C106.75 116.382 106.377 116.489 106.078 116.704C105.78 116.919 105.63 117.292 105.63 117.824V118.496H107.464V119.546H105.63V126H104.58ZM112.299 126.168C111.599 126.168 110.964 126 110.395 125.664C109.835 125.319 109.391 124.847 109.065 124.25C108.738 123.653 108.575 122.976 108.575 122.22C108.575 121.464 108.733 120.797 109.051 120.218C109.368 119.63 109.797 119.168 110.339 118.832C110.889 118.496 111.505 118.328 112.187 118.328C112.728 118.328 113.209 118.431 113.629 118.636C114.058 118.832 114.422 119.103 114.721 119.448C115.019 119.784 115.248 120.167 115.407 120.596C115.565 121.016 115.645 121.45 115.645 121.898C115.645 121.991 115.64 122.099 115.631 122.22C115.621 122.332 115.607 122.449 115.589 122.57H109.247V121.59H114.987L114.483 122.01C114.567 121.497 114.506 121.039 114.301 120.638C114.105 120.227 113.82 119.905 113.447 119.672C113.073 119.429 112.653 119.308 112.187 119.308C111.72 119.308 111.286 119.429 110.885 119.672C110.493 119.915 110.185 120.255 109.961 120.694C109.737 121.123 109.648 121.637 109.695 122.234C109.648 122.831 109.741 123.354 109.975 123.802C110.217 124.241 110.544 124.581 110.955 124.824C111.375 125.067 111.823 125.188 112.299 125.188C112.849 125.188 113.311 125.057 113.685 124.796C114.058 124.535 114.361 124.208 114.595 123.816L115.491 124.292C115.341 124.628 115.113 124.941 114.805 125.23C114.497 125.51 114.128 125.739 113.699 125.916C113.279 126.084 112.812 126.168 112.299 126.168ZM119.529 126.168C119.053 126.168 118.629 126.079 118.255 125.902C117.882 125.715 117.588 125.463 117.373 125.146C117.159 124.829 117.051 124.465 117.051 124.054C117.051 123.662 117.135 123.307 117.303 122.99C117.471 122.663 117.733 122.388 118.087 122.164C118.442 121.94 118.895 121.781 119.445 121.688L122.385 121.198V122.15L119.697 122.598C119.156 122.691 118.764 122.864 118.521 123.116C118.288 123.368 118.171 123.667 118.171 124.012C118.171 124.348 118.302 124.633 118.563 124.866C118.834 125.099 119.179 125.216 119.599 125.216C120.113 125.216 120.561 125.109 120.943 124.894C121.326 124.67 121.625 124.371 121.839 123.998C122.054 123.625 122.161 123.209 122.161 122.752V120.848C122.161 120.4 121.998 120.036 121.671 119.756C121.345 119.476 120.92 119.336 120.397 119.336C119.94 119.336 119.539 119.453 119.193 119.686C118.848 119.91 118.591 120.204 118.423 120.568L117.471 120.05C117.611 119.733 117.831 119.443 118.129 119.182C118.437 118.921 118.787 118.715 119.179 118.566C119.571 118.407 119.977 118.328 120.397 118.328C120.948 118.328 121.433 118.435 121.853 118.65C122.283 118.865 122.614 119.163 122.847 119.546C123.09 119.919 123.211 120.353 123.211 120.848V126H122.161V124.502L122.315 124.656C122.185 124.936 121.979 125.193 121.699 125.426C121.429 125.65 121.107 125.832 120.733 125.972C120.369 126.103 119.968 126.168 119.529 126.168ZM128.104 126.084C127.432 126.084 126.914 125.888 126.55 125.496C126.186 125.104 126.004 124.544 126.004 123.816V119.546H124.618V118.496H124.968C125.286 118.496 125.538 118.393 125.724 118.188C125.911 117.973 126.004 117.707 126.004 117.39V116.76H127.054V118.496H128.706V119.546H127.054V123.816C127.054 124.068 127.092 124.292 127.166 124.488C127.241 124.675 127.367 124.824 127.544 124.936C127.731 125.048 127.978 125.104 128.286 125.104C128.361 125.104 128.45 125.099 128.552 125.09C128.655 125.081 128.744 125.071 128.818 125.062V126C128.706 126.028 128.58 126.047 128.44 126.056C128.3 126.075 128.188 126.084 128.104 126.084ZM133.322 126.168C132.799 126.168 132.323 126.047 131.894 125.804C131.465 125.552 131.124 125.207 130.872 124.768C130.629 124.32 130.508 123.807 130.508 123.228V118.496H131.558V123.102C131.558 123.503 131.637 123.858 131.796 124.166C131.964 124.465 132.193 124.698 132.482 124.866C132.781 125.034 133.121 125.118 133.504 125.118C133.887 125.118 134.227 125.034 134.526 124.866C134.825 124.689 135.058 124.441 135.226 124.124C135.394 123.797 135.478 123.41 135.478 122.962V118.496H136.528V126H135.478V124.544L135.716 124.6C135.539 125.085 135.235 125.468 134.806 125.748C134.377 126.028 133.882 126.168 133.322 126.168ZM138.687 126V118.496H139.737V119.728L139.597 119.546C139.775 119.191 140.041 118.911 140.395 118.706C140.759 118.501 141.198 118.398 141.711 118.398H142.187V119.448H141.529C140.988 119.448 140.554 119.616 140.227 119.952C139.901 120.288 139.737 120.764 139.737 121.38V126H138.687ZM146.834 126.168C146.134 126.168 145.499 126 144.93 125.664C144.37 125.319 143.927 124.847 143.6 124.25C143.273 123.653 143.11 122.976 143.11 122.22C143.11 121.464 143.269 120.797 143.586 120.218C143.903 119.63 144.333 119.168 144.874 118.832C145.425 118.496 146.041 118.328 146.722 118.328C147.263 118.328 147.744 118.431 148.164 118.636C148.593 118.832 148.957 119.103 149.256 119.448C149.555 119.784 149.783 120.167 149.942 120.596C150.101 121.016 150.18 121.45 150.18 121.898C150.18 121.991 150.175 122.099 150.166 122.22C150.157 122.332 150.143 122.449 150.124 122.57H143.782V121.59H149.522L149.018 122.01C149.102 121.497 149.041 121.039 148.836 120.638C148.64 120.227 148.355 119.905 147.982 119.672C147.609 119.429 147.189 119.308 146.722 119.308C146.255 119.308 145.821 119.429 145.42 119.672C145.028 119.915 144.72 120.255 144.496 120.694C144.272 121.123 144.183 121.637 144.23 122.234C144.183 122.831 144.277 123.354 144.51 123.802C144.753 124.241 145.079 124.581 145.49 124.824C145.91 125.067 146.358 125.188 146.834 125.188C147.385 125.188 147.847 125.057 148.22 124.796C148.593 124.535 148.897 124.208 149.13 123.816L150.026 124.292C149.877 124.628 149.648 124.941 149.34 125.23C149.032 125.51 148.663 125.739 148.234 125.916C147.814 126.084 147.347 126.168 146.834 126.168ZM154.635 126.168C153.916 126.168 153.286 125.986 152.745 125.622C152.204 125.258 151.812 124.763 151.569 124.138L152.451 123.718C152.666 124.175 152.964 124.539 153.347 124.81C153.739 125.081 154.168 125.216 154.635 125.216C155.083 125.216 155.461 125.109 155.769 124.894C156.077 124.67 156.231 124.381 156.231 124.026C156.231 123.765 156.156 123.559 156.007 123.41C155.858 123.251 155.685 123.13 155.489 123.046C155.293 122.962 155.12 122.901 154.971 122.864L153.893 122.556C153.202 122.36 152.703 122.085 152.395 121.73C152.087 121.375 151.933 120.965 151.933 120.498C151.933 120.059 152.045 119.677 152.269 119.35C152.493 119.023 152.796 118.771 153.179 118.594C153.562 118.417 153.986 118.328 154.453 118.328C155.088 118.328 155.662 118.496 156.175 118.832C156.698 119.159 157.066 119.616 157.281 120.204L156.385 120.624C156.198 120.204 155.928 119.877 155.573 119.644C155.228 119.401 154.84 119.28 154.411 119.28C153.991 119.28 153.655 119.387 153.403 119.602C153.151 119.817 153.025 120.087 153.025 120.414C153.025 120.666 153.09 120.867 153.221 121.016C153.352 121.165 153.501 121.277 153.669 121.352C153.846 121.427 154 121.483 154.131 121.52L155.377 121.884C155.984 122.061 156.455 122.337 156.791 122.71C157.136 123.083 157.309 123.522 157.309 124.026C157.309 124.437 157.192 124.805 156.959 125.132C156.735 125.459 156.422 125.715 156.021 125.902C155.62 126.079 155.158 126.168 154.635 126.168ZM159.196 127.82V127.33C159.476 127.255 159.682 127.111 159.812 126.896C159.943 126.681 160.008 126.383 160.008 126H159.476V124.46H160.596V125.636C160.596 126.243 160.48 126.728 160.246 127.092C160.013 127.465 159.663 127.708 159.196 127.82ZM166.077 126V119.546H164.579V118.496H166.077V117.824C166.077 117.301 166.193 116.863 166.427 116.508C166.66 116.144 166.968 115.869 167.351 115.682C167.733 115.495 168.144 115.402 168.583 115.402C168.676 115.402 168.783 115.411 168.905 115.43C169.026 115.439 169.124 115.453 169.199 115.472V116.424C169.133 116.405 169.045 116.396 168.933 116.396C168.821 116.387 168.741 116.382 168.695 116.382C168.247 116.382 167.873 116.489 167.575 116.704C167.276 116.919 167.127 117.292 167.127 117.824V118.496H171.341V119.546H167.127V126H166.077ZM170.809 126V115.402H171.859V126H170.809ZM177.53 126.168C176.82 126.168 176.176 126 175.598 125.664C175.019 125.319 174.557 124.852 174.212 124.264C173.876 123.667 173.708 122.99 173.708 122.234C173.708 121.487 173.876 120.82 174.212 120.232C174.548 119.644 175 119.182 175.57 118.846C176.148 118.501 176.802 118.328 177.53 118.328C178.258 118.328 178.906 118.496 179.476 118.832C180.054 119.168 180.507 119.63 180.834 120.218C181.17 120.806 181.338 121.478 181.338 122.234C181.338 122.999 181.165 123.681 180.82 124.278C180.474 124.866 180.012 125.328 179.434 125.664C178.864 126 178.23 126.168 177.53 126.168ZM177.53 125.118C178.034 125.118 178.486 124.992 178.888 124.74C179.298 124.488 179.62 124.143 179.854 123.704C180.096 123.265 180.218 122.775 180.218 122.234C180.218 121.693 180.096 121.207 179.854 120.778C179.62 120.349 179.298 120.008 178.888 119.756C178.486 119.504 178.034 119.378 177.53 119.378C177.026 119.378 176.568 119.504 176.158 119.756C175.756 120.008 175.434 120.349 175.192 120.778C174.949 121.207 174.828 121.693 174.828 122.234C174.828 122.775 174.949 123.265 175.192 123.704C175.434 124.143 175.756 124.488 176.158 124.74C176.568 124.992 177.026 125.118 177.53 125.118ZM184.705 126L182.129 118.496H183.319L185.447 125.062H185.027L187.029 118.496H188.079L190.081 125.062H189.661L191.803 118.496H192.979L190.403 126H189.353L187.407 119.574H187.701L185.755 126H184.705ZM196.813 126.168C196.094 126.168 195.464 125.986 194.923 125.622C194.382 125.258 193.99 124.763 193.747 124.138L194.629 123.718C194.844 124.175 195.142 124.539 195.525 124.81C195.917 125.081 196.346 125.216 196.813 125.216C197.261 125.216 197.639 125.109 197.947 124.894C198.255 124.67 198.409 124.381 198.409 124.026C198.409 123.765 198.334 123.559 198.185 123.41C198.036 123.251 197.863 123.13 197.667 123.046C197.471 122.962 197.298 122.901 197.149 122.864L196.071 122.556C195.38 122.36 194.881 122.085 194.573 121.73C194.265 121.375 194.111 120.965 194.111 120.498C194.111 120.059 194.223 119.677 194.447 119.35C194.671 119.023 194.974 118.771 195.357 118.594C195.74 118.417 196.164 118.328 196.631 118.328C197.266 118.328 197.84 118.496 198.353 118.832C198.876 119.159 199.244 119.616 199.459 120.204L198.563 120.624C198.376 120.204 198.106 119.877 197.751 119.644C197.406 119.401 197.018 119.28 196.589 119.28C196.169 119.28 195.833 119.387 195.581 119.602C195.329 119.817 195.203 120.087 195.203 120.414C195.203 120.666 195.268 120.867 195.399 121.016C195.53 121.165 195.679 121.277 195.847 121.352C196.024 121.427 196.178 121.483 196.309 121.52L197.555 121.884C198.162 122.061 198.633 122.337 198.969 122.71C199.314 123.083 199.487 123.522 199.487 124.026C199.487 124.437 199.37 124.805 199.137 125.132C198.913 125.459 198.6 125.715 198.199 125.902C197.798 126.079 197.336 126.168 196.813 126.168ZM201.374 127.82V127.33C201.654 127.255 201.859 127.111 201.99 126.896C202.121 126.681 202.186 126.383 202.186 126H201.654V124.46H202.774V125.636C202.774 126.243 202.657 126.728 202.424 127.092C202.191 127.465 201.841 127.708 201.374 127.82ZM209.654 126.168C209.178 126.168 208.754 126.079 208.38 125.902C208.007 125.715 207.713 125.463 207.498 125.146C207.284 124.829 207.176 124.465 207.176 124.054C207.176 123.662 207.26 123.307 207.428 122.99C207.596 122.663 207.858 122.388 208.212 122.164C208.567 121.94 209.02 121.781 209.57 121.688L212.51 121.198V122.15L209.822 122.598C209.281 122.691 208.889 122.864 208.646 123.116C208.413 123.368 208.296 123.667 208.296 124.012C208.296 124.348 208.427 124.633 208.688 124.866C208.959 125.099 209.304 125.216 209.724 125.216C210.238 125.216 210.686 125.109 211.068 124.894C211.451 124.67 211.75 124.371 211.964 123.998C212.179 123.625 212.286 123.209 212.286 122.752V120.848C212.286 120.4 212.123 120.036 211.796 119.756C211.47 119.476 211.045 119.336 210.522 119.336C210.065 119.336 209.664 119.453 209.318 119.686C208.973 119.91 208.716 120.204 208.548 120.568L207.596 120.05C207.736 119.733 207.956 119.443 208.254 119.182C208.562 118.921 208.912 118.715 209.304 118.566C209.696 118.407 210.102 118.328 210.522 118.328C211.073 118.328 211.558 118.435 211.978 118.65C212.408 118.865 212.739 119.163 212.972 119.546C213.215 119.919 213.336 120.353 213.336 120.848V126H212.286V124.502L212.44 124.656C212.31 124.936 212.104 125.193 211.824 125.426C211.554 125.65 211.232 125.832 210.858 125.972C210.494 126.103 210.093 126.168 209.654 126.168ZM215.496 126V118.496H216.546V119.952L216.308 119.896C216.495 119.411 216.798 119.028 217.218 118.748C217.647 118.468 218.142 118.328 218.702 118.328C219.234 118.328 219.71 118.449 220.13 118.692C220.559 118.935 220.895 119.271 221.138 119.7C221.39 120.12 221.516 120.596 221.516 121.128V126H220.466V121.534C220.466 121.077 220.382 120.689 220.214 120.372C220.055 120.055 219.827 119.812 219.528 119.644C219.239 119.467 218.903 119.378 218.52 119.378C218.137 119.378 217.797 119.467 217.498 119.644C217.199 119.812 216.966 120.059 216.798 120.386C216.63 120.703 216.546 121.086 216.546 121.534V126H215.496ZM226.909 126.168C226.209 126.168 225.579 126 225.019 125.664C224.459 125.319 224.016 124.852 223.689 124.264C223.372 123.667 223.213 122.995 223.213 122.248C223.213 121.492 223.372 120.82 223.689 120.232C224.016 119.644 224.455 119.182 225.005 118.846C225.565 118.501 226.2 118.328 226.909 118.328C227.553 118.328 228.127 118.468 228.631 118.748C229.135 119.028 229.532 119.406 229.821 119.882L229.653 120.176V115.402H230.703V126H229.653V124.32L229.821 124.474C229.56 125.015 229.168 125.435 228.645 125.734C228.132 126.023 227.553 126.168 226.909 126.168ZM226.965 125.118C227.469 125.118 227.922 124.992 228.323 124.74C228.734 124.488 229.056 124.147 229.289 123.718C229.532 123.279 229.653 122.789 229.653 122.248C229.653 121.707 229.532 121.221 229.289 120.792C229.056 120.353 228.734 120.008 228.323 119.756C227.922 119.504 227.469 119.378 226.965 119.378C226.471 119.378 226.023 119.504 225.621 119.756C225.22 120.008 224.903 120.349 224.669 120.778C224.445 121.207 224.333 121.697 224.333 122.248C224.333 122.789 224.445 123.279 224.669 123.718C224.903 124.147 225.215 124.488 225.607 124.74C226.009 124.992 226.461 125.118 226.965 125.118ZM238.108 126.084C237.436 126.084 236.918 125.888 236.554 125.496C236.19 125.104 236.008 124.544 236.008 123.816V119.546H234.622V118.496H234.972C235.289 118.496 235.541 118.393 235.728 118.188C235.915 117.973 236.008 117.707 236.008 117.39V116.76H237.058V118.496H238.71V119.546H237.058V123.816C237.058 124.068 237.095 124.292 237.17 124.488C237.245 124.675 237.371 124.824 237.548 124.936C237.735 125.048 237.982 125.104 238.29 125.104C238.365 125.104 238.453 125.099 238.556 125.09C238.659 125.081 238.747 125.071 238.822 125.062V126C238.71 126.028 238.584 126.047 238.444 126.056C238.304 126.075 238.192 126.084 238.108 126.084ZM240.666 126V118.496H241.716V126H240.666ZM240.666 117.11V115.57H241.716V117.11H240.666ZM243.865 126V118.496H244.915V119.924L244.747 119.714C244.952 119.275 245.256 118.935 245.657 118.692C246.068 118.449 246.516 118.328 247.001 118.328C247.58 118.328 248.102 118.491 248.569 118.818C249.036 119.145 249.367 119.569 249.563 120.092L249.269 120.106C249.456 119.527 249.778 119.089 250.235 118.79C250.702 118.482 251.215 118.328 251.775 118.328C252.279 118.328 252.741 118.449 253.161 118.692C253.59 118.935 253.931 119.271 254.183 119.7C254.444 120.12 254.575 120.596 254.575 121.128V126H253.525V121.534C253.525 121.077 253.441 120.689 253.273 120.372C253.114 120.055 252.895 119.812 252.615 119.644C252.335 119.467 252.013 119.378 251.649 119.378C251.294 119.378 250.972 119.467 250.683 119.644C250.394 119.812 250.165 120.059 249.997 120.386C249.829 120.703 249.745 121.086 249.745 121.534V126H248.695V121.534C248.695 121.077 248.611 120.689 248.443 120.372C248.284 120.055 248.065 119.812 247.785 119.644C247.505 119.467 247.183 119.378 246.819 119.378C246.455 119.378 246.128 119.467 245.839 119.644C245.559 119.812 245.335 120.059 245.167 120.386C244.999 120.703 244.915 121.086 244.915 121.534V126H243.865ZM259.996 126.168C259.296 126.168 258.661 126 258.092 125.664C257.532 125.319 257.089 124.847 256.762 124.25C256.435 123.653 256.272 122.976 256.272 122.22C256.272 121.464 256.431 120.797 256.748 120.218C257.065 119.63 257.495 119.168 258.036 118.832C258.587 118.496 259.203 118.328 259.884 118.328C260.425 118.328 260.906 118.431 261.326 118.636C261.755 118.832 262.119 119.103 262.418 119.448C262.717 119.784 262.945 120.167 263.104 120.596C263.263 121.016 263.342 121.45 263.342 121.898C263.342 121.991 263.337 122.099 263.328 122.22C263.319 122.332 263.305 122.449 263.286 122.57H256.944V121.59H262.684L262.18 122.01C262.264 121.497 262.203 121.039 261.998 120.638C261.802 120.227 261.517 119.905 261.144 119.672C260.771 119.429 260.351 119.308 259.884 119.308C259.417 119.308 258.983 119.429 258.582 119.672C258.19 119.915 257.882 120.255 257.658 120.694C257.434 121.123 257.345 121.637 257.392 122.234C257.345 122.831 257.439 123.354 257.672 123.802C257.915 124.241 258.241 124.581 258.652 124.824C259.072 125.067 259.52 125.188 259.996 125.188C260.547 125.188 261.009 125.057 261.382 124.796C261.755 124.535 262.059 124.208 262.292 123.816L263.188 124.292C263.039 124.628 262.81 124.941 262.502 125.23C262.194 125.51 261.825 125.739 261.396 125.916C260.976 126.084 260.509 126.168 259.996 126.168ZM265.193 126V115.402H266.243V126H265.193ZM268.392 126V118.496H269.442V126H268.392ZM268.392 117.11V115.57H269.442V117.11H268.392ZM271.592 126V118.496H272.642V119.952L272.404 119.896C272.59 119.411 272.894 119.028 273.314 118.748C273.743 118.468 274.238 118.328 274.798 118.328C275.33 118.328 275.806 118.449 276.226 118.692C276.655 118.935 276.991 119.271 277.234 119.7C277.486 120.12 277.612 120.596 277.612 121.128V126H276.562V121.534C276.562 121.077 276.478 120.689 276.31 120.372C276.151 120.055 275.922 119.812 275.624 119.644C275.334 119.467 274.998 119.378 274.616 119.378C274.233 119.378 273.892 119.467 273.594 119.644C273.295 119.812 273.062 120.059 272.894 120.386C272.726 120.703 272.642 121.086 272.642 121.534V126H271.592ZM283.033 126.168C282.333 126.168 281.698 126 281.129 125.664C280.569 125.319 280.126 124.847 279.799 124.25C279.472 123.653 279.309 122.976 279.309 122.22C279.309 121.464 279.468 120.797 279.785 120.218C280.102 119.63 280.532 119.168 281.073 118.832C281.624 118.496 282.24 118.328 282.921 118.328C283.462 118.328 283.943 118.431 284.363 118.636C284.792 118.832 285.156 119.103 285.455 119.448C285.754 119.784 285.982 120.167 286.141 120.596C286.3 121.016 286.379 121.45 286.379 121.898C286.379 121.991 286.374 122.099 286.365 122.22C286.356 122.332 286.342 122.449 286.323 122.57H279.981V121.59H285.721L285.217 122.01C285.301 121.497 285.24 121.039 285.035 120.638C284.839 120.227 284.554 119.905 284.181 119.672C283.808 119.429 283.388 119.308 282.921 119.308C282.454 119.308 282.02 119.429 281.619 119.672C281.227 119.915 280.919 120.255 280.695 120.694C280.471 121.123 280.382 121.637 280.429 122.234C280.382 122.831 280.476 123.354 280.709 123.802C280.952 124.241 281.278 124.581 281.689 124.824C282.109 125.067 282.557 125.188 283.033 125.188C283.584 125.188 284.046 125.057 284.419 124.796C284.792 124.535 285.096 124.208 285.329 123.816L286.225 124.292C286.076 124.628 285.847 124.941 285.539 125.23C285.231 125.51 284.862 125.739 284.433 125.916C284.013 126.084 283.546 126.168 283.033 126.168ZM290.834 126.168C290.116 126.168 289.486 125.986 288.944 125.622C288.403 125.258 288.011 124.763 287.768 124.138L288.65 123.718C288.865 124.175 289.164 124.539 289.546 124.81C289.938 125.081 290.368 125.216 290.834 125.216C291.282 125.216 291.66 125.109 291.968 124.894C292.276 124.67 292.43 124.381 292.43 124.026C292.43 123.765 292.356 123.559 292.206 123.41C292.057 123.251 291.884 123.13 291.688 123.046C291.492 122.962 291.32 122.901 291.17 122.864L290.092 122.556C289.402 122.36 288.902 122.085 288.594 121.73C288.286 121.375 288.132 120.965 288.132 120.498C288.132 120.059 288.244 119.677 288.468 119.35C288.692 119.023 288.996 118.771 289.378 118.594C289.761 118.417 290.186 118.328 290.652 118.328C291.287 118.328 291.861 118.496 292.374 118.832C292.897 119.159 293.266 119.616 293.48 120.204L292.584 120.624C292.398 120.204 292.127 119.877 291.772 119.644C291.427 119.401 291.04 119.28 290.61 119.28C290.19 119.28 289.854 119.387 289.602 119.602C289.35 119.817 289.224 120.087 289.224 120.414C289.224 120.666 289.29 120.867 289.42 121.016C289.551 121.165 289.7 121.277 289.868 121.352C290.046 121.427 290.2 121.483 290.33 121.52L291.576 121.884C292.183 122.061 292.654 122.337 292.99 122.71C293.336 123.083 293.508 123.522 293.508 124.026C293.508 124.437 293.392 124.805 293.158 125.132C292.934 125.459 292.622 125.715 292.22 125.902C291.819 126.079 291.357 126.168 290.834 126.168ZM299.384 126L296.808 118.496H297.998L300.126 125.062H299.706L301.708 118.496H302.758L304.76 125.062H304.34L306.482 118.496H307.658L305.082 126H304.032L302.086 119.574H302.38L300.434 126H299.384ZM308.889 126V118.496H309.939V126H308.889ZM308.889 117.11V115.57H309.939V117.11H308.889ZM314.958 126.084C314.286 126.084 313.768 125.888 313.404 125.496C313.04 125.104 312.858 124.544 312.858 123.816V119.546H311.472V118.496H311.822C312.139 118.496 312.391 118.393 312.578 118.188C312.764 117.973 312.858 117.707 312.858 117.39V116.76H313.908V118.496H315.56V119.546H313.908V123.816C313.908 124.068 313.945 124.292 314.02 124.488C314.094 124.675 314.22 124.824 314.398 124.936C314.584 125.048 314.832 125.104 315.14 125.104C315.214 125.104 315.303 125.099 315.406 125.09C315.508 125.081 315.597 125.071 315.672 125.062V126C315.56 126.028 315.434 126.047 315.294 126.056C315.154 126.075 315.042 126.084 314.958 126.084ZM317.516 126V115.402H318.566V119.952L318.328 119.896C318.514 119.411 318.818 119.028 319.238 118.748C319.667 118.468 320.162 118.328 320.722 118.328C321.254 118.328 321.73 118.449 322.15 118.692C322.579 118.935 322.915 119.271 323.158 119.7C323.41 120.12 323.536 120.596 323.536 121.128V126H322.486V121.534C322.486 121.077 322.402 120.689 322.234 120.372C322.066 120.055 321.832 119.812 321.534 119.644C321.244 119.467 320.913 119.378 320.54 119.378C320.166 119.378 319.83 119.467 319.532 119.644C319.233 119.812 318.995 120.059 318.818 120.386C318.65 120.703 318.566 121.086 318.566 121.534V126H317.516ZM15.308 151V150.09L19.83 144.14L20.026 144.546H15.546V143.496H20.95V144.406L16.442 150.356L16.246 149.95H20.978V151H15.308ZM25.7831 151.168C25.0831 151.168 24.4484 151 23.8791 150.664C23.3191 150.319 22.8757 149.847 22.5491 149.25C22.2224 148.653 22.0591 147.976 22.0591 147.22C22.0591 146.464 22.2177 145.797 22.5351 145.218C22.8524 144.63 23.2817 144.168 23.8231 143.832C24.3737 143.496 24.9897 143.328 25.6711 143.328C26.2124 143.328 26.6931 143.431 27.1131 143.636C27.5424 143.832 27.9064 144.103 28.2051 144.448C28.5037 144.784 28.7324 145.167 28.8911 145.596C29.0497 146.016 29.1291 146.45 29.1291 146.898C29.1291 146.991 29.1244 147.099 29.1151 147.22C29.1057 147.332 29.0917 147.449 29.0731 147.57H22.7311V146.59H28.4711L27.9671 147.01C28.0511 146.497 27.9904 146.039 27.7851 145.638C27.5891 145.227 27.3044 144.905 26.9311 144.672C26.5577 144.429 26.1377 144.308 25.6711 144.308C25.2044 144.308 24.7704 144.429 24.3691 144.672C23.9771 144.915 23.6691 145.255 23.4451 145.694C23.2211 146.123 23.1324 146.637 23.1791 147.234C23.1324 147.831 23.2257 148.354 23.4591 148.802C23.7017 149.241 24.0284 149.581 24.4391 149.824C24.8591 150.067 25.3071 150.188 25.7831 150.188C26.3337 150.188 26.7957 150.057 27.1691 149.796C27.5424 149.535 27.8457 149.208 28.0791 148.816L28.9751 149.292C28.8257 149.628 28.5971 149.941 28.2891 150.23C27.9811 150.51 27.6124 150.739 27.1831 150.916C26.7631 151.084 26.2964 151.168 25.7831 151.168ZM30.9803 151V143.496H32.0303V144.728L31.8903 144.546C32.0677 144.191 32.3337 143.911 32.6883 143.706C33.0523 143.501 33.491 143.398 34.0043 143.398H34.4803V144.448H33.8223C33.281 144.448 32.847 144.616 32.5203 144.952C32.1937 145.288 32.0303 145.764 32.0303 146.38V151H30.9803ZM39.2248 151.168C38.5155 151.168 37.8715 151 37.2928 150.664C36.7141 150.319 36.2521 149.852 35.9068 149.264C35.5708 148.667 35.4028 147.99 35.4028 147.234C35.4028 146.487 35.5708 145.82 35.9068 145.232C36.2428 144.644 36.6955 144.182 37.2648 143.846C37.8435 143.501 38.4968 143.328 39.2248 143.328C39.9528 143.328 40.6015 143.496 41.1708 143.832C41.7495 144.168 42.2021 144.63 42.5288 145.218C42.8648 145.806 43.0328 146.478 43.0328 147.234C43.0328 147.999 42.8601 148.681 42.5148 149.278C42.1695 149.866 41.7075 150.328 41.1288 150.664C40.5595 151 39.9248 151.168 39.2248 151.168ZM39.2248 150.118C39.7288 150.118 40.1815 149.992 40.5828 149.74C40.9935 149.488 41.3155 149.143 41.5488 148.704C41.7915 148.265 41.9128 147.775 41.9128 147.234C41.9128 146.693 41.7915 146.207 41.5488 145.778C41.3155 145.349 40.9935 145.008 40.5828 144.756C40.1815 144.504 39.7288 144.378 39.2248 144.378C38.7208 144.378 38.2635 144.504 37.8528 144.756C37.4515 145.008 37.1295 145.349 36.8868 145.778C36.6441 146.207 36.5228 146.693 36.5228 147.234C36.5228 147.775 36.6441 148.265 36.8868 148.704C37.1295 149.143 37.4515 149.488 37.8528 149.74C38.2635 149.992 38.7208 150.118 39.2248 150.118ZM48.0335 151V144.546H46.5355V143.496H48.0335V142.824C48.0335 142.301 48.1502 141.863 48.3835 141.508C48.6169 141.144 48.9249 140.869 49.3075 140.682C49.6902 140.495 50.1009 140.402 50.5395 140.402C50.6329 140.402 50.7402 140.411 50.8615 140.43C50.9829 140.439 51.0809 140.453 51.1555 140.472V141.424C51.0902 141.405 51.0015 141.396 50.8895 141.396C50.7775 141.387 50.6982 141.382 50.6515 141.382C50.2035 141.382 49.8302 141.489 49.5315 141.704C49.2329 141.919 49.0835 142.292 49.0835 142.824V143.496H53.2975V144.546H49.0835V151H48.0335ZM52.7655 151V140.402H53.8155V151H52.7655ZM58.6325 151.168C58.1099 151.168 57.6339 151.047 57.2045 150.804C56.7752 150.552 56.4345 150.207 56.1825 149.768C55.9399 149.32 55.8185 148.807 55.8185 148.228V143.496H56.8685V148.102C56.8685 148.503 56.9479 148.858 57.1065 149.166C57.2745 149.465 57.5032 149.698 57.7925 149.866C58.0912 150.034 58.4319 150.118 58.8145 150.118C59.1972 150.118 59.5379 150.034 59.8365 149.866C60.1352 149.689 60.3685 149.441 60.5365 149.124C60.7045 148.797 60.7885 148.41 60.7885 147.962V143.496H61.8385V151H60.7885V149.544L61.0265 149.6C60.8492 150.085 60.5459 150.468 60.1165 150.748C59.6872 151.028 59.1925 151.168 58.6325 151.168ZM64.7679 151V144.546H63.2699V143.496H64.7679V142.824C64.7679 142.301 64.8846 141.863 65.1179 141.508C65.3513 141.144 65.6593 140.869 66.0419 140.682C66.4246 140.495 66.8353 140.402 67.2739 140.402C67.3673 140.402 67.4746 140.411 67.5959 140.43C67.7173 140.439 67.8153 140.453 67.8899 140.472V141.424C67.8246 141.405 67.7359 141.396 67.6239 141.396C67.5119 141.387 67.4326 141.382 67.3859 141.382C66.9379 141.382 66.5646 141.489 66.2659 141.704C65.9673 141.919 65.8179 142.292 65.8179 142.824V143.496H70.0319V144.546H65.8179V151H64.7679ZM70.1299 151V144.546H68.6319V143.496H70.1299V142.824C70.1299 142.301 70.2466 141.863 70.4799 141.508C70.7133 141.144 71.0213 140.869 71.4039 140.682C71.7866 140.495 72.1973 140.402 72.6359 140.402C72.7293 140.402 72.8366 140.411 72.9579 140.43C73.0793 140.439 73.1773 140.453 73.2519 140.472V141.424C73.1866 141.405 73.0979 141.396 72.9859 141.396C72.8739 141.387 72.7946 141.382 72.7479 141.382C72.2999 141.382 71.9266 141.489 71.6279 141.704C71.3293 141.919 71.1799 142.292 71.1799 142.824V143.496H73.0139V144.546H71.1799V151H70.1299ZM74.4852 152.82V152.33C74.7652 152.255 74.9706 152.111 75.1012 151.896C75.2319 151.681 75.2972 151.383 75.2972 151H74.7652V149.46H75.8852V150.636C75.8852 151.243 75.7686 151.728 75.5352 152.092C75.3019 152.465 74.9519 152.708 74.4852 152.82ZM79.8256 151V150.09L84.3476 144.14L84.5436 144.546H80.0636V143.496H85.4676V144.406L80.9596 150.356L80.7636 149.95H85.4956V151H79.8256ZM90.3006 151.168C89.6006 151.168 88.966 151 88.3966 150.664C87.8366 150.319 87.3933 149.847 87.0666 149.25C86.74 148.653 86.5766 147.976 86.5766 147.22C86.5766 146.464 86.7353 145.797 87.0526 145.218C87.37 144.63 87.7993 144.168 88.3406 143.832C88.8913 143.496 89.5073 143.328 90.1886 143.328C90.73 143.328 91.2106 143.431 91.6306 143.636C92.06 143.832 92.424 144.103 92.7226 144.448C93.0213 144.784 93.25 145.167 93.4086 145.596C93.5673 146.016 93.6466 146.45 93.6466 146.898C93.6466 146.991 93.642 147.099 93.6326 147.22C93.6233 147.332 93.6093 147.449 93.5906 147.57H87.2486V146.59H92.9886L92.4846 147.01C92.5686 146.497 92.508 146.039 92.3026 145.638C92.1066 145.227 91.822 144.905 91.4486 144.672C91.0753 144.429 90.6553 144.308 90.1886 144.308C89.722 144.308 89.288 144.429 88.8866 144.672C88.4946 144.915 88.1866 145.255 87.9626 145.694C87.7386 146.123 87.65 146.637 87.6966 147.234C87.65 147.831 87.7433 148.354 87.9766 148.802C88.2193 149.241 88.546 149.581 88.9566 149.824C89.3766 150.067 89.8246 150.188 90.3006 150.188C90.8513 150.188 91.3133 150.057 91.6866 149.796C92.06 149.535 92.3633 149.208 92.5966 148.816L93.4926 149.292C93.3433 149.628 93.1146 149.941 92.8066 150.23C92.4986 150.51 92.13 150.739 91.7006 150.916C91.2806 151.084 90.814 151.168 90.3006 151.168ZM95.4979 151V143.496H96.5479V144.728L96.4079 144.546C96.5853 144.191 96.8513 143.911 97.2059 143.706C97.5699 143.501 98.0086 143.398 98.5219 143.398H98.9979V144.448H98.3399C97.7986 144.448 97.3646 144.616 97.0379 144.952C96.7113 145.288 96.5479 145.764 96.5479 146.38V151H95.4979ZM103.742 151.168C103.033 151.168 102.389 151 101.81 150.664C101.232 150.319 100.77 149.852 100.424 149.264C100.088 148.667 99.9204 147.99 99.9204 147.234C99.9204 146.487 100.088 145.82 100.424 145.232C100.76 144.644 101.213 144.182 101.782 143.846C102.361 143.501 103.014 143.328 103.742 143.328C104.47 143.328 105.119 143.496 105.688 143.832C106.267 144.168 106.72 144.63 107.046 145.218C107.382 145.806 107.55 146.478 107.55 147.234C107.55 147.999 107.378 148.681 107.032 149.278C106.687 149.866 106.225 150.328 105.646 150.664C105.077 151 104.442 151.168 103.742 151.168ZM103.742 150.118C104.246 150.118 104.699 149.992 105.1 149.74C105.511 149.488 105.833 149.143 106.066 148.704C106.309 148.265 106.43 147.775 106.43 147.234C106.43 146.693 106.309 146.207 106.066 145.778C105.833 145.349 105.511 145.008 105.1 144.756C104.699 144.504 104.246 144.378 103.742 144.378C103.238 144.378 102.781 144.504 102.37 144.756C101.969 145.008 101.647 145.349 101.404 145.778C101.162 146.207 101.04 146.693 101.04 147.234C101.04 147.775 101.162 148.265 101.404 148.704C101.647 149.143 101.969 149.488 102.37 149.74C102.781 149.992 103.238 150.118 103.742 150.118ZM114.385 151.168C113.666 151.168 113.036 150.986 112.495 150.622C111.954 150.258 111.562 149.763 111.319 149.138L112.201 148.718C112.416 149.175 112.714 149.539 113.097 149.81C113.489 150.081 113.918 150.216 114.385 150.216C114.833 150.216 115.211 150.109 115.519 149.894C115.827 149.67 115.981 149.381 115.981 149.026C115.981 148.765 115.906 148.559 115.757 148.41C115.608 148.251 115.435 148.13 115.239 148.046C115.043 147.962 114.87 147.901 114.721 147.864L113.643 147.556C112.952 147.36 112.453 147.085 112.145 146.73C111.837 146.375 111.683 145.965 111.683 145.498C111.683 145.059 111.795 144.677 112.019 144.35C112.243 144.023 112.546 143.771 112.929 143.594C113.312 143.417 113.736 143.328 114.203 143.328C114.838 143.328 115.412 143.496 115.925 143.832C116.448 144.159 116.816 144.616 117.031 145.204L116.135 145.624C115.948 145.204 115.678 144.877 115.323 144.644C114.978 144.401 114.59 144.28 114.161 144.28C113.741 144.28 113.405 144.387 113.153 144.602C112.901 144.817 112.775 145.087 112.775 145.414C112.775 145.666 112.84 145.867 112.971 146.016C113.102 146.165 113.251 146.277 113.419 146.352C113.596 146.427 113.75 146.483 113.881 146.52L115.127 146.884C115.734 147.061 116.205 147.337 116.541 147.71C116.886 148.083 117.059 148.522 117.059 149.026C117.059 149.437 116.942 149.805 116.709 150.132C116.485 150.459 116.172 150.715 115.771 150.902C115.37 151.079 114.908 151.168 114.385 151.168ZM121.564 151.168C121.042 151.168 120.566 151.047 120.136 150.804C119.707 150.552 119.366 150.207 119.114 149.768C118.872 149.32 118.75 148.807 118.75 148.228V143.496H119.8V148.102C119.8 148.503 119.88 148.858 120.038 149.166C120.206 149.465 120.435 149.698 120.724 149.866C121.023 150.034 121.364 150.118 121.746 150.118C122.129 150.118 122.47 150.034 122.768 149.866C123.067 149.689 123.3 149.441 123.468 149.124C123.636 148.797 123.72 148.41 123.72 147.962V143.496H124.77V151H123.72V149.544L123.958 149.6C123.781 150.085 123.478 150.468 123.048 150.748C122.619 151.028 122.124 151.168 121.564 151.168ZM126.93 151V143.496H127.98V144.728L127.84 144.546C128.017 144.191 128.283 143.911 128.638 143.706C129.002 143.501 129.44 143.398 129.954 143.398H130.43V144.448H129.772C129.23 144.448 128.796 144.616 128.47 144.952C128.143 145.288 127.98 145.764 127.98 146.38V151H126.93ZM131.66 153.8V143.496H132.71V145.176L132.542 144.882C132.841 144.406 133.237 144.028 133.732 143.748C134.236 143.468 134.81 143.328 135.454 143.328C136.163 143.328 136.793 143.501 137.344 143.846C137.904 144.182 138.343 144.644 138.66 145.232C138.987 145.82 139.15 146.492 139.15 147.248C139.15 147.995 138.987 148.667 138.66 149.264C138.343 149.852 137.904 150.319 137.344 150.664C136.793 151 136.163 151.168 135.454 151.168C134.81 151.168 134.227 151.023 133.704 150.734C133.191 150.435 132.803 150.015 132.542 149.474L132.71 149.32V153.8H131.66ZM135.398 150.118C135.902 150.118 136.35 149.992 136.742 149.74C137.143 149.488 137.456 149.147 137.68 148.718C137.913 148.279 138.03 147.789 138.03 147.248C138.03 146.697 137.913 146.207 137.68 145.778C137.456 145.349 137.143 145.008 136.742 144.756C136.35 144.504 135.902 144.378 135.398 144.378C134.894 144.378 134.437 144.504 134.026 144.756C133.625 145.008 133.303 145.353 133.06 145.792C132.827 146.221 132.71 146.707 132.71 147.248C132.71 147.789 132.827 148.279 133.06 148.718C133.303 149.147 133.625 149.488 134.026 149.74C134.437 149.992 134.894 150.118 135.398 150.118ZM140.998 151V143.496H142.048V144.728L141.908 144.546C142.085 144.191 142.351 143.911 142.706 143.706C143.07 143.501 143.509 143.398 144.022 143.398H144.498V144.448H143.84C143.299 144.448 142.865 144.616 142.538 144.952C142.211 145.288 142.048 145.764 142.048 146.38V151H140.998ZM145.728 151V143.496H146.778V151H145.728ZM145.728 142.11V140.57H146.778V142.11H145.728ZM151.532 151.168C150.813 151.168 150.183 150.986 149.642 150.622C149.1 150.258 148.708 149.763 148.466 149.138L149.348 148.718C149.562 149.175 149.861 149.539 150.244 149.81C150.636 150.081 151.065 150.216 151.532 150.216C151.98 150.216 152.358 150.109 152.666 149.894C152.974 149.67 153.128 149.381 153.128 149.026C153.128 148.765 153.053 148.559 152.904 148.41C152.754 148.251 152.582 148.13 152.386 148.046C152.19 147.962 152.017 147.901 151.868 147.864L150.79 147.556C150.099 147.36 149.6 147.085 149.292 146.73C148.984 146.375 148.83 145.965 148.83 145.498C148.83 145.059 148.942 144.677 149.166 144.35C149.39 144.023 149.693 143.771 150.076 143.594C150.458 143.417 150.883 143.328 151.35 143.328C151.984 143.328 152.558 143.496 153.072 143.832C153.594 144.159 153.963 144.616 154.178 145.204L153.282 145.624C153.095 145.204 152.824 144.877 152.47 144.644C152.124 144.401 151.737 144.28 151.308 144.28C150.888 144.28 150.552 144.387 150.3 144.602C150.048 144.817 149.922 145.087 149.922 145.414C149.922 145.666 149.987 145.867 150.118 146.016C150.248 146.165 150.398 146.277 150.566 146.352C150.743 146.427 150.897 146.483 151.028 146.52L152.274 146.884C152.88 147.061 153.352 147.337 153.688 147.71C154.033 148.083 154.206 148.522 154.206 149.026C154.206 149.437 154.089 149.805 153.856 150.132C153.632 150.459 153.319 150.715 152.918 150.902C152.516 151.079 152.054 151.168 151.532 151.168ZM159.467 151.168C158.767 151.168 158.132 151 157.563 150.664C157.003 150.319 156.559 149.847 156.233 149.25C155.906 148.653 155.743 147.976 155.743 147.22C155.743 146.464 155.901 145.797 156.219 145.218C156.536 144.63 156.965 144.168 157.507 143.832C158.057 143.496 158.673 143.328 159.355 143.328C159.896 143.328 160.377 143.431 160.797 143.636C161.226 143.832 161.59 144.103 161.889 144.448C162.187 144.784 162.416 145.167 162.575 145.596C162.733 146.016 162.813 146.45 162.813 146.898C162.813 146.991 162.808 147.099 162.799 147.22C162.789 147.332 162.775 147.449 162.757 147.57H156.415V146.59H162.155L161.651 147.01C161.735 146.497 161.674 146.039 161.469 145.638C161.273 145.227 160.988 144.905 160.615 144.672C160.241 144.429 159.821 144.308 159.355 144.308C158.888 144.308 158.454 144.429 158.053 144.672C157.661 144.915 157.353 145.255 157.129 145.694C156.905 146.123 156.816 146.637 156.863 147.234C156.816 147.831 156.909 148.354 157.143 148.802C157.385 149.241 157.712 149.581 158.123 149.824C158.543 150.067 158.991 150.188 159.467 150.188C160.017 150.188 160.479 150.057 160.853 149.796C161.226 149.535 161.529 149.208 161.763 148.816L162.659 149.292C162.509 149.628 162.281 149.941 161.973 150.23C161.665 150.51 161.296 150.739 160.867 150.916C160.447 151.084 159.98 151.168 159.467 151.168ZM167.268 151.168C166.549 151.168 165.919 150.986 165.378 150.622C164.837 150.258 164.445 149.763 164.202 149.138L165.084 148.718C165.299 149.175 165.597 149.539 165.98 149.81C166.372 150.081 166.801 150.216 167.268 150.216C167.716 150.216 168.094 150.109 168.402 149.894C168.71 149.67 168.864 149.381 168.864 149.026C168.864 148.765 168.789 148.559 168.64 148.41C168.491 148.251 168.318 148.13 168.122 148.046C167.926 147.962 167.753 147.901 167.604 147.864L166.526 147.556C165.835 147.36 165.336 147.085 165.028 146.73C164.72 146.375 164.566 145.965 164.566 145.498C164.566 145.059 164.678 144.677 164.902 144.35C165.126 144.023 165.429 143.771 165.812 143.594C166.195 143.417 166.619 143.328 167.086 143.328C167.721 143.328 168.295 143.496 168.808 143.832C169.331 144.159 169.699 144.616 169.914 145.204L169.018 145.624C168.831 145.204 168.561 144.877 168.206 144.644C167.861 144.401 167.473 144.28 167.044 144.28C166.624 144.28 166.288 144.387 166.036 144.602C165.784 144.817 165.658 145.087 165.658 145.414C165.658 145.666 165.723 145.867 165.854 146.016C165.985 146.165 166.134 146.277 166.302 146.352C166.479 146.427 166.633 146.483 166.764 146.52L168.01 146.884C168.617 147.061 169.088 147.337 169.424 147.71C169.769 148.083 169.942 148.522 169.942 149.026C169.942 149.437 169.825 149.805 169.592 150.132C169.368 150.459 169.055 150.715 168.654 150.902C168.253 151.079 167.791 151.168 167.268 151.168ZM172.151 151V149.46H173.271V151H172.151Z" fill="#474545"/>
<defs>
<filter id="filter0_f_2018_461" x="-140" y="48" width="492" height="508" filterUnits="userSpaceOnUse" color-interpolation-filters="sRGB">
<feFlood flood-opacity="0" result="BackgroundImageFix"/>
<feBlend mode="normal" in="SourceGraphic" in2="BackgroundImageFix" result="shape"/>
<feGaussianBlur stdDeviation="59" result="effect1_foregroundBlur_2018_461"/>
</filter>
<filter id="filter1_f_2018_461" x="-118" y="-148" width="525" height="512" filterUnits="userSpaceOnUse" color-interpolation-filters="sRGB">
<feFlood flood-opacity="0" result="BackgroundImageFix"/>
<feBlend mode="normal" in="SourceGraphic" in2="BackgroundImageFix" result="shape"/>
<feGaussianBlur stdDeviation="59" result="effect1_foregroundBlur_2018_461"/>
</filter>
<filter id="filter2_d_2018_461" x="4" y="8" width="51" height="50" filterUnits="userSpaceOnUse" color-interpolation-filters="sRGB">
<feFlood flood-opacity="0" result="BackgroundImageFix"/>
<feColorMatrix in="SourceAlpha" type="matrix" values="0 0 0 0 0 0 0 0 0 0 0 0 0 0 0 0 0 0 127 0" result="hardAlpha"/>
<feOffset dy="4"/>
<feGaussianBlur stdDeviation="5.5"/>
<feComposite in2="hardAlpha" operator="out"/>
<feColorMatrix type="matrix" values="0 0 0 0 0 0 0 0 0 0 0 0 0 0 0 0 0 0 0.09 0"/>
<feBlend mode="normal" in2="BackgroundImageFix" result="effect1_dropShadow_2018_461"/>
<feBlend mode="normal" in="SourceGraphic" in2="effect1_dropShadow_2018_461" result="shape"/>
</filter>
<filter id="filter3_d_2018_461" x="-5" y="194" width="140" height="72" filterUnits="userSpaceOnUse" color-interpolation-filters="sRGB">
<feFlood flood-opacity="0" result="BackgroundImageFix"/>
<feColorMatrix in="SourceAlpha" type="matrix" values="0 0 0 0 0 0 0 0 0 0 0 0 0 0 0 0 0 0 127 0" result="hardAlpha"/>
<feOffset dy="1"/>
<feGaussianBlur stdDeviation="10.5"/>
<feComposite in2="hardAlpha" operator="out"/>
<feColorMatrix type="matrix" values="0 0 0 0 0.423529 0 0 0 0 0.729412 0 0 0 0 0.992157 0 0 0 0.29 0"/>
<feBlend mode="normal" in2="BackgroundImageFix" result="effect1_dropShadow_2018_461"/>
<feBlend mode="normal" in="SourceGraphic" in2="effect1_dropShadow_2018_461" result="shape"/>
</filter>
<filter id="filter4_d_2018_461" x="-5" y="256" width="140" height="72" filterUnits="userSpaceOnUse" color-interpolation-filters="sRGB">
<feFlood flood-opacity="0" result="BackgroundImageFix"/>
<feColorMatrix in="SourceAlpha" type="matrix" values="0 0 0 0 0 0 0 0 0 0 0 0 0 0 0 0 0 0 127 0" result="hardAlpha"/>
<feOffset dy="1"/>
<feGaussianBlur stdDeviation="10.5"/>
<feComposite in2="hardAlpha" operator="out"/>
<feColorMatrix type="matrix" values="0 0 0 0 0.423529 0 0 0 0 0.729412 0 0 0 0 0.992157 0 0 0 0.29 0"/>
<feBlend mode="normal" in2="BackgroundImageFix" result="effect1_dropShadow_2018_461"/>
<feBlend mode="normal" in="SourceGraphic" in2="effect1_dropShadow_2018_461" result="shape"/>
</filter>
<filter id="filter5_d_2018_461" x="-5" y="320" width="140" height="72" filterUnits="userSpaceOnUse" color-interpolation-filters="sRGB">
<feFlood flood-opacity="0" result="BackgroundImageFix"/>
<feColorMatrix in="SourceAlpha" type="matrix" values="0 0 0 0 0 0 0 0 0 0 0 0 0 0 0 0 0 0 127 0" result="hardAlpha"/>
<feOffset dy="1"/>
<feGaussianBlur stdDeviation="10.5"/>
<feComposite in2="hardAlpha" operator="out"/>
<feColorMatrix type="matrix" values="0 0 0 0 0.423529 0 0 0 0 0.729412 0 0 0 0 0.992157 0 0 0 0.29 0"/>
<feBlend mode="normal" in2="BackgroundImageFix" result="effect1_dropShadow_2018_461"/>
<feBlend mode="normal" in="SourceGraphic" in2="effect1_dropShadow_2018_461" result="shape"/>
</filter>
<filter id="filter6_d_2018_461" x="110" y="230" width="115" height="117" filterUnits="userSpaceOnUse" color-interpolation-filters="sRGB">
<feFlood flood-opacity="0" result="BackgroundImageFix"/>
<feColorMatrix in="SourceAlpha" type="matrix" values="0 0 0 0 0 0 0 0 0 0 0 0 0 0 0 0 0 0 127 0" result="hardAlpha"/>
<feOffset dy="1"/>
<feGaussianBlur stdDeviation="8.5"/>
<feComposite in2="hardAlpha" operator="out"/>
<feColorMatrix type="matrix" values="0 0 0 0 0.411765 0 0 0 0 0.603922 0 0 0 0 1 0 0 0 0.54 0"/>
<feBlend mode="normal" in2="BackgroundImageFix" result="effect1_dropShadow_2018_461"/>
<feBlend mode="normal" in="SourceGraphic" in2="effect1_dropShadow_2018_461" result="shape"/>
</filter>
<filter id="filter7_d_2018_461" x="220" y="207" width="125" height="165" filterUnits="userSpaceOnUse" color-interpolation-filters="sRGB">
<feFlood flood-opacity="0" result="BackgroundImageFix"/>
<feColorMatrix in="SourceAlpha" type="matrix" values="0 0 0 0 0 0 0 0 0 0 0 0 0 0 0 0 0 0 127 0" result="hardAlpha"/>
<feOffset dy="1"/>
<feGaussianBlur stdDeviation="8.5"/>
<feComposite in2="hardAlpha" operator="out"/>
<feColorMatrix type="matrix" values="0 0 0 0 0.411765 0 0 0 0 0.603922 0 0 0 0 1 0 0 0 0.1 0"/>
<feBlend mode="normal" in2="BackgroundImageFix" result="effect1_dropShadow_2018_461"/>
<feBlend mode="normal" in="SourceGraphic" in2="effect1_dropShadow_2018_461" result="shape"/>
</filter>
<linearGradient id="paint0_linear_2018_461" x1="370.5" y1="-45.759" x2="-106.563" y2="168.13" gradientUnits="userSpaceOnUse">
<stop offset="0.6721" stop-color="#EFF5FF"/>
<stop offset="1" stop-color="white"/>
</linearGradient>
<linearGradient id="paint1_linear_2018_461" x1="32.7222" y1="42.5556" x2="32.9368" y2="15.6665" gradientUnits="userSpaceOnUse">
<stop stop-color="#0761D8"/>
<stop offset="0.464411" stop-color="#0F93FF"/>
<stop offset="0.975965" stop-color="#9ED3FF"/>
</linearGradient>
<linearGradient id="paint2_linear_2018_461" x1="146.5" y1="336" x2="146.5" y2="355" gradientUnits="userSpaceOnUse">
<stop stop-color="white"/>
<stop offset="0.283654" stop-color="#006DFB"/>
<stop offset="0.519231" stop-color="white"/>
<stop offset="0.985477" stop-color="#006DFB"/>
<stop offset="0.985577" stop-color="white"/>
</linearGradient>
<linearGradient id="paint3_linear_2018_461" x1="145.5" y1="246" x2="145.5" y2="227" gradientUnits="userSpaceOnUse">
<stop stop-color="white"/>
<stop offset="0.283654" stop-color="#006DFB"/>
<stop offset="0.519231" stop-color="white"/>
<stop offset="0.985477" stop-color="#006DFB"/>
<stop offset="0.985577" stop-color="white"/>
</linearGradient>
<linearGradient id="paint4_linear_2018_461" x1="112" y1="291.5" x2="136" y2="291.5" gradientUnits="userSpaceOnUse">
<stop stop-color="white"/>
<stop offset="0.3125" stop-color="#006DFB"/>
<stop offset="0.649038" stop-color="white"/>
<stop offset="1" stop-color="#006DFB"/>
</linearGradient>
<linearGradient id="paint5_linear_2018_461" x1="214" y1="291.5" x2="238" y2="291.5" gradientUnits="userSpaceOnUse">
<stop stop-color="white"/>
<stop offset="0.3125" stop-color="#006DFB"/>
<stop offset="0.649038" stop-color="white"/>
<stop offset="1" stop-color="#006DFB"/>
</linearGradient>
<linearGradient id="paint6_linear_2018_461" x1="184.5" y1="259.5" x2="185.5" y2="336" gradientUnits="userSpaceOnUse">
<stop stop-color="#74C0FF"/>
<stop offset="1" stop-color="#0971E4"/>
</linearGradient>
<linearGradient id="paint7_linear_2018_461" x1="176.5" y1="253" x2="176.5" y2="345.04" gradientUnits="userSpaceOnUse">
<stop offset="0.974224" stop-color="#C9DAFF"/>
<stop offset="0.980961" stop-color="#0052FF"/>
<stop offset="1" stop-color="white"/>
</linearGradient>
<clipPath id="clip0_2018_461">
<rect width="344" height="403" rx="8" fill="white"/>
</clipPath>
<clipPath id="clip1_2018_461">
<rect x="15" y="15" width="29" height="28" rx="6" fill="white"/>
</clipPath>
</defs>
</svg>
