<svg width="100" height="27" viewBox="0 0 100 27" fill="none" xmlns="http://www.w3.org/2000/svg">
<g clip-path="url(#clip0_1_2790)">
<path d="M11.0173 0H0V27L11.0173 0Z" fill="#B8BBBE"/>
<path d="M18.7688 0H29.7717V27L18.7688 0Z" fill="#B8BBBE"/>
<path d="M14.8932 9.95129L21.9055 27.0001H17.3048L15.209 21.5721H10.0771L14.8932 9.95129Z" fill="#B8BBBE"/>
<path d="M47.7455 17.1703L49.0446 20.9875C49.0877 21.0831 49.1523 21.1273 49.2671 21.1273H51.7649C51.9012 21.1273 51.9228 21.0611 51.9012 20.9213L46.7407 6.23349C46.7192 6.11582 46.6976 6.09375 46.5828 6.09375H43.4822C43.396 6.09375 43.3458 6.15994 43.3458 6.25556C43.3027 7.02783 43.2381 7.26319 43.1448 7.49119L38.5441 20.8993C38.5226 21.0611 38.5728 21.1273 38.702 21.1273H40.9342C41.0706 21.1273 41.1352 21.0831 41.1854 20.9434L42.4127 17.1703H47.7455ZM43.1233 14.677C43.798 12.5882 44.688 9.91097 45.0468 8.38114H45.0684C45.5134 9.98452 46.5613 13.1619 47.035 14.677H43.1233Z" fill="#B8BBBE"/>
<path d="M58.5355 21.3553C59.8776 21.3553 61.3059 21.1052 62.7558 20.4653C62.8706 20.4212 62.8921 20.3697 62.8921 20.2594C62.8491 19.8475 62.7988 19.2518 62.7988 18.7957V4.96845C62.7988 4.88019 62.7988 4.83606 62.6912 4.83606H60.258C60.1647 4.83606 60.1217 4.88019 60.1217 4.99787V9.68297C59.7413 9.63884 59.4757 9.61678 59.1599 9.61678C55.2339 9.61678 52.8223 12.2719 52.8223 15.589C52.8223 19.4356 55.2985 21.3553 58.5355 21.3553ZM60.1217 18.7957C59.7197 18.9281 59.2747 18.9796 58.8226 18.9796C57.0426 18.9796 55.5856 17.9499 55.5856 15.4492C55.5856 13.2354 57.0856 11.9262 59.0738 11.9262C59.4757 11.9262 59.8274 11.9704 60.1217 12.088V18.7957Z" fill="#B8BBBE"/>
<path d="M70.6544 9.61682C67.3025 9.61682 65.2283 12.2499 65.2283 15.5008C65.2283 18.406 66.8791 21.3553 70.6041 21.3553C73.755 21.3553 75.9656 18.9797 75.9656 15.4272C75.9656 12.294 74.0923 9.61682 70.6544 9.61682ZM70.518 11.9263C72.4128 11.9263 73.2167 13.5958 73.2167 15.5008C73.2167 17.8544 72.0324 19.0238 70.6544 19.0238C68.9533 19.0238 67.9485 17.5602 67.9485 15.4493C67.9485 13.2796 69.0179 11.9263 70.518 11.9263Z" fill="#B8BBBE"/>
<path d="M78.4811 4.83606C78.3878 4.83606 78.3232 4.88019 78.3232 4.99787V20.6492C78.3232 20.7154 78.3878 20.8331 78.4811 20.8551C79.5506 21.1935 80.6702 21.3553 81.8258 21.3553C85.1346 21.3553 88.35 19.2518 88.35 15.0153C88.35 11.9483 86.2973 9.61678 83.0818 9.61678C82.3426 9.61678 81.6535 9.73445 81.0506 9.94039L81.0219 5.01993C81.0219 4.85812 80.9789 4.83606 80.821 4.83606H78.4811ZM85.6011 15.2948C85.6011 17.8322 83.9072 19.0237 82.077 19.0237C81.6966 19.0237 81.3593 19.0017 81.0506 18.9061V12.2278C81.4023 12.088 81.8258 11.9704 82.6081 11.9704C84.3738 11.9704 85.6011 13.1177 85.6011 15.2948Z" fill="#B8BBBE"/>
<path d="M97.4304 16.1186C98.5214 16.1186 99.4185 16.0965 99.7272 16.023C99.842 16.0009 99.8851 15.9568 99.9066 15.8612C99.9712 15.6111 99.9999 15.0889 99.9999 14.449C99.9999 12.272 98.7223 9.61682 95.4207 9.61682C92.0474 9.61682 90.1741 12.4338 90.1741 15.6111C90.1741 18.428 91.6239 21.3553 95.6863 21.3553C97.2079 21.3553 98.1912 21.1052 99.0381 20.6934C99.1243 20.6492 99.1673 20.5757 99.1673 20.4433V18.5384C99.1673 18.428 99.1027 18.406 99.0381 18.4501C98.1912 18.8179 97.2725 19.0017 96.2677 19.0017C93.9924 19.0017 92.9589 17.7146 92.8943 16.1186H97.4304ZM92.8943 14.1475C93.0737 13.0295 93.7628 11.8159 95.3059 11.8159C97.0069 11.8159 97.4519 13.2796 97.4519 13.9415C97.4519 13.9636 97.4519 14.0592 97.4519 14.1254C97.3586 14.1475 97.0715 14.1475 96.2246 14.1475H92.8943Z" fill="#B8BBBE"/>
</g>
<defs>
<clipPath id="clip0_1_2790">
<rect width="100" height="27" fill="white"/>
</clipPath>
</defs>
</svg>
