<svg width="99" height="30" viewBox="0 0 99 30" fill="none" xmlns="http://www.w3.org/2000/svg">
<g clip-path="url(#clip0_1_2781)">
<path d="M61.4041 23.4369C55.6579 27.6892 47.3292 29.958 40.1583 29.958C30.1035 29.958 21.0517 26.2242 14.2036 20.0143C13.6656 19.526 14.1477 18.8605 14.7933 19.2407C22.1837 23.5579 31.3217 26.1551 40.7609 26.1551C47.1269 26.1551 54.1299 24.8327 60.5691 22.0886C61.5418 21.6737 62.3553 22.7282 61.4041 23.4369Z" fill="#B8BBBE"/>
<path d="M63.7929 20.6928C63.0612 19.7507 58.9377 20.2477 57.0868 20.4681C56.523 20.5372 56.4369 20.0446 56.9448 19.6902C60.2289 17.3696 65.6179 18.0394 66.2463 18.8173C66.8747 19.5995 66.0827 25.0229 62.9966 27.6115C62.5231 28.009 62.0712 27.7973 62.2821 27.2701C62.9751 25.5328 64.5289 21.6392 63.7929 20.6928Z" fill="#B8BBBE"/>
<path d="M57.216 3.30756V1.05176C57.216 0.71036 57.4743 0.481323 57.7842 0.481323H67.8432C68.1661 0.481323 68.4243 0.714682 68.4243 1.05176V2.98345C68.42 3.30756 68.1488 3.73106 67.6668 4.40088L62.4543 11.8727C64.3912 11.8252 66.4357 12.1147 68.1919 13.1086C68.5879 13.3333 68.6955 13.6618 68.7256 13.9859V16.3929C68.7256 16.7214 68.364 17.106 67.9853 16.9072C64.8905 15.278 60.7799 15.1008 57.3581 16.9245C57.0094 17.1146 56.6436 16.7343 56.6436 16.4059V14.1198C56.6436 13.7525 56.6479 13.1259 57.0137 12.5684L63.0526 3.87367H57.7971C57.4743 3.87367 57.216 3.64463 57.216 3.30756Z" fill="#B8BBBE"/>
<path d="M20.5223 17.3825H17.4619C17.1692 17.3609 16.9368 17.1405 16.9153 16.8596V1.09064C16.9153 0.775172 17.1778 0.524525 17.505 0.524525H20.3587C20.6557 0.537481 20.8924 0.766526 20.9139 1.05174V3.11308H20.9699C21.7145 1.12089 23.1134 0.191772 24.9987 0.191772C26.9141 0.191772 28.1107 1.12089 28.9715 3.11308C29.7118 1.12089 31.3948 0.191772 33.1983 0.191772C34.481 0.191772 35.8841 0.723311 36.7407 1.91603C37.7092 3.24272 37.5112 5.17009 37.5112 6.85978L37.5069 16.8121C37.5069 17.1276 37.2443 17.3825 36.9172 17.3825H33.8611C33.5555 17.3609 33.3102 17.1146 33.3102 16.8121V8.4544C33.3102 7.7889 33.3705 6.12946 33.2241 5.49852C32.996 4.43977 32.3116 4.14158 31.4249 4.14158C30.6846 4.14158 29.9098 4.63855 29.5956 5.4337C29.2814 6.22885 29.3115 7.55986 29.3115 8.4544V16.8121C29.3115 17.1276 29.049 17.3825 28.7219 17.3825H25.6658C25.3559 17.3609 25.1149 17.1146 25.1149 16.8121L25.1106 8.4544C25.1106 6.69557 25.399 4.10701 23.2253 4.10701C21.0258 4.10701 21.1119 6.63074 21.1119 8.4544V16.8121C21.1119 17.1276 20.8494 17.3825 20.5223 17.3825Z" fill="#B8BBBE"/>
<path d="M77.0846 0.191772C81.6256 0.191772 84.0833 4.10701 84.0833 9.08533C84.0833 13.8951 81.3673 17.711 77.0846 17.711C72.6254 17.711 70.1978 13.7957 70.1978 8.9168C70.1978 4.00762 72.6555 0.191772 77.0846 0.191772ZM77.1104 3.41126C74.855 3.41126 74.7129 6.49678 74.7129 8.41983C74.7129 10.3472 74.6828 14.4612 77.0846 14.4612C79.4562 14.4612 79.5681 11.1424 79.5681 9.1199C79.5681 7.7889 79.5122 6.1986 79.1119 4.93673C78.7675 3.83909 78.0832 3.41126 77.1104 3.41126Z" fill="#B8BBBE"/>
<path d="M89.9713 17.3825H86.9239C86.6183 17.3609 86.373 17.1146 86.373 16.8121L86.3687 1.03878C86.3945 0.74924 86.6484 0.524525 86.9583 0.524525H89.7948C90.0617 0.537481 90.2812 0.718991 90.3415 0.965314V3.37669H90.3974C91.254 1.22028 92.4549 0.191772 94.5683 0.191772C95.9413 0.191772 97.2799 0.688741 98.1408 2.05C98.9414 3.31186 98.9414 5.4337 98.9414 6.95917V16.8856C98.907 17.1621 98.653 17.3825 98.3517 17.3825H95.2828C95.003 17.3609 94.7706 17.1535 94.7404 16.8856V8.32044C94.7404 6.59617 94.9384 4.07244 92.825 4.07244C92.0804 4.07244 91.396 4.57373 91.056 5.33431C90.6256 6.29799 90.5696 7.25736 90.5696 8.32044V16.8121C90.5653 17.1276 90.2984 17.3825 89.9713 17.3825Z" fill="#B8BBBE"/>
<path d="M49.1971 9.85024V9.18473C46.9847 9.18473 44.6475 9.66009 44.6475 12.2789C44.6475 13.6056 45.3319 14.5044 46.5069 14.5044C47.3678 14.5044 48.1383 13.9729 48.6246 13.1086C49.2272 12.0455 49.1971 11.0473 49.1971 9.85024ZM52.2833 17.3393C52.081 17.5208 51.7883 17.5338 51.5601 17.4128C50.5443 16.5658 50.3636 16.1725 49.804 15.3644C48.1253 17.0844 46.9374 17.5986 44.7594 17.5986C42.1855 17.5986 40.1797 16.004 40.1797 12.8104C40.1797 10.317 41.5269 8.61862 43.4423 7.7889C45.1038 7.05425 47.4238 6.92461 49.1971 6.7215V6.32393C49.1971 5.5936 49.2531 4.72931 48.8269 4.09838C48.4525 3.53227 47.738 3.29891 47.1095 3.29891C45.9431 3.29891 44.9015 3.89959 44.6475 5.14417C44.5959 5.42074 44.3936 5.693 44.1181 5.70596L41.1481 5.38617C40.8985 5.32999 40.623 5.12688 40.6919 4.74228C41.3763 1.12954 44.626 0.0405273 47.5357 0.0405273C49.0249 0.0405273 50.9705 0.438101 52.1455 1.57032C53.6348 2.96615 53.4928 4.8287 53.4928 6.85547V11.6436C53.4928 13.0827 54.0867 13.7136 54.6463 14.4915C54.8443 14.7681 54.8873 15.1008 54.6377 15.3082C54.0136 15.8311 52.9031 16.8035 52.2919 17.348L52.2833 17.3393Z" fill="#B8BBBE"/>
<path d="M9.07724 9.85024V9.18473C6.86484 9.18473 4.52763 9.66009 4.52763 12.2789C4.52763 13.6056 5.21201 14.5044 6.38707 14.5044C7.24792 14.5044 8.01838 13.9729 8.50477 13.1086C9.10736 12.0455 9.07724 11.0473 9.07724 9.85024ZM12.1634 17.3393C11.9611 17.5208 11.6684 17.5338 11.4403 17.4128C10.4245 16.5658 10.2437 16.1725 9.68413 15.3644C8.00547 17.0844 6.8175 17.5986 4.63954 17.5986C2.0656 17.5986 0.0598145 16.004 0.0598145 12.8104C0.0598145 10.317 1.40705 8.61862 3.32244 7.7889C4.98388 7.05425 7.30388 6.92461 9.07724 6.7215V6.32393C9.07724 5.5936 9.13319 4.72931 8.70707 4.09838C8.3326 3.53227 7.61809 3.29891 6.98967 3.29891C5.82322 3.29891 4.78158 3.89959 4.52763 5.14417C4.47598 5.42074 4.27368 5.693 3.99821 5.70596L1.02827 5.38617C0.778625 5.32999 0.503152 5.12688 0.57202 4.74228C1.2564 1.12954 4.50611 0.0405273 7.41579 0.0405273C8.90506 0.0405273 10.8506 0.438101 12.0256 1.57032C13.5149 2.96615 13.3729 4.8287 13.3729 6.85547V11.6436C13.3729 13.0827 13.9669 13.7136 14.5264 14.4915C14.7244 14.7681 14.7675 15.1008 14.5178 15.3082C13.8937 15.8311 12.7832 16.8035 12.172 17.348L12.1634 17.3393Z" fill="#B8BBBE"/>
</g>
<defs>
<clipPath id="clip0_1_2781">
<rect width="99" height="30" fill="white"/>
</clipPath>
</defs>
</svg>
