<svg width="114" height="25" viewBox="0 0 114 25" fill="none" xmlns="http://www.w3.org/2000/svg">
<path d="M37.1846 22.472H42.0648V2.54211H37.1846V22.472Z" fill="#B8BBBE"/>
<path d="M28.1968 10.8726C29.9744 10.8726 30.5118 12.509 30.5118 13.4089C30.5086 13.4089 25.7207 13.4089 25.7181 13.4089C25.7181 12.1356 26.5967 10.8726 28.1968 10.8726ZM33.3034 18.4447C32.5223 18.7115 31.3391 19.0785 29.834 19.0785C27.7305 19.0785 26.083 18.3724 25.815 16.6927H34.7874C34.854 16.371 34.9721 15.8509 34.9721 14.7688C34.9721 10.9521 33.0873 7.44934 28.2776 7.44934C23.6057 7.44934 21.1188 11.1401 21.1188 15.274C21.1188 20.0417 24.4272 22.7686 29.0458 22.7686C31.9503 22.7686 33.2329 22.0825 34.0274 21.8118L33.3034 18.4447Z" fill="#B8BBBE"/>
<path d="M98.0531 10.8726C99.8352 10.8726 100.369 12.509 100.369 13.4096C100.366 13.4083 95.5764 13.4083 95.5751 13.4096C95.5751 12.1356 96.4524 10.8726 98.0531 10.8726ZM103.161 18.4441C102.38 18.7115 101.197 19.0791 99.6929 19.0791C97.5869 19.0791 95.9406 18.3724 95.6707 16.694H104.644C104.711 16.3716 104.828 15.8503 104.828 14.7695C104.828 10.9515 102.944 7.44934 98.1352 7.44934C93.464 7.44934 90.9751 11.1388 90.9751 15.2734C90.9751 20.0404 94.2887 22.7673 98.9047 22.7673C101.806 22.7673 103.09 22.0825 103.886 21.8112L103.161 18.4441Z" fill="#B8BBBE"/>
<path d="M51.8555 19.1282C50.276 19.1282 49.2377 17.5544 49.2377 15.1202C49.2377 13.1802 49.9335 11.1097 51.8734 11.1097C53.7454 11.1097 54.4091 13.2558 54.4091 15.0989C54.4091 17.5448 53.3991 19.1282 51.8555 19.1282ZM51.7913 22.7647C55.5885 22.7647 59.4317 20.3563 59.4317 14.9762C59.4317 11.7719 57.5483 7.46997 52.0293 7.46997C46.348 7.46997 44.276 11.6394 44.276 15.2204C44.276 19.7135 47.3735 22.7647 51.7913 22.7647Z" fill="#B8BBBE"/>
<path d="M61.5852 22.4655H66.4655V7.76843H61.5852V22.4655Z" fill="#B8BBBE"/>
<path d="M81.6136 3.76961L81.6206 7.76529L79.7435 7.76981V11.4115L81.6136 11.4134V17.4848C81.6136 20.7155 83.1296 22.777 86.5522 22.777C88.0797 22.777 89.7311 22.3771 90.0055 22.288C90.0094 22.2847 89.9773 18.4809 89.9773 18.4674C89.8208 18.5203 88.8993 18.7122 88.2939 18.7122C87.6071 18.7122 86.3976 18.5178 86.3976 16.6649V11.4115H89.5425V7.7627C89.5425 7.7627 86.8125 7.7627 86.3976 7.7627C86.3976 7.33309 86.3976 3.22437 86.3976 3.22437L81.6136 3.76961Z" fill="#B8BBBE"/>
<path d="M70.319 3.76961L70.326 7.76529L68.449 7.76981V11.4115L70.319 11.4134V17.4848C70.319 20.7155 71.835 22.777 75.2583 22.777C76.7852 22.777 78.4365 22.3771 78.711 22.288C78.7148 22.2847 78.6828 18.4809 78.6828 18.4674C78.5263 18.5203 77.6048 18.7122 77 18.7122C76.3125 18.7122 75.1031 18.5178 75.1031 16.6649V11.4115H78.2486V7.7627C78.2486 7.7627 75.518 7.7627 75.1031 7.7627C75.1031 7.33309 75.1031 3.22437 75.1031 3.22437L70.319 3.76961Z" fill="#B8BBBE"/>
<path d="M61.5852 6.3666H66.4655V2.54858H61.5852V6.3666Z" fill="#B8BBBE"/>
<path fill-rule="evenodd" clip-rule="evenodd" d="M2.19803 22.4888L7.95494 22.4863C16.395 22.4863 19.6118 17.4117 19.6118 12.5898C19.6118 5.98221 15.4292 2.21265 7.83759 2.21265C5.75081 2.21265 3.45177 2.30567 2.19226 2.44457L2.19803 22.4888ZM8.69051 18.539C8.0396 18.5248 7.36303 18.5759 7.02058 18.5461C7.0225 18.5448 6.99172 6.29876 7.0116 6.29618C7.37072 6.25806 8.00625 6.22447 8.74566 6.22447C11.6123 6.22447 14.5404 8.11475 14.5404 12.4438C14.5404 17.4046 10.7985 18.5855 8.69051 18.539Z" fill="#B8BBBE"/>
<path d="M106.407 20.0669C106.407 18.5649 107.616 17.3478 109.107 17.3478C110.598 17.3478 111.808 18.5649 111.808 20.0669C111.808 21.5696 110.598 22.7873 109.107 22.7873C107.616 22.7873 106.407 21.5696 106.407 20.0669Z" fill="#B8BBBE"/>
</svg>
