<svg width="128" height="23" viewBox="0 0 128 23" fill="none" xmlns="http://www.w3.org/2000/svg">
<g clip-path="url(#clip0_1_2817)">
<path d="M34.5482 6.59653C34.8913 6.59653 35.1853 6.86806 35.1853 7.21944V19.1187C35.1853 19.4542 34.8749 19.7257 34.5482 19.7257H32.8984C32.5881 19.7257 32.2777 19.4861 32.2777 19.1507V18.0486C31.4446 19.2465 30.0071 20.0771 27.9163 20.0771C24.4206 20.0771 22.2644 17.809 22.2644 14.4389V7.1875C22.2644 6.85208 22.5748 6.58056 22.9015 6.58056H24.5513C24.8943 6.58056 25.172 6.85208 25.172 7.1875V13.9757C25.172 16.1639 26.3481 17.6174 28.6677 17.6174C30.9382 17.6174 32.2777 16.116 32.2777 14.0076V7.1875C32.2777 6.85208 32.5881 6.58056 32.8984 6.58056H34.5482M10.2093 0C4.55743 0 0 4.29653 0 10.0306C0 15.7806 4.55743 20.0611 10.2093 20.0611C11.173 20.0611 12.1041 19.9333 12.9862 19.6938L14.097 22.4889C14.2113 22.7924 14.44 22.984 14.8484 22.984H16.6126C17.0373 22.984 17.3476 22.7125 17.1516 22.1854L15.7141 18.5278C18.5401 16.7868 20.4186 13.7042 20.4186 10.0146C20.4186 4.29653 15.8612 0 10.2093 0ZM14.6524 15.8604L13.3619 12.5861C13.2476 12.3146 13.0189 12.059 12.5288 12.059H10.8464C10.4216 12.059 10.0949 12.3306 10.291 12.8576L11.9898 17.1542C11.4344 17.2979 10.83 17.3618 10.2093 17.3618C6.07657 17.3618 3.13629 14.1833 3.13629 10.0306C3.13629 5.87778 6.07657 2.69931 10.2093 2.69931C14.342 2.69931 17.2823 5.87778 17.2823 10.0306C17.2823 12.4583 16.2859 14.5347 14.6524 15.8604ZM127.951 19.0549C128.098 19.3903 127.918 19.7097 127.51 19.7097H125.664C125.321 19.7097 125.043 19.55 124.929 19.2146L121.515 10.2382L118.052 19.2146C117.905 19.566 117.66 19.7097 117.317 19.7097H115.667C115.324 19.7097 115.079 19.566 114.932 19.2146L111.436 10.1903L107.99 19.2146C107.843 19.55 107.598 19.7097 107.255 19.7097H105.523C105.18 19.7097 104.935 19.55 104.788 19.2146L101.374 10.1903L97.8458 19.2146C97.6988 19.566 97.4538 19.7097 97.1108 19.7097H95.461C95.1179 19.7097 94.8729 19.566 94.7259 19.2146L91.2792 10.1903L87.8326 19.2146C87.7182 19.55 87.4405 19.7097 87.0975 19.7097H85.3007C84.876 19.7097 84.7126 19.3743 84.8596 19.0549L89.5314 7.10764C89.6784 6.75625 89.9234 6.58056 90.2665 6.58056H92.2757C92.6187 6.58056 92.8637 6.74028 93.0107 7.10764L96.3757 15.8285L99.708 7.10764C99.855 6.75625 100.1 6.58056 100.443 6.58056H102.42C102.763 6.58056 103.008 6.74028 103.155 7.10764L106.454 15.8285L109.754 7.10764C109.901 6.75625 110.146 6.58056 110.489 6.58056H112.482C112.825 6.58056 113.07 6.74028 113.217 7.10764L116.566 15.8285L119.833 7.10764C119.98 6.75625 120.225 6.58056 120.568 6.58056H122.577C122.92 6.58056 123.165 6.74028 123.312 7.10764L127.951 19.0549ZM50.5401 6.59653H48.8903C48.5472 6.59653 48.2532 6.86806 48.2532 7.21944V8.30556C47.4201 7.07569 45.7866 6.19722 43.8591 6.19722C40.2164 6.19722 37.0965 9.00833 37.0965 13.1132C37.0965 17.266 40.2328 20.0611 43.8428 20.0611C45.803 20.0611 47.3874 19.1826 48.2695 17.9528V19.1028C48.2695 19.4382 48.5799 19.7097 48.9066 19.7097H50.5564C50.8994 19.7097 51.1771 19.4382 51.1771 19.1028V7.21944C51.1608 6.86806 50.8831 6.59653 50.5401 6.59653ZM44.1695 17.4417C41.7682 17.4417 40.0531 15.525 40.0531 13.1451C40.0531 10.7333 41.7519 8.88056 44.1695 8.88056C46.5544 8.88056 48.2859 10.7333 48.2859 13.1451C48.2695 15.541 46.538 17.4417 44.1695 17.4417ZM70.2236 17.8569C70.583 18.2882 70.2726 18.6236 70.0766 18.7674C68.9331 19.6139 67.414 20.0771 65.7642 20.0771C61.5988 20.0771 58.8219 17.0903 58.8219 13.1611C58.8219 9.23195 61.5988 6.21319 65.7642 6.21319C67.414 6.21319 68.9168 6.67639 70.0766 7.52292C70.2726 7.66667 70.5503 7.95417 70.2236 8.43333L69.4395 9.50347C69.1292 9.91875 68.7698 9.80694 68.4594 9.61528C67.7244 9.18403 66.8586 8.81667 65.8622 8.81667C63.4283 8.81667 61.8111 10.7333 61.8111 13.1611C61.8111 15.5889 63.4283 17.4896 65.8622 17.4896C66.8749 17.4896 67.6753 17.1063 68.4104 16.691C68.7208 16.5312 69.0475 16.3875 69.3905 16.8347L70.2236 17.8569ZM77.999 6.22917C74.0786 6.22917 70.9587 9.23195 70.9587 13.1451C70.9587 17.0903 74.095 20.0611 77.999 20.0611C81.9193 20.0611 85.0393 17.0743 85.0393 13.1451C85.0556 9.24792 81.9193 6.22917 77.999 6.22917ZM77.999 17.4257C75.5978 17.4257 73.8826 15.541 73.8826 13.1611C73.8826 10.7493 75.5814 8.89653 77.999 8.89653C80.4002 8.89653 82.1154 10.7493 82.1154 13.1611C82.1154 15.541 80.4165 17.4257 77.999 17.4257ZM56.3226 0.351389C56.682 0.351389 56.9433 0.654861 56.9433 0.974306V19.0868C56.9433 19.4222 56.6983 19.7097 56.3226 19.7097H54.6728C54.3298 19.7097 54.0357 19.4062 54.0357 19.0868V0.990278C54.0357 0.654861 54.3461 0.367361 54.6728 0.367361H56.3226" fill="#B8BBBE"/>
</g>
<defs>
<clipPath id="clip0_1_2817">
<rect width="128" height="23" fill="white"/>
</clipPath>
</defs>
</svg>
