<svg width="115" height="28" viewBox="0 0 115 28" fill="none" xmlns="http://www.w3.org/2000/svg">
<g clip-path="url(#clip0_1_2801)">
<rect width="115" height="28" fill="#F3F7F8"/>
<path d="M66.5802 14.8425C66.5802 12.0783 65.4361 9.64197 61.5729 9.64197C59.5883 9.64197 58.0131 10.2175 57.1526 10.7312L57.7815 12.955C58.5661 12.4434 59.8179 12.0184 61.0039 12.0184C62.9644 12.0143 63.2859 13.1654 63.2859 13.9039V14.0793C59.0113 14.071 56.312 15.5996 56.312 18.7146C56.312 20.6166 57.6876 22.401 60.0795 22.401C61.5489 22.401 62.7808 21.7945 63.5155 20.8229H63.5894C63.5894 20.8229 64.0765 22.9332 66.7678 22.1266C66.6261 21.2478 66.5802 20.3113 66.5802 19.1849M63.3877 17.7657C63.3877 17.9905 63.3697 18.2216 63.3078 18.4279C63.0603 19.2716 62.2118 19.9874 61.1536 19.9874C60.2691 19.9874 59.5683 19.4696 59.5683 18.3722C59.5683 16.6971 61.3552 16.2329 63.3877 16.2432V17.7657Z" fill="#B8BBBE"/>
<path d="M0 5.8772C0 5.8772 2.79115 17.6997 3.23837 19.6202C3.75747 21.8606 4.69583 22.6836 7.39714 22.1287L9.14011 14.7992C9.58333 12.9777 9.87882 11.6801 10.1623 9.82971H10.2122C10.4139 11.6987 10.6974 12.9839 11.0608 14.8054C11.0608 14.8054 11.7695 18.1329 12.1329 19.8802C12.4963 21.6274 13.5125 22.729 16.1579 22.1287L20.3127 5.87926H16.9585L15.541 12.9055C15.1596 14.9498 14.8142 16.5506 14.5467 18.4196H14.4988C14.2572 16.5692 13.9477 15.0324 13.5604 13.0417L12.083 5.88133H8.58906L7.00981 12.8622C6.56259 14.9849 6.14332 16.6951 5.87778 18.5042H5.82986C5.55634 16.8023 5.19297 14.6507 4.79965 12.5961C4.79965 12.5961 3.86128 7.60591 3.53186 5.88339" fill="#B8BBBE"/>
<path d="M29.846 14.8425C29.846 12.0783 28.702 9.64197 24.8387 9.64197C22.8541 9.64197 21.2789 10.2175 20.4204 10.7312L21.0493 12.955C21.8339 12.4434 23.0857 12.0184 24.2717 12.0184C26.2343 12.0143 26.5537 13.1654 26.5537 13.9039V14.0793C22.2791 14.071 19.5798 15.5996 19.5798 18.7146C19.5798 20.6166 20.9554 22.401 23.3453 22.401C24.8167 22.401 26.0466 21.7945 26.7833 20.8229H26.8552C26.8552 20.8229 27.3443 22.9332 30.0337 22.1266C29.8919 21.2478 29.846 20.3113 29.846 19.1849M26.6555 17.7657C26.6555 17.9905 26.6356 18.2216 26.5757 18.4279C26.3281 19.2716 25.4816 19.9874 24.4214 19.9874C23.537 19.9874 22.8362 19.4696 22.8362 18.3722C22.8362 16.6971 24.6231 16.2329 26.6555 16.2432V17.7657Z" fill="#B8BBBE"/>
<path d="M35.1708 18.6754V5.8772H31.9763V22.1267H35.1708" fill="#B8BBBE"/>
<path d="M76.9541 5.8772V17.8647C76.9541 19.5171 77.2556 20.6764 77.8985 21.382C78.4595 22.0008 79.3859 22.401 80.4979 22.401C81.4423 22.401 82.3707 22.2154 82.8099 22.0483L82.768 19.4717C82.4426 19.5542 82.0672 19.6182 81.5541 19.6182C80.466 19.6182 80.1026 18.8982 80.1026 17.415V12.8271H82.8818V9.72038H80.1026V5.8772" fill="#B8BBBE"/>
<path d="M68.7085 9.92254V22.1287H72.0028V15.8781C72.0028 15.5419 72.0227 15.2489 72.0746 14.9787C72.3182 13.6688 73.2885 12.8312 74.6781 12.8312C75.0614 12.8312 75.335 12.8745 75.6305 12.9179V9.72037C75.3809 9.6688 75.2112 9.64404 74.9017 9.64404C73.6719 9.64404 72.2763 10.4651 71.6873 12.2227H71.5955V9.92254" fill="#B8BBBE"/>
<path d="M37.407 9.92255V22.1287H40.6174V14.9705C40.6174 14.6342 40.6553 14.2794 40.7691 13.97C41.0347 13.2479 41.6835 12.4063 42.7197 12.4063C44.0135 12.4063 44.6204 13.5388 44.6204 15.1706V22.1287H47.8269V14.8838C47.8269 14.5641 47.8708 14.1783 47.9606 13.8936C48.2242 13.0747 48.923 12.4063 49.8873 12.4063C51.201 12.4063 51.8319 13.5182 51.8319 15.4387V22.1287H55.0403V14.9395C55.0403 11.1479 53.1776 9.64612 51.0732 9.64612C50.1408 9.64612 49.4061 9.88748 48.7413 10.3083C48.1822 10.6631 47.6811 11.1685 47.2459 11.8307H47.198C46.6908 10.5146 45.4969 9.64612 43.9416 9.64612C41.9431 9.64612 41.0447 10.6941 40.4996 11.5811H40.4517V9.92255" fill="#B8BBBE"/>
<path d="M100.15 9.42951C100.785 9.42951 101.306 9.08708 101.376 8.64562L102.003 1.3182C102.003 0.594118 101.184 0 100.15 0C99.1176 0 98.2991 0.594118 98.2991 1.3182L98.926 8.64562C98.9939 9.08708 99.517 9.42951 100.15 9.42951Z" fill="#B8BBBE"/>
<path d="M96.3166 11.7172C96.634 11.152 96.6101 10.5104 96.2746 10.2278L90.4468 6.00504C89.8418 5.64197 88.9314 6.0793 88.4163 7.00141C87.9012 7.92559 87.9911 8.95498 88.596 9.31599L95.0468 12.4186C95.4521 12.5733 95.9991 12.2783 96.3186 11.709" fill="#B8BBBE"/>
<path d="M103.983 11.7111C104.301 12.2804 104.85 12.5754 105.251 12.4207L111.706 9.31809C112.313 8.95502 112.403 7.92564 111.885 7.00352C111.37 6.07934 110.458 5.64406 109.855 6.00713L104.027 10.2299C103.694 10.5125 103.67 11.1541 103.985 11.7193" fill="#B8BBBE"/>
<path d="M100.15 18.5806C100.785 18.5806 101.306 18.9189 101.376 19.3583L102.003 26.6836C102.003 27.4098 101.184 28.0039 100.15 28.0039C99.1176 28.0039 98.2991 27.4098 98.2991 26.6836L98.926 19.3583C98.9939 18.9189 99.517 18.5806 100.15 18.5806Z" fill="#B8BBBE"/>
<path d="M103.983 16.2927C104.301 15.7234 104.85 15.4284 105.251 15.5831L111.706 18.6836C112.313 19.0488 112.403 20.0782 111.885 21.0023C111.37 21.9245 110.458 22.3618 109.855 21.9987L104.027 17.7801C103.694 17.4954 103.67 16.8559 103.985 16.2886" fill="#B8BBBE"/>
<path d="M96.3166 16.2886C96.634 16.858 96.6101 17.4954 96.2746 17.7801L90.4468 22.0008C89.8418 22.3618 88.9314 21.9244 88.4163 21.0044C87.9012 20.0802 87.9911 19.0488 88.596 18.6836L95.0468 15.5851C95.4521 15.4263 95.9991 15.7234 96.3186 16.2907" fill="#B8BBBE"/>
<path d="M113.978 20.5073C114.549 20.5073 115 20.9653 115 21.5491C115 22.1473 114.549 22.6053 113.97 22.6053C113.393 22.6053 112.936 22.1453 112.936 21.5491C112.936 20.9653 113.393 20.5073 113.97 20.5073M113.966 20.6909C113.507 20.6909 113.159 21.0767 113.159 21.5491C113.159 22.0359 113.507 22.4155 113.978 22.4155C114.435 22.4238 114.77 22.038 114.77 21.5573C114.77 21.0787 114.435 20.6909 113.97 20.6909H113.966ZM113.786 22.1267H113.59V21.0313C113.696 21.0107 113.81 20.9983 113.958 20.9983C114.135 20.9983 114.225 21.0313 114.293 21.0849C114.357 21.1303 114.401 21.217 114.401 21.316C114.401 21.4542 114.305 21.5388 114.191 21.578V21.5903C114.287 21.6295 114.337 21.7141 114.369 21.8523C114.401 22.0215 114.421 22.0875 114.445 22.1267H114.239C114.209 22.0875 114.185 21.9885 114.157 21.8379C114.133 21.7203 114.064 21.6667 113.91 21.6667H113.782V22.1267H113.786ZM113.786 21.5099H113.92C114.068 21.5099 114.193 21.4645 114.193 21.3325C114.193 21.2273 114.129 21.1551 113.94 21.1551C113.866 21.1551 113.822 21.1613 113.786 21.1695V21.5099Z" fill="#FDBB30"/>
</g>
<defs>
<clipPath id="clip0_1_2801">
<rect width="115" height="28" fill="white"/>
</clipPath>
</defs>
</svg>
